G04 ================== begin FILE IDENTIFICATION RECORD ==================*
G04 Layout Name:  F:/PCB_PROJECT/386_Dram_board/PCB/DRAM_BOARD.brd*
G04 Film Name:    POWER*
G04 File Format:  Gerber RS274X*
G04 File Origin:  Cadence Allegro 17.2-S058*
G04 Origin Date:  Thu Dec 30 22:30:05 2021*
G04 *
G04 Layer:  BOARD GEOMETRY/OUTLINE*
G04 Layer:  ETCH/POWER*
G04 Layer:  PIN/POWER*
G04 Layer:  VIA CLASS/POWER*
G04 *
G04 Offset:    (0.00 0.00)*
G04 Mirror:    No*
G04 Mode:      Positive*
G04 Rotation:  0*
G04 FullContactRelief:  No*
G04 UndefLineWidth:     1.00*
G04 ================== end FILE IDENTIFICATION RECORD ====================*
%FSLAX25Y25*MOIN*%
%IR0*IPPOS*OFA0.00000B0.00000*MIA0B0*SFA1.00000B1.00000*%
%ADD12C,.02362*%
%ADD11C,.01772*%
%ADD10C,.20866*%
%ADD13C,.001*%
%ADD17C,.0554*%
%ADD16C,.06722*%
%ADD15C,.03366*%
%ADD14C,.02776*%
G75*
%LPD*%
G75*
G36*
G01X308420Y47999D02*
X309978D01*
G02X310363Y47490I0J-400D01*
G03X310311Y47113I1336J-376D01*
G03X311699Y45725I1388J0D01*
G03X312176Y45809I1J1388D01*
G02X312710Y45390I137J-376D01*
G03X312702Y45237I1380J-149D01*
G03X313197Y44174I1389J0D01*
G02X313189Y43555I-257J-306D01*
G03X311445Y41811I6811J-8555D01*
G02X310826Y41803I-313J249D01*
G03X309763Y42298I-1063J-894D01*
G03X308375Y40910I0J-1388D01*
G03X309521Y39543I1388J0D01*
G02X309824Y39003I-69J-394D01*
G03X309186Y36621I10176J-4002D01*
G02X308654Y36304I-396J59D01*
G03X308179Y36388I-476J-1304D01*
G03Y33612I0J-1388D01*
G03X308654Y33696I-1J1388D01*
G02X309186Y33379I136J-376D01*
G03X309824Y30997I10814J1620D01*
G02X309521Y30457I-372J-146D01*
G03X308375Y29090I242J-1367D01*
G03X309763Y27702I1388J0D01*
G03X310826Y28197I0J1389D01*
G02X311445Y28189I306J-257D01*
G03X313189Y26445I8555J6811D01*
G02X313197Y25826I-249J-313D01*
G03X312702Y24763I894J-1063D01*
G03X314090Y23375I1388J0D01*
G03X315457Y24521I0J1388D01*
G02X315997Y24824I394J-69D01*
G03X318379Y24186I4002J10176D01*
G02X318696Y23654I-59J-396D01*
G03X318612Y23179I1304J-476D01*
G03X321388I1388J0D01*
G03X321304Y23654I-1388J-1D01*
G02X321621Y24186I376J136D01*
G03X324003Y24824I-1620J10814D01*
G02X324543Y24521I146J-372D01*
G03X325910Y23375I1367J242D01*
G03X327298Y24763I0J1388D01*
G03X326803Y25826I-1389J0D01*
G02X326811Y26445I257J306D01*
G03X328555Y28189I-6811J8555D01*
G02X329174Y28197I313J-249D01*
G03X330237Y27702I1063J894D01*
G03X330307Y27704I-5J1388D01*
G02X330727Y27283I21J-399D01*
G03X330725Y27207I1386J-75D01*
G03X332113Y25819I1388J0D01*
G03X332490Y25871I1J1388D01*
G02X332999Y25486I109J-385D01*
G01Y23928D01*
G02X332490Y23543I-400J0D01*
G03X332113Y23595I-376J-1336D01*
G03Y20819I0J-1388D01*
G03X332490Y20871I1J1388D01*
G02X332999Y20486I109J-385D01*
G01Y18928D01*
G02X332490Y18543I-400J0D01*
G03X332113Y18595I-376J-1336D01*
G03Y15819I0J-1388D01*
G03X332490Y15871I1J1388D01*
G02X332999Y15486I109J-385D01*
G01Y13928D01*
G02X332490Y13543I-400J0D01*
G03X332113Y13595I-376J-1336D01*
G03Y10819I0J-1388D01*
G03X332490Y10871I1J1388D01*
G02X332999Y10486I109J-385D01*
G01Y8928D01*
G02X332490Y8543I-400J0D01*
G03X332113Y8595I-376J-1336D01*
G03Y5819I0J-1388D01*
G03X332490Y5871I1J1388D01*
G02X332999Y5486I109J-385D01*
G01Y3928D01*
G02X332490Y3543I-400J0D01*
G03X332113Y3595I-376J-1336D01*
G03Y819I0J-1388D01*
G03X332490Y871I1J1388D01*
G02X332999Y486I109J-385D01*
G01Y-1072D01*
G02X332490Y-1457I-400J0D01*
G03X332113Y-1405I-376J-1336D01*
G03Y-4181I0J-1388D01*
G03X332490Y-4129I1J1388D01*
G02X332999Y-4514I109J-385D01*
G01Y-6072D01*
G02X332490Y-6457I-400J0D01*
G03X332113Y-6405I-376J-1336D01*
G03Y-9181I0J-1388D01*
G03X332490Y-9129I1J1388D01*
G02X332999Y-9514I109J-385D01*
G01Y-11072D01*
G02X332490Y-11457I-400J0D01*
G03X332113Y-11405I-376J-1336D01*
G03Y-14181I0J-1388D01*
G03X332490Y-14129I1J1388D01*
G02X332999Y-14514I109J-385D01*
G01Y-16072D01*
G02X332490Y-16457I-400J0D01*
G03X332113Y-16405I-376J-1336D01*
G03Y-19181I0J-1388D01*
G03X332490Y-19129I1J1388D01*
G02X332999Y-19514I109J-385D01*
G01Y-21072D01*
G02X332490Y-21457I-400J0D01*
G03X332113Y-21405I-376J-1336D01*
G03Y-24181I0J-1388D01*
G03X332490Y-24129I1J1388D01*
G02X332999Y-24514I109J-385D01*
G01Y-26072D01*
G02X332490Y-26457I-400J0D01*
G03X332113Y-26405I-376J-1336D01*
G03Y-29181I0J-1388D01*
G03X332490Y-29129I1J1388D01*
G02X332999Y-29514I109J-385D01*
G01Y-31072D01*
G02X332490Y-31457I-400J0D01*
G03X332113Y-31405I-376J-1336D01*
G03Y-34181I0J-1388D01*
G03X332490Y-34129I1J1388D01*
G02X332999Y-34514I109J-385D01*
G01Y-36072D01*
G02X332490Y-36457I-400J0D01*
G03X332113Y-36405I-376J-1336D01*
G03Y-39181I0J-1388D01*
G03X332490Y-39129I1J1388D01*
G02X332999Y-39514I109J-385D01*
G01Y-41072D01*
G02X332490Y-41457I-400J0D01*
G03X332113Y-41405I-376J-1336D01*
G03Y-44181I0J-1388D01*
G03X332490Y-44129I1J1388D01*
G02X332999Y-44514I109J-385D01*
G01Y-46072D01*
G02X332490Y-46457I-400J0D01*
G03X332113Y-46405I-376J-1336D01*
G03Y-49181I0J-1388D01*
G03X332490Y-49129I1J1388D01*
G02X332999Y-49514I109J-385D01*
G01Y-51072D01*
G02X332490Y-51457I-400J0D01*
G03X332113Y-51405I-376J-1336D01*
G03Y-54181I0J-1388D01*
G03X332490Y-54129I1J1388D01*
G02X332999Y-54514I109J-385D01*
G01Y-56072D01*
G02X332490Y-56457I-400J0D01*
G03X332113Y-56405I-376J-1336D01*
G03Y-59181I0J-1388D01*
G03X332490Y-59129I1J1388D01*
G02X332999Y-59514I109J-385D01*
G01Y-61072D01*
G02X332490Y-61457I-400J0D01*
G03X332113Y-61405I-376J-1336D01*
G03Y-64181I0J-1388D01*
G03X332490Y-64129I1J1388D01*
G02X332999Y-64514I109J-385D01*
G01Y-66072D01*
G02X332490Y-66457I-400J0D01*
G03X332113Y-66405I-376J-1336D01*
G03Y-69181I0J-1388D01*
G03X332490Y-69129I1J1388D01*
G02X332999Y-69514I109J-385D01*
G01Y-71072D01*
G02X332490Y-71457I-400J0D01*
G03X332113Y-71405I-376J-1336D01*
G03Y-74181I0J-1388D01*
G03X332490Y-74129I1J1388D01*
G02X332999Y-74514I109J-385D01*
G01Y-76072D01*
G02X332490Y-76457I-400J0D01*
G03X332113Y-76405I-376J-1336D01*
G03Y-79181I0J-1388D01*
G03X332490Y-79129I1J1388D01*
G02X332999Y-79514I109J-385D01*
G01Y-81072D01*
G02X332490Y-81457I-400J0D01*
G03X332113Y-81405I-376J-1336D01*
G03Y-84181I0J-1388D01*
G03X332490Y-84129I1J1388D01*
G02X332999Y-84514I109J-385D01*
G01Y-86072D01*
G02X332490Y-86457I-400J0D01*
G03X332113Y-86405I-376J-1336D01*
G03Y-89181I0J-1388D01*
G03X332490Y-89129I1J1388D01*
G02X332999Y-89514I109J-385D01*
G01Y-91072D01*
G02X332490Y-91457I-400J0D01*
G03X332113Y-91405I-376J-1336D01*
G03Y-94181I0J-1388D01*
G03X332490Y-94129I1J1388D01*
G02X332999Y-94514I109J-385D01*
G01Y-96072D01*
G02X332490Y-96457I-400J0D01*
G03X332113Y-96405I-376J-1336D01*
G03Y-99181I0J-1388D01*
G03X332490Y-99129I1J1388D01*
G02X332999Y-99514I109J-385D01*
G01Y-101072D01*
G02X332490Y-101457I-400J0D01*
G03X332113Y-101405I-376J-1336D01*
G03Y-104181I0J-1388D01*
G03X332490Y-104129I1J1388D01*
G02X332999Y-104514I109J-385D01*
G01Y-106072D01*
G02X332490Y-106457I-400J0D01*
G03X332113Y-106405I-376J-1336D01*
G03Y-109181I0J-1388D01*
G03X332490Y-109129I1J1388D01*
G02X332999Y-109514I109J-385D01*
G01Y-111072D01*
G02X332490Y-111457I-400J0D01*
G03X332113Y-111405I-376J-1336D01*
G03Y-114181I0J-1388D01*
G03X332490Y-114129I1J1388D01*
G02X332999Y-114514I109J-385D01*
G01Y-116072D01*
G02X332490Y-116457I-400J0D01*
G03X332113Y-116405I-376J-1336D01*
G03Y-119181I0J-1388D01*
G03X332490Y-119129I1J1388D01*
G02X332999Y-119514I109J-385D01*
G01Y-121072D01*
G02X332490Y-121457I-400J0D01*
G03X332113Y-121405I-376J-1336D01*
G03Y-124181I0J-1388D01*
G03X332490Y-124129I1J1388D01*
G02X332999Y-124514I109J-385D01*
G01Y-126072D01*
G02X332490Y-126457I-400J0D01*
G03X332113Y-126405I-376J-1336D01*
G03Y-129181I0J-1388D01*
G03X332490Y-129129I1J1388D01*
G02X332999Y-129514I109J-385D01*
G01Y-131072D01*
G02X332490Y-131457I-400J0D01*
G03X332113Y-131405I-376J-1336D01*
G03Y-134181I0J-1388D01*
G03X332490Y-134129I1J1388D01*
G02X332999Y-134514I109J-385D01*
G01Y-136072D01*
G02X332490Y-136457I-400J0D01*
G03X332113Y-136405I-376J-1336D01*
G03Y-139181I0J-1388D01*
G03X332490Y-139129I1J1388D01*
G02X332999Y-139514I109J-385D01*
G01Y-141072D01*
G02X332490Y-141457I-400J0D01*
G03X332113Y-141405I-376J-1336D01*
G03Y-144181I0J-1388D01*
G03X332490Y-144129I1J1388D01*
G02X332999Y-144514I109J-385D01*
G01Y-146072D01*
G02X332490Y-146457I-400J0D01*
G03X332113Y-146405I-376J-1336D01*
G03Y-149181I0J-1388D01*
G03X332490Y-149129I1J1388D01*
G02X332999Y-149514I109J-385D01*
G01Y-151072D01*
G02X332490Y-151457I-400J0D01*
G03X332113Y-151405I-376J-1336D01*
G03Y-154181I0J-1388D01*
G03X332490Y-154129I1J1388D01*
G02X332999Y-154514I109J-385D01*
G01Y-156072D01*
G02X332490Y-156457I-400J0D01*
G03X332113Y-156405I-376J-1336D01*
G03Y-159181I0J-1388D01*
G03X332490Y-159129I1J1388D01*
G02X332999Y-159514I109J-385D01*
G01Y-161072D01*
G02X332490Y-161457I-400J0D01*
G03X332113Y-161405I-376J-1336D01*
G03Y-164181I0J-1388D01*
G03X332490Y-164129I1J1388D01*
G02X332999Y-164514I109J-385D01*
G01Y-166072D01*
G02X332490Y-166457I-400J0D01*
G03X332113Y-166405I-376J-1336D01*
G03Y-169181I0J-1388D01*
G03X332490Y-169129I1J1388D01*
G02X332999Y-169514I109J-385D01*
G01Y-171072D01*
G02X332490Y-171457I-400J0D01*
G03X332113Y-171405I-376J-1336D01*
G03Y-174181I0J-1388D01*
G03X332490Y-174129I1J1388D01*
G02X332999Y-174514I109J-385D01*
G01Y-176072D01*
G02X332490Y-176457I-400J0D01*
G03X332113Y-176405I-376J-1336D01*
G03Y-179181I0J-1388D01*
G03X332490Y-179129I1J1388D01*
G02X332999Y-179514I109J-385D01*
G01Y-181072D01*
G02X332490Y-181457I-400J0D01*
G03X332113Y-181405I-376J-1336D01*
G03Y-184181I0J-1388D01*
G03X332490Y-184129I1J1388D01*
G02X332999Y-184514I109J-385D01*
G01Y-186072D01*
G02X332490Y-186457I-400J0D01*
G03X332113Y-186405I-376J-1336D01*
G03Y-189181I0J-1388D01*
G03X332490Y-189129I1J1388D01*
G02X332999Y-189514I109J-385D01*
G01Y-191072D01*
G02X332490Y-191457I-400J0D01*
G03X332113Y-191405I-376J-1336D01*
G03Y-194181I0J-1388D01*
G03X332490Y-194129I1J1388D01*
G02X332999Y-194514I109J-385D01*
G01Y-196072D01*
G02X332490Y-196457I-400J0D01*
G03X332113Y-196405I-376J-1336D01*
G03Y-199181I0J-1388D01*
G03X332490Y-199129I1J1388D01*
G02X332999Y-199514I109J-385D01*
G01Y-201072D01*
G02X332490Y-201457I-400J0D01*
G03X332113Y-201405I-376J-1336D01*
G03Y-204181I0J-1388D01*
G03X332490Y-204129I1J1388D01*
G02X332999Y-204514I109J-385D01*
G01Y-206072D01*
G02X332490Y-206457I-400J0D01*
G03X332113Y-206405I-376J-1336D01*
G03Y-209181I0J-1388D01*
G03X332490Y-209129I1J1388D01*
G02X332999Y-209514I109J-385D01*
G01Y-211072D01*
G02X332490Y-211457I-400J0D01*
G03X332113Y-211405I-376J-1336D01*
G03Y-214181I0J-1388D01*
G03X332490Y-214129I1J1388D01*
G02X332999Y-214514I109J-385D01*
G01Y-216072D01*
G02X332490Y-216457I-400J0D01*
G03X332113Y-216405I-376J-1336D01*
G03Y-219181I0J-1388D01*
G03X332490Y-219129I1J1388D01*
G02X332999Y-219514I109J-385D01*
G01Y-221072D01*
G02X332490Y-221457I-400J0D01*
G03X332113Y-221405I-376J-1336D01*
G03Y-224181I0J-1388D01*
G03X332490Y-224129I1J1388D01*
G02X332999Y-224514I109J-385D01*
G01Y-226072D01*
G02X332490Y-226457I-400J0D01*
G03X332113Y-226405I-376J-1336D01*
G03Y-229181I0J-1388D01*
G03X332490Y-229129I1J1388D01*
G02X332999Y-229514I109J-385D01*
G01Y-231072D01*
G02X332490Y-231457I-400J0D01*
G03X332113Y-231405I-376J-1336D01*
G03Y-234181I0J-1388D01*
G03X332490Y-234129I1J1388D01*
G02X332999Y-234514I109J-385D01*
G01Y-236072D01*
G02X332490Y-236457I-400J0D01*
G03X332113Y-236405I-376J-1336D01*
G03Y-239181I0J-1388D01*
G03X332490Y-239129I1J1388D01*
G02X332999Y-239514I109J-385D01*
G01Y-241072D01*
G02X332490Y-241457I-400J0D01*
G03X332113Y-241405I-376J-1336D01*
G03Y-244181I0J-1388D01*
G03X332490Y-244129I1J1388D01*
G02X332999Y-244514I109J-385D01*
G01Y-246072D01*
G02X332490Y-246457I-400J0D01*
G03X332113Y-246405I-376J-1336D01*
G03Y-249181I0J-1388D01*
G03X332490Y-249129I1J1388D01*
G02X332999Y-249514I109J-385D01*
G01Y-251072D01*
G02X332490Y-251457I-400J0D01*
G03X332113Y-251405I-376J-1336D01*
G03Y-254181I0J-1388D01*
G03X332490Y-254129I1J1388D01*
G02X332999Y-254514I109J-385D01*
G01Y-256072D01*
G02X332490Y-256457I-400J0D01*
G03X332113Y-256405I-376J-1336D01*
G03Y-259181I0J-1388D01*
G03X332490Y-259129I1J1388D01*
G02X332999Y-259514I109J-385D01*
G01Y-261072D01*
G02X332490Y-261457I-400J0D01*
G03X332113Y-261405I-376J-1336D01*
G03Y-264181I0J-1388D01*
G03X332490Y-264129I1J1388D01*
G02X332999Y-264514I109J-385D01*
G01Y-266072D01*
G02X332490Y-266457I-400J0D01*
G03X332113Y-266405I-376J-1336D01*
G03Y-269181I0J-1388D01*
G03X332490Y-269129I1J1388D01*
G02X332999Y-269514I109J-385D01*
G01Y-271072D01*
G02X332490Y-271457I-400J0D01*
G03X332113Y-271405I-376J-1336D01*
G03Y-274181I0J-1388D01*
G03X332490Y-274129I1J1388D01*
G02X332999Y-274514I109J-385D01*
G01Y-276072D01*
G02X332490Y-276457I-400J0D01*
G03X332113Y-276405I-376J-1336D01*
G03Y-279181I0J-1388D01*
G03X332490Y-279129I1J1388D01*
G02X332999Y-279514I109J-385D01*
G01Y-281072D01*
G02X332490Y-281457I-400J0D01*
G03X332113Y-281405I-376J-1336D01*
G03Y-284181I0J-1388D01*
G03X332490Y-284129I1J1388D01*
G02X332999Y-284514I109J-385D01*
G01Y-286072D01*
G02X332490Y-286457I-400J0D01*
G03X332113Y-286405I-376J-1336D01*
G03X330777Y-287417I0J-1388D01*
G02X330357Y-287707I-385J108D01*
G03X330237Y-287702I-118J-1383D01*
G03X329174Y-288197I0J-1389D01*
G02X328555Y-288189I-306J257D01*
G03X326811Y-286445I-8555J-6811D01*
G02X326803Y-285826I249J313D01*
G03X327298Y-284763I-894J1063D01*
G03X325910Y-283375I-1388J0D01*
G03X324543Y-284521I0J-1388D01*
G02X324003Y-284824I-394J69D01*
G03X321621Y-284186I-4002J-10176D01*
G02X321304Y-283654I59J396D01*
G03X321388Y-283179I-1304J476D01*
G03X318612I-1388J0D01*
G03X318696Y-283654I1388J1D01*
G02X318379Y-284186I-376J-136D01*
G03X315997Y-284824I1620J-10814D01*
G02X315457Y-284521I-146J372D01*
G03X315083Y-283794I-1366J-243D01*
G02X315069Y-283531I144J140D01*
G03X315362Y-282678I-1095J853D01*
G03X312586I-1388J0D01*
G03X312981Y-283647I1388J1D01*
G02X312995Y-283910I-144J-140D01*
G03X312702Y-284763I1095J-853D01*
G03X313197Y-285826I1389J0D01*
G02X313189Y-286445I-257J-306D01*
G03X311445Y-288189I6811J-8555D01*
G02X310826Y-288197I-313J249D01*
G03X310786Y-288152I-1057J-899D01*
G02X310937Y-287508I295J271D01*
G03X311827Y-286213I-497J1295D01*
G03X309051I-1388J0D01*
G03X309416Y-287151I1388J0D01*
G02X309265Y-287795I-295J-271D01*
G03X308475Y-288573I498J-1295D01*
G02X307835Y-288721I-371J149D01*
G03X306903Y-288361I-933J-1028D01*
G03Y-291137I0J-1388D01*
G03X308191Y-290266I0J1388D01*
G02X308831Y-290118I371J-149D01*
G03X309521Y-290457I933J1027D01*
G02X309824Y-290997I-69J-394D01*
G03X309186Y-293379I10176J-4002D01*
G02X308654Y-293696I-396J59D01*
G03X308179Y-293612I-476J-1304D01*
G03Y-296388I0J-1388D01*
G03X308654Y-296304I-1J1388D01*
G02X309186Y-296621I136J-376D01*
G03X309824Y-299003I10814J1620D01*
G02X309521Y-299543I-372J-146D01*
G03X308375Y-300910I242J-1367D01*
G03X309763Y-302298I1388J0D01*
G03X310826Y-301803I0J1389D01*
G02X311445Y-301811I306J-257D01*
G03X313189Y-303555I8555J6811D01*
G02X313197Y-304174I-249J-313D01*
G03X312702Y-305237I894J-1063D01*
G03X314090Y-306625I1388J0D01*
G03X314272Y-306613I0J1388D01*
G02X314724Y-307033I53J-396D01*
G03X314722Y-307113I1386J-75D01*
G03X314774Y-307490I1388J-1D01*
G02X314389Y-307999I-385J-109D01*
G01X312831D01*
G02X312446Y-307490I0J400D01*
G03X312498Y-307113I-1336J376D01*
G03X309722I-1388J0D01*
G03X309774Y-307490I1388J-1D01*
G02X309389Y-307999I-385J-109D01*
G01X307831D01*
G02X307446Y-307490I0J400D01*
G03X307498Y-307113I-1336J376D01*
G03X304722I-1388J0D01*
G03X304774Y-307490I1388J-1D01*
G02X304389Y-307999I-385J-109D01*
G01X302831D01*
G02X302446Y-307490I0J400D01*
G03X302498Y-307113I-1336J376D01*
G03X299722I-1388J0D01*
G03X299774Y-307490I1388J-1D01*
G02X299389Y-307999I-385J-109D01*
G01X297831D01*
G02X297446Y-307490I0J400D01*
G03X297498Y-307113I-1336J376D01*
G03X294722I-1388J0D01*
G03X294774Y-307490I1388J-1D01*
G02X294389Y-307999I-385J-109D01*
G01X292831D01*
G02X292446Y-307490I0J400D01*
G03X292498Y-307113I-1336J376D01*
G03X289722I-1388J0D01*
G03X289774Y-307490I1388J-1D01*
G02X289389Y-307999I-385J-109D01*
G01X287831D01*
G02X287446Y-307490I0J400D01*
G03X287498Y-307113I-1336J376D01*
G03X284722I-1388J0D01*
G03X284774Y-307490I1388J-1D01*
G02X284389Y-307999I-385J-109D01*
G01X282831D01*
G02X282446Y-307490I0J400D01*
G03X282498Y-307113I-1336J376D01*
G03X279722I-1388J0D01*
G03X279774Y-307490I1388J-1D01*
G02X279389Y-307999I-385J-109D01*
G01X277831D01*
G02X277446Y-307490I0J400D01*
G03X277498Y-307113I-1336J376D01*
G03X274722I-1388J0D01*
G03X274774Y-307490I1388J-1D01*
G02X274389Y-307999I-385J-109D01*
G01X267831D01*
G02X267446Y-307490I0J400D01*
G03X267498Y-307113I-1336J376D01*
G03X264722I-1388J0D01*
G03X264774Y-307490I1388J-1D01*
G02X264389Y-307999I-385J-109D01*
G01X257831D01*
G02X257446Y-307490I0J400D01*
G03X257498Y-307113I-1336J376D01*
G03X254722I-1388J0D01*
G03X254774Y-307490I1388J-1D01*
G02X254389Y-307999I-385J-109D01*
G01X247831D01*
G02X247446Y-307490I0J400D01*
G03X247498Y-307113I-1336J376D01*
G03X244722I-1388J0D01*
G03X244774Y-307490I1388J-1D01*
G02X244389Y-307999I-385J-109D01*
G01X237831D01*
G02X237446Y-307490I0J400D01*
G03X237498Y-307113I-1336J376D01*
G03X234722I-1388J0D01*
G03X234774Y-307490I1388J-1D01*
G02X234389Y-307999I-385J-109D01*
G01X227831D01*
G02X227446Y-307490I0J400D01*
G03X227498Y-307113I-1336J376D01*
G03X224722I-1388J0D01*
G03X224774Y-307490I1388J-1D01*
G02X224389Y-307999I-385J-109D01*
G01X217831D01*
G02X217446Y-307490I0J400D01*
G03X217498Y-307113I-1336J376D01*
G03X214722I-1388J0D01*
G03X214774Y-307490I1388J-1D01*
G02X214389Y-307999I-385J-109D01*
G01X207831D01*
G02X207446Y-307490I0J400D01*
G03X207498Y-307113I-1336J376D01*
G03X204722I-1388J0D01*
G03X204774Y-307490I1388J-1D01*
G02X204389Y-307999I-385J-109D01*
G01X197831D01*
G02X197446Y-307490I0J400D01*
G03X197498Y-307113I-1336J376D01*
G03X194722I-1388J0D01*
G03X194774Y-307490I1388J-1D01*
G02X194389Y-307999I-385J-109D01*
G01X187831D01*
G02X187446Y-307490I0J400D01*
G03X187498Y-307113I-1336J376D01*
G03X184722I-1388J0D01*
G03X184774Y-307490I1388J-1D01*
G02X184389Y-307999I-385J-109D01*
G01X177831D01*
G02X177446Y-307490I0J400D01*
G03X177498Y-307113I-1336J376D01*
G03X174722I-1388J0D01*
G03X174774Y-307490I1388J-1D01*
G02X174389Y-307999I-385J-109D01*
G01X167831D01*
G02X167446Y-307490I0J400D01*
G03X167498Y-307113I-1336J376D01*
G03X164722I-1388J0D01*
G03X164774Y-307490I1388J-1D01*
G02X164389Y-307999I-385J-109D01*
G01X157831D01*
G02X157446Y-307490I0J400D01*
G03X157498Y-307113I-1336J376D01*
G03X154722I-1388J0D01*
G03X154774Y-307490I1388J-1D01*
G02X154389Y-307999I-385J-109D01*
G01X147831D01*
G02X147446Y-307490I0J400D01*
G03X147498Y-307113I-1336J376D01*
G03X144722I-1388J0D01*
G03X144774Y-307490I1388J-1D01*
G02X144389Y-307999I-385J-109D01*
G01X137831D01*
G02X137446Y-307490I0J400D01*
G03X137498Y-307113I-1336J376D01*
G03X134722I-1388J0D01*
G03X134774Y-307490I1388J-1D01*
G02X134389Y-307999I-385J-109D01*
G01X127831D01*
G02X127446Y-307490I0J400D01*
G03X127498Y-307113I-1336J376D01*
G03X124722I-1388J0D01*
G03X124774Y-307490I1388J-1D01*
G02X124389Y-307999I-385J-109D01*
G01X117831D01*
G02X117446Y-307490I0J400D01*
G03X117498Y-307113I-1336J376D01*
G03X114722I-1388J0D01*
G03X114774Y-307490I1388J-1D01*
G02X114389Y-307999I-385J-109D01*
G01X112831D01*
G02X112446Y-307490I0J400D01*
G03X112498Y-307113I-1336J376D01*
G03X109722I-1388J0D01*
G03X109774Y-307490I1388J-1D01*
G02X109389Y-307999I-385J-109D01*
G01X107831D01*
G02X107446Y-307490I0J400D01*
G03X107498Y-307113I-1336J376D01*
G03X104722I-1388J0D01*
G03X104774Y-307490I1388J-1D01*
G02X104389Y-307999I-385J-109D01*
G01X102831D01*
G02X102446Y-307490I0J400D01*
G03X102498Y-307113I-1336J376D01*
G03X99722I-1388J0D01*
G03X99774Y-307490I1388J-1D01*
G02X99389Y-307999I-385J-109D01*
G01X97831D01*
G02X97446Y-307490I0J400D01*
G03X97498Y-307113I-1336J376D01*
G03X94722I-1388J0D01*
G03X94774Y-307490I1388J-1D01*
G02X94389Y-307999I-385J-109D01*
G01X87831D01*
G02X87446Y-307490I0J400D01*
G03X87498Y-307113I-1336J376D01*
G03X84722I-1388J0D01*
G03X84774Y-307490I1388J-1D01*
G02X84389Y-307999I-385J-109D01*
G01X82831D01*
G02X82446Y-307490I0J400D01*
G03X82498Y-307113I-1336J376D01*
G03X79722I-1388J0D01*
G03X79774Y-307490I1388J-1D01*
G02X79389Y-307999I-385J-109D01*
G01X77831D01*
G02X77446Y-307490I0J400D01*
G03X77498Y-307113I-1336J376D01*
G03X74722I-1388J0D01*
G03X74774Y-307490I1388J-1D01*
G02X74389Y-307999I-385J-109D01*
G01X72831D01*
G02X72446Y-307490I0J400D01*
G03X72498Y-307113I-1336J376D01*
G03X69722I-1388J0D01*
G03X69774Y-307490I1388J-1D01*
G02X69389Y-307999I-385J-109D01*
G01X67831D01*
G02X67446Y-307490I0J400D01*
G03X67498Y-307113I-1336J376D01*
G03X67022Y-306067I-1387J0D01*
G03X67298Y-305237I-1112J831D01*
G03X66803Y-304174I-1389J0D01*
G02X66811Y-303555I257J306D01*
G03X68555Y-301811I-6811J8555D01*
G02X69174Y-301803I313J-249D01*
G03X70237Y-302298I1063J894D01*
G03X71625Y-300910I0J1388D01*
G03X70479Y-299543I-1388J0D01*
G02X70176Y-299003I69J394D01*
G03X70814Y-296621I-10176J4002D01*
G02X71346Y-296304I396J-59D01*
G03X71821Y-296388I476J1304D01*
G03Y-293612I0J1388D01*
G03X71346Y-293696I1J-1388D01*
G02X70814Y-293379I-136J376D01*
G03X70176Y-290997I-10814J-1620D01*
G02X70479Y-290457I372J146D01*
G03X71052Y-290214I-242J1367D01*
G02X71610Y-290302I235J-323D01*
G03X72733Y-290874I1123J816D01*
G03Y-288098I0J1388D01*
G03X71918Y-288362I-1J-1388D01*
G02X71360Y-288274I-235J323D01*
G03X70237Y-287702I-1123J-816D01*
G03X69174Y-288197I0J-1389D01*
G02X68555Y-288189I-306J257D01*
G03X66811Y-286445I-8555J-6811D01*
G02X66803Y-285826I249J313D01*
G03X67298Y-284763I-894J1063D01*
G03X66850Y-283742I-1387J0D01*
G02X66795Y-283217I271J294D01*
G03X67050Y-282415I-1134J802D01*
G03X64274I-1388J0D01*
G03X64722Y-283436I1387J0D01*
G02X64777Y-283961I-271J-294D01*
G03X64543Y-284521I1133J-802D01*
G02X64003Y-284824I-394J69D01*
G03X61621Y-284186I-4002J-10176D01*
G02X61304Y-283654I59J396D01*
G03X61388Y-283179I-1304J476D01*
G03X58612I-1388J0D01*
G03X58696Y-283654I1388J1D01*
G02X58379Y-284186I-376J-136D01*
G03X55997Y-284824I1620J-10814D01*
G02X55457Y-284521I-146J372D01*
G03X54090Y-283375I-1367J-242D01*
G03X52702Y-284763I0J-1388D01*
G03X53197Y-285826I1389J0D01*
G02X53189Y-286445I-257J-306D01*
G03X51445Y-288189I6811J-8555D01*
G02X50826Y-288197I-313J249D01*
G03X49763Y-287702I-1063J-894D01*
G03X48486Y-288546I0J-1388D01*
G02X48250Y-288660I-184J79D01*
G03X47887Y-288612I-362J-1340D01*
G03X47510Y-288664I-1J-1388D01*
G02X47001Y-288279I-109J385D01*
G01Y-286721D01*
G02X47510Y-286336I400J0D01*
G03X47887Y-286388I376J1336D01*
G03Y-283612I0J1388D01*
G03X47510Y-283664I-1J-1388D01*
G02X47001Y-283279I-109J385D01*
G01Y-281721D01*
G02X47510Y-281336I400J0D01*
G03X47887Y-281388I376J1336D01*
G03Y-278612I0J1388D01*
G03X47510Y-278664I-1J-1388D01*
G02X47001Y-278279I-109J385D01*
G01Y-276721D01*
G02X47510Y-276336I400J0D01*
G03X47887Y-276388I376J1336D01*
G03Y-273612I0J1388D01*
G03X47510Y-273664I-1J-1388D01*
G02X47001Y-273279I-109J385D01*
G01Y-266721D01*
G02X47510Y-266336I400J0D01*
G03X47887Y-266388I376J1336D01*
G03Y-263612I0J1388D01*
G03X47510Y-263664I-1J-1388D01*
G02X47001Y-263279I-109J385D01*
G01Y-256721D01*
G02X47510Y-256336I400J0D01*
G03X47887Y-256388I376J1336D01*
G03Y-253612I0J1388D01*
G03X47510Y-253664I-1J-1388D01*
G02X47001Y-253279I-109J385D01*
G01Y-246721D01*
G02X47510Y-246336I400J0D01*
G03X47887Y-246388I376J1336D01*
G03Y-243612I0J1388D01*
G03X47510Y-243664I-1J-1388D01*
G02X47001Y-243279I-109J385D01*
G01Y-236721D01*
G02X47510Y-236336I400J0D01*
G03X47887Y-236388I376J1336D01*
G03Y-233612I0J1388D01*
G03X47510Y-233664I-1J-1388D01*
G02X47001Y-233279I-109J385D01*
G01Y-226721D01*
G02X47510Y-226336I400J0D01*
G03X47887Y-226388I376J1336D01*
G03Y-223612I0J1388D01*
G03X47510Y-223664I-1J-1388D01*
G02X47001Y-223279I-109J385D01*
G01Y-216721D01*
G02X47510Y-216336I400J0D01*
G03X47887Y-216388I376J1336D01*
G03Y-213612I0J1388D01*
G03X47510Y-213664I-1J-1388D01*
G02X47001Y-213279I-109J385D01*
G01Y-206721D01*
G02X47510Y-206336I400J0D01*
G03X47887Y-206388I376J1336D01*
G03Y-203612I0J1388D01*
G03X47510Y-203664I-1J-1388D01*
G02X47001Y-203279I-109J385D01*
G01Y-196721D01*
G02X47510Y-196336I400J0D01*
G03X47887Y-196388I376J1336D01*
G03Y-193612I0J1388D01*
G03X47510Y-193664I-1J-1388D01*
G02X47001Y-193279I-109J385D01*
G01Y-186721D01*
G02X47510Y-186336I400J0D01*
G03X47887Y-186388I376J1336D01*
G03Y-183612I0J1388D01*
G03X47510Y-183664I-1J-1388D01*
G02X47001Y-183279I-109J385D01*
G01Y-176721D01*
G02X47510Y-176336I400J0D01*
G03X47887Y-176388I376J1336D01*
G03Y-173612I0J1388D01*
G03X47510Y-173664I-1J-1388D01*
G02X47001Y-173279I-109J385D01*
G01Y-166721D01*
G02X47510Y-166336I400J0D01*
G03X47887Y-166388I376J1336D01*
G03Y-163612I0J1388D01*
G03X47510Y-163664I-1J-1388D01*
G02X47001Y-163279I-109J385D01*
G01Y-156721D01*
G02X47510Y-156336I400J0D01*
G03X47887Y-156388I376J1336D01*
G03Y-153612I0J1388D01*
G03X47510Y-153664I-1J-1388D01*
G02X47001Y-153279I-109J385D01*
G01Y-146721D01*
G02X47510Y-146336I400J0D01*
G03X47887Y-146388I376J1336D01*
G03Y-143612I0J1388D01*
G03X47510Y-143664I-1J-1388D01*
G02X47001Y-143279I-109J385D01*
G01Y-136721D01*
G02X47510Y-136336I400J0D01*
G03X47887Y-136388I376J1336D01*
G03Y-133612I0J1388D01*
G03X47510Y-133664I-1J-1388D01*
G02X47001Y-133279I-109J385D01*
G01Y-126721D01*
G02X47510Y-126336I400J0D01*
G03X47887Y-126388I376J1336D01*
G03Y-123612I0J1388D01*
G03X47510Y-123664I-1J-1388D01*
G02X47001Y-123279I-109J385D01*
G01Y-116721D01*
G02X47510Y-116336I400J0D01*
G03X47887Y-116388I376J1336D01*
G03Y-113612I0J1388D01*
G03X47510Y-113664I-1J-1388D01*
G02X47001Y-113279I-109J385D01*
G01Y-106721D01*
G02X47510Y-106336I400J0D01*
G03X47887Y-106388I376J1336D01*
G03Y-103612I0J1388D01*
G03X47510Y-103664I-1J-1388D01*
G02X47001Y-103279I-109J385D01*
G01Y-96721D01*
G02X47510Y-96336I400J0D01*
G03X47887Y-96388I376J1336D01*
G03Y-93612I0J1388D01*
G03X47510Y-93664I-1J-1388D01*
G02X47001Y-93279I-109J385D01*
G01Y-86721D01*
G02X47510Y-86336I400J0D01*
G03X47887Y-86388I376J1336D01*
G03Y-83612I0J1388D01*
G03X47510Y-83664I-1J-1388D01*
G02X47001Y-83279I-109J385D01*
G01Y-76721D01*
G02X47510Y-76336I400J0D01*
G03X47887Y-76388I376J1336D01*
G03Y-73612I0J1388D01*
G03X47510Y-73664I-1J-1388D01*
G02X47001Y-73279I-109J385D01*
G01Y-71721D01*
G02X47510Y-71336I400J0D01*
G03X47887Y-71388I376J1336D01*
G03Y-68612I0J1388D01*
G03X47510Y-68664I-1J-1388D01*
G02X47001Y-68279I-109J385D01*
G01Y-66721D01*
G02X47510Y-66336I400J0D01*
G03X47887Y-66388I376J1336D01*
G03Y-63612I0J1388D01*
G03X47510Y-63664I-1J-1388D01*
G02X47001Y-63279I-109J385D01*
G01Y-61721D01*
G02X47510Y-61336I400J0D01*
G03X47887Y-61388I376J1336D01*
G03Y-58612I0J1388D01*
G03X47510Y-58664I-1J-1388D01*
G02X47001Y-58279I-109J385D01*
G01Y-56721D01*
G02X47510Y-56336I400J0D01*
G03X47887Y-56388I376J1336D01*
G03Y-53612I0J1388D01*
G03X47510Y-53664I-1J-1388D01*
G02X47001Y-53279I-109J385D01*
G01Y-51721D01*
G02X47510Y-51336I400J0D01*
G03X47887Y-51388I376J1336D01*
G03Y-48612I0J1388D01*
G03X47510Y-48664I-1J-1388D01*
G02X47001Y-48279I-109J385D01*
G01Y-46721D01*
G02X47510Y-46336I400J0D01*
G03X47887Y-46388I376J1336D01*
G03Y-43612I0J1388D01*
G03X47510Y-43664I-1J-1388D01*
G02X47001Y-43279I-109J385D01*
G01Y-41721D01*
G02X47510Y-41336I400J0D01*
G03X47887Y-41388I376J1336D01*
G03Y-38612I0J1388D01*
G03X47510Y-38664I-1J-1388D01*
G02X47001Y-38279I-109J385D01*
G01Y-36721D01*
G02X47510Y-36336I400J0D01*
G03X47887Y-36388I376J1336D01*
G03Y-33612I0J1388D01*
G03X47510Y-33664I-1J-1388D01*
G02X47001Y-33279I-109J385D01*
G01Y-31721D01*
G02X47510Y-31336I400J0D01*
G03X47887Y-31388I376J1336D01*
G03Y-28612I0J1388D01*
G03X47510Y-28664I-1J-1388D01*
G02X47001Y-28279I-109J385D01*
G01Y-26721D01*
G02X47510Y-26336I400J0D01*
G03X47887Y-26388I376J1336D01*
G03Y-23612I0J1388D01*
G03X47510Y-23664I-1J-1388D01*
G02X47001Y-23279I-109J385D01*
G01Y-21721D01*
G02X47510Y-21336I400J0D01*
G03X47887Y-21388I376J1336D01*
G03Y-18612I0J1388D01*
G03X47510Y-18664I-1J-1388D01*
G02X47001Y-18279I-109J385D01*
G01Y-16721D01*
G02X47510Y-16336I400J0D01*
G03X47887Y-16388I376J1336D01*
G03Y-13612I0J1388D01*
G03X47510Y-13664I-1J-1388D01*
G02X47001Y-13279I-109J385D01*
G01Y-11721D01*
G02X47510Y-11336I400J0D01*
G03X47887Y-11388I376J1336D01*
G03Y-8612I0J1388D01*
G03X47510Y-8664I-1J-1388D01*
G02X47001Y-8279I-109J385D01*
G01Y-6721D01*
G02X47510Y-6336I400J0D01*
G03X47887Y-6388I376J1336D01*
G03Y-3612I0J1388D01*
G03X47510Y-3664I-1J-1388D01*
G02X47001Y-3279I-109J385D01*
G01Y-1721D01*
G02X47510Y-1336I400J0D01*
G03X47887Y-1388I376J1336D01*
G03Y1388I0J1388D01*
G03X47510Y1336I-1J-1388D01*
G02X47001Y1721I-109J385D01*
G01Y3279D01*
G02X47510Y3664I400J0D01*
G03X47887Y3612I376J1336D01*
G03Y6388I0J1388D01*
G03X47510Y6336I-1J-1388D01*
G02X47001Y6721I-109J385D01*
G01Y8279D01*
G02X47510Y8664I400J0D01*
G03X47887Y8612I376J1336D01*
G03Y11388I0J1388D01*
G03X47510Y11336I-1J-1388D01*
G02X47001Y11721I-109J385D01*
G01Y13279D01*
G02X47510Y13664I400J0D01*
G03X47887Y13612I376J1336D01*
G03Y16388I0J1388D01*
G03X47510Y16336I-1J-1388D01*
G02X47001Y16721I-109J385D01*
G01Y18279D01*
G02X47510Y18664I400J0D01*
G03X47887Y18612I376J1336D01*
G03Y21388I0J1388D01*
G03X47510Y21336I-1J-1388D01*
G02X47001Y21721I-109J385D01*
G01Y23279D01*
G02X47510Y23664I400J0D01*
G03X47887Y23612I376J1336D01*
G03Y26388I0J1388D01*
G03X47510Y26336I-1J-1388D01*
G02X47001Y26721I-109J385D01*
G01Y28279D01*
G02X47510Y28664I400J0D01*
G03X47887Y28612I376J1336D01*
G03X48250Y28660I1J1388D01*
G02X48486Y28546I52J-193D01*
G03X49763Y27702I1277J544D01*
G03X50826Y28197I0J1389D01*
G02X51445Y28189I306J-257D01*
G03X53189Y26445I8555J6811D01*
G02X53197Y25826I-249J-313D01*
G03X52702Y24763I894J-1063D01*
G03X54090Y23375I1388J0D01*
G03X55457Y24521I0J1388D01*
G02X55997Y24824I394J-69D01*
G03X58379Y24186I4002J10176D01*
G02X58696Y23654I-59J-396D01*
G03X58612Y23179I1304J-476D01*
G03X61388I1388J0D01*
G03X61304Y23654I-1388J-1D01*
G02X61621Y24186I376J136D01*
G03X64003Y24824I-1620J10814D01*
G02X64543Y24521I146J-372D01*
G03X65910Y23375I1367J242D01*
G03X67298Y24763I0J1388D01*
G03X66803Y25826I-1389J0D01*
G02X66811Y26445I257J306D01*
G03X68555Y28189I-6811J8555D01*
G02X69174Y28197I313J-249D01*
G03X70237Y27702I1063J894D01*
G03X71625Y29090I0J1388D01*
G03X70479Y30457I-1388J0D01*
G02X70176Y30997I69J394D01*
G03X70814Y33379I-10176J4002D01*
G02X71346Y33696I396J-59D01*
G03X71821Y33612I476J1304D01*
G03Y36388I0J1388D01*
G03X71346Y36304I1J-1388D01*
G02X70814Y36621I-136J376D01*
G03X70176Y39003I-10814J-1620D01*
G02X70479Y39543I372J146D01*
G03X71625Y40910I-242J1367D01*
G03X70237Y42298I-1388J0D01*
G03X69174Y41803I0J-1389D01*
G02X68555Y41811I-306J257D01*
G03X66811Y43555I-8555J-6811D01*
G02X66803Y44174I249J313D01*
G03X67298Y45237I-894J1063D01*
G03X67237Y45644I-1388J0D01*
G02X67336Y45880I191J59D01*
G03X68087Y47113I-637J1233D01*
G03X68035Y47490I-1388J1D01*
G02X68420Y47999I385J109D01*
G01X69978D01*
G02X70363Y47490I0J-400D01*
G03X70311Y47113I1336J-376D01*
G03X73087I1388J0D01*
G03X73035Y47490I-1388J1D01*
G02X73420Y47999I385J109D01*
G01X74978D01*
G02X75363Y47490I0J-400D01*
G03X75311Y47113I1336J-376D01*
G03X78087I1388J0D01*
G03X78035Y47490I-1388J1D01*
G02X78420Y47999I385J109D01*
G01X79978D01*
G02X80363Y47490I0J-400D01*
G03X80311Y47113I1336J-376D01*
G03X83087I1388J0D01*
G03X83035Y47490I-1388J1D01*
G02X83420Y47999I385J109D01*
G01X84978D01*
G02X85363Y47490I0J-400D01*
G03X85311Y47113I1336J-376D01*
G03X88087I1388J0D01*
G03X88035Y47490I-1388J1D01*
G02X88420Y47999I385J109D01*
G01X89978D01*
G02X90363Y47490I0J-400D01*
G03X90311Y47113I1336J-376D01*
G03X93087I1388J0D01*
G03X93035Y47490I-1388J1D01*
G02X93420Y47999I385J109D01*
G01X94978D01*
G02X95363Y47490I0J-400D01*
G03X95311Y47113I1336J-376D01*
G03X98087I1388J0D01*
G03X98035Y47490I-1388J1D01*
G02X98420Y47999I385J109D01*
G01X99978D01*
G02X100363Y47490I0J-400D01*
G03X100311Y47113I1336J-376D01*
G03X103087I1388J0D01*
G03X103035Y47490I-1388J1D01*
G02X103420Y47999I385J109D01*
G01X104978D01*
G02X105363Y47490I0J-400D01*
G03X105311Y47113I1336J-376D01*
G03X108087I1388J0D01*
G03X108035Y47490I-1388J1D01*
G02X108420Y47999I385J109D01*
G01X109978D01*
G02X110363Y47490I0J-400D01*
G03X110311Y47113I1336J-376D01*
G03X113087I1388J0D01*
G03X113035Y47490I-1388J1D01*
G02X113420Y47999I385J109D01*
G01X114978D01*
G02X115363Y47490I0J-400D01*
G03X115311Y47113I1336J-376D01*
G03X118087I1388J0D01*
G03X118035Y47490I-1388J1D01*
G02X118420Y47999I385J109D01*
G01X119978D01*
G02X120363Y47490I0J-400D01*
G03X120311Y47113I1336J-376D01*
G03X123087I1388J0D01*
G03X123035Y47490I-1388J1D01*
G02X123420Y47999I385J109D01*
G01X124978D01*
G02X125363Y47490I0J-400D01*
G03X125311Y47113I1336J-376D01*
G03X128087I1388J0D01*
G03X128035Y47490I-1388J1D01*
G02X128420Y47999I385J109D01*
G01X129978D01*
G02X130363Y47490I0J-400D01*
G03X130311Y47113I1336J-376D01*
G03X133087I1388J0D01*
G03X133035Y47490I-1388J1D01*
G02X133420Y47999I385J109D01*
G01X134978D01*
G02X135363Y47490I0J-400D01*
G03X135311Y47113I1336J-376D01*
G03X138087I1388J0D01*
G03X138035Y47490I-1388J1D01*
G02X138420Y47999I385J109D01*
G01X139978D01*
G02X140363Y47490I0J-400D01*
G03X140311Y47113I1336J-376D01*
G03X143087I1388J0D01*
G03X143035Y47490I-1388J1D01*
G02X143420Y47999I385J109D01*
G01X144978D01*
G02X145363Y47490I0J-400D01*
G03X145311Y47113I1336J-376D01*
G03X148087I1388J0D01*
G03X148035Y47490I-1388J1D01*
G02X148420Y47999I385J109D01*
G01X149978D01*
G02X150363Y47490I0J-400D01*
G03X150311Y47113I1336J-376D01*
G03X153087I1388J0D01*
G03X153035Y47490I-1388J1D01*
G02X153420Y47999I385J109D01*
G01X154978D01*
G02X155363Y47490I0J-400D01*
G03X155311Y47113I1336J-376D01*
G03X158087I1388J0D01*
G03X158035Y47490I-1388J1D01*
G02X158420Y47999I385J109D01*
G01X159978D01*
G02X160363Y47490I0J-400D01*
G03X160311Y47113I1336J-376D01*
G03X163087I1388J0D01*
G03X163035Y47490I-1388J1D01*
G02X163420Y47999I385J109D01*
G01X164978D01*
G02X165363Y47490I0J-400D01*
G03X165311Y47113I1336J-376D01*
G03X168087I1388J0D01*
G03X168035Y47490I-1388J1D01*
G02X168420Y47999I385J109D01*
G01X169978D01*
G02X170363Y47490I0J-400D01*
G03X170311Y47113I1336J-376D01*
G03X173087I1388J0D01*
G03X173035Y47490I-1388J1D01*
G02X173420Y47999I385J109D01*
G01X174978D01*
G02X175363Y47490I0J-400D01*
G03X175311Y47113I1336J-376D01*
G03X178087I1388J0D01*
G03X178035Y47490I-1388J1D01*
G02X178420Y47999I385J109D01*
G01X179978D01*
G02X180363Y47490I0J-400D01*
G03X180311Y47113I1336J-376D01*
G03X183087I1388J0D01*
G03X183035Y47490I-1388J1D01*
G02X183420Y47999I385J109D01*
G01X184978D01*
G02X185363Y47490I0J-400D01*
G03X185311Y47113I1336J-376D01*
G03X188087I1388J0D01*
G03X188035Y47490I-1388J1D01*
G02X188420Y47999I385J109D01*
G01X189978D01*
G02X190363Y47490I0J-400D01*
G03X190311Y47113I1336J-376D01*
G03X193087I1388J0D01*
G03X193035Y47490I-1388J1D01*
G02X193420Y47999I385J109D01*
G01X194978D01*
G02X195363Y47490I0J-400D01*
G03X195311Y47113I1336J-376D01*
G03X198087I1388J0D01*
G03X198035Y47490I-1388J1D01*
G02X198420Y47999I385J109D01*
G01X199978D01*
G02X200363Y47490I0J-400D01*
G03X200311Y47113I1336J-376D01*
G03X203087I1388J0D01*
G03X203035Y47490I-1388J1D01*
G02X203420Y47999I385J109D01*
G01X204978D01*
G02X205363Y47490I0J-400D01*
G03X205311Y47113I1336J-376D01*
G03X208087I1388J0D01*
G03X208035Y47490I-1388J1D01*
G02X208420Y47999I385J109D01*
G01X209978D01*
G02X210363Y47490I0J-400D01*
G03X210311Y47113I1336J-376D01*
G03X213087I1388J0D01*
G03X213035Y47490I-1388J1D01*
G02X213420Y47999I385J109D01*
G01X214978D01*
G02X215363Y47490I0J-400D01*
G03X215311Y47113I1336J-376D01*
G03X218087I1388J0D01*
G03X218035Y47490I-1388J1D01*
G02X218420Y47999I385J109D01*
G01X219978D01*
G02X220363Y47490I0J-400D01*
G03X220311Y47113I1336J-376D01*
G03X223087I1388J0D01*
G03X223035Y47490I-1388J1D01*
G02X223420Y47999I385J109D01*
G01X224978D01*
G02X225363Y47490I0J-400D01*
G03X225311Y47113I1336J-376D01*
G03X228087I1388J0D01*
G03X228035Y47490I-1388J1D01*
G02X228420Y47999I385J109D01*
G01X229978D01*
G02X230363Y47490I0J-400D01*
G03X230311Y47113I1336J-376D01*
G03X233087I1388J0D01*
G03X233035Y47490I-1388J1D01*
G02X233420Y47999I385J109D01*
G01X234978D01*
G02X235363Y47490I0J-400D01*
G03X235311Y47113I1336J-376D01*
G03X238087I1388J0D01*
G03X238035Y47490I-1388J1D01*
G02X238420Y47999I385J109D01*
G01X239978D01*
G02X240363Y47490I0J-400D01*
G03X240311Y47113I1336J-376D01*
G03X243087I1388J0D01*
G03X243035Y47490I-1388J1D01*
G02X243420Y47999I385J109D01*
G01X244978D01*
G02X245363Y47490I0J-400D01*
G03X245311Y47113I1336J-376D01*
G03X248087I1388J0D01*
G03X248035Y47490I-1388J1D01*
G02X248420Y47999I385J109D01*
G01X249978D01*
G02X250363Y47490I0J-400D01*
G03X250311Y47113I1336J-376D01*
G03X253087I1388J0D01*
G03X253035Y47490I-1388J1D01*
G02X253420Y47999I385J109D01*
G01X254978D01*
G02X255363Y47490I0J-400D01*
G03X255311Y47113I1336J-376D01*
G03X258087I1388J0D01*
G03X258035Y47490I-1388J1D01*
G02X258420Y47999I385J109D01*
G01X259978D01*
G02X260363Y47490I0J-400D01*
G03X260311Y47113I1336J-376D01*
G03X263087I1388J0D01*
G03X263035Y47490I-1388J1D01*
G02X263420Y47999I385J109D01*
G01X264978D01*
G02X265363Y47490I0J-400D01*
G03X265311Y47113I1336J-376D01*
G03X268087I1388J0D01*
G03X268035Y47490I-1388J1D01*
G02X268420Y47999I385J109D01*
G01X269978D01*
G02X270363Y47490I0J-400D01*
G03X270311Y47113I1336J-376D01*
G03X273087I1388J0D01*
G03X273035Y47490I-1388J1D01*
G02X273420Y47999I385J109D01*
G01X274978D01*
G02X275363Y47490I0J-400D01*
G03X275311Y47113I1336J-376D01*
G03X278087I1388J0D01*
G03X278035Y47490I-1388J1D01*
G02X278420Y47999I385J109D01*
G01X279978D01*
G02X280363Y47490I0J-400D01*
G03X280311Y47113I1336J-376D01*
G03X283087I1388J0D01*
G03X283035Y47490I-1388J1D01*
G02X283420Y47999I385J109D01*
G01X284978D01*
G02X285363Y47490I0J-400D01*
G03X285311Y47113I1336J-376D01*
G03X288087I1388J0D01*
G03X288035Y47490I-1388J1D01*
G02X288420Y47999I385J109D01*
G01X289978D01*
G02X290363Y47490I0J-400D01*
G03X290311Y47113I1336J-376D01*
G03X293087I1388J0D01*
G03X293035Y47490I-1388J1D01*
G02X293420Y47999I385J109D01*
G01X294978D01*
G02X295363Y47490I0J-400D01*
G03X295311Y47113I1336J-376D01*
G03X298087I1388J0D01*
G03X298035Y47490I-1388J1D01*
G02X298420Y47999I385J109D01*
G01X299978D01*
G02X300363Y47490I0J-400D01*
G03X300311Y47113I1336J-376D01*
G03X303087I1388J0D01*
G03X303035Y47490I-1388J1D01*
G02X303420Y47999I385J109D01*
G01X304978D01*
G02X305363Y47490I0J-400D01*
G03X305311Y47113I1336J-376D01*
G03X308087I1388J0D01*
G03X308035Y47490I-1388J1D01*
G02X308420Y47999I385J109D01*
G37*
%LPC*%
G75*
G36*
G01X223333Y-38773D02*
G03X223967I317J244D01*
G02X225300Y-38117I1333J-1026D01*
G02X226593Y-38722I0J-1684D01*
G03X227207I307J256D01*
G02X228500Y-38117I1293J-1079D01*
G02Y-41483I0J-1683D01*
G02X227207Y-40878I0J1684D01*
G03X226593I-307J-256D01*
G02X225300Y-41483I-1293J1079D01*
G02X223967Y-40827I0J1682D01*
G03X223333I-317J-244D01*
G02X222000Y-41483I-1333J1026D01*
G02Y-38117I0J1683D01*
G02X223333Y-38773I0J-1682D01*
G37*
G36*
G01Y-34273D02*
G03X223967I317J244D01*
G02X225300Y-33617I1333J-1026D01*
G02X226593Y-34222I0J-1684D01*
G03X227207I307J256D01*
G02X228500Y-33617I1293J-1079D01*
G02Y-36983I0J-1683D01*
G02X227207Y-36378I0J1684D01*
G03X226593I-307J-256D01*
G02X225300Y-36983I-1293J1079D01*
G02X223967Y-36327I0J1682D01*
G03X223333I-317J-244D01*
G02X222000Y-36983I-1333J1026D01*
G02Y-33617I0J1683D01*
G02X223333Y-34273I0J-1682D01*
G37*
G36*
G01X223133Y-28973D02*
G03X223767I317J244D01*
G02X225100Y-28317I1333J-1026D01*
G02X226393Y-28922I0J-1684D01*
G03X227007I307J256D01*
G02X228300Y-28317I1293J-1079D01*
G02Y-31683I0J-1683D01*
G02X227007Y-31078I0J1684D01*
G03X226393I-307J-256D01*
G02X225100Y-31683I-1293J1079D01*
G02X223767Y-31027I0J1682D01*
G03X223133I-317J-244D01*
G02X221800Y-31683I-1333J1026D01*
G02Y-28317I0J1683D01*
G02X223133Y-28973I0J-1682D01*
G37*
G36*
G01X228833Y1227D02*
G03X229467I317J244D01*
G02X230800Y1883I1333J-1026D01*
G02X232093Y1278I0J-1684D01*
G03X232707I307J256D01*
G02X234000Y1883I1293J-1079D01*
G02Y-1483I0J-1683D01*
G02X232707Y-878I0J1684D01*
G03X232093I-307J-256D01*
G02X230800Y-1483I-1293J1079D01*
G02X229467Y-827I0J1682D01*
G03X228833I-317J-244D01*
G02X227500Y-1483I-1333J1026D01*
G02Y1883I0J1683D01*
G02X228833Y1227I0J-1682D01*
G37*
G36*
G01X184932Y20763D02*
G03X184418Y21076I-394J-68D01*
G02X184000Y21012I-417J1324D01*
G02Y23788I0J1388D01*
G02X185368Y22637I0J-1388D01*
G03X185882Y22324I394J68D01*
G02X186300Y22388I417J-1324D01*
G02Y19612I0J-1388D01*
G02X184932Y20763I0J1388D01*
G37*
G36*
G01X184739Y27845D02*
G03X184376Y28322I-393J78D01*
G02X182817Y30000I124J1678D01*
G02X186183I1683J0D01*
G02X186092Y29454I-1683J0D01*
G03X186387Y28933I378J-130D01*
G02X187488Y27575I-287J-1358D01*
G02X187179Y26702I-1388J0D01*
G03X187291Y26104I311J-251D01*
G02X187988Y24900I-691J-1204D01*
G02X185212I-1388J0D01*
G02X185521Y25773I1388J0D01*
G03X185409Y26371I-311J251D01*
G02X184712Y27575I691J1204D01*
G02X184739Y27845I1388J-2D01*
G37*
G36*
G01X303932Y28416D02*
G03X303694Y28331I-67J-189D01*
G02X302505Y27659I-1189J716D01*
G02Y30435I0J1388D01*
G02X302695Y30422I0J-1388D01*
G03X302911Y30554I27J198D01*
G02X304500Y31683I1589J-554D01*
G02Y28317I0J-1683D01*
G02X303932Y28416I1J1683D01*
G37*
G36*
G01X188413Y-275045D02*
G02X188412Y-275000I1387J53D01*
G02X189800Y-276388I1388J0D01*
G02X189155Y-276229I0J1388D01*
G03X188572Y-276629I-186J-354D01*
G02X188583Y-276819I-1672J-192D01*
G02X186900Y-275136I-1683J0D01*
G02X187799Y-275396I0J-1684D01*
G03X188413Y-275045I214J338D01*
G37*
G36*
G01X306483Y-263951D02*
G02X306300Y-263963I-182J1376D01*
G02X307688Y-262575I0J1388D01*
G02X307592Y-263082I-1387J0D01*
G03X308017Y-263624I373J-145D01*
G02X308200Y-263612I182J-1376D01*
G02X306812Y-265000I0J-1388D01*
G02X306908Y-264493I1387J0D01*
G03X306483Y-263951I-373J145D01*
G37*
G36*
G01X306571Y-248688D02*
G02X305212Y-247300I29J1388D01*
G02X307988I1388J0D01*
G02X307794Y-248008I-1389J0D01*
G03X308129Y-248612I344J-204D01*
G02X309488Y-250000I-29J-1388D01*
G02X308100Y-251388I-1388J0D01*
G02X308006Y-251385I-3J1388D01*
G03X307620Y-251961I-28J-399D01*
G02X307763Y-252575I-1245J-614D01*
G02X307672Y-253070I-1388J-1D01*
G03X308035Y-253612I374J-142D01*
G02X309388Y-255000I-35J-1388D01*
G02X308000Y-256388I-1388J0D01*
G01X307985D01*
G03X307621Y-256964I-5J-400D01*
G02X307763Y-257575I-1246J-612D01*
G02X307670Y-258075I-1388J0D01*
G03X308078Y-258617I373J-144D01*
G02X308200Y-258612I118J-1383D01*
G02X306812Y-260000I0J-1388D01*
G02X306905Y-259500I1388J0D01*
G03X306497Y-258958I-373J144D01*
G02X306375Y-258963I-118J1383D01*
G02Y-256187I0J1388D01*
G01X306390D01*
G03X306754Y-255611I5J400D01*
G02X306612Y-255000I1246J612D01*
G02X306703Y-254505I1388J1D01*
G03X306340Y-253963I-374J142D01*
G02X304987Y-252575I35J1388D01*
G02X306375Y-251187I1388J0D01*
G02X306469Y-251190I3J-1388D01*
G03X306855Y-250614I28J399D01*
G02X306712Y-250000I1245J614D01*
G02X306906Y-249292I1389J0D01*
G03X306571Y-248688I-344J204D01*
G37*
G36*
G01X73670Y-173941D02*
G02X73425Y-173963I-246J1366D01*
G02X74813Y-172575I0J1388D01*
G02X74713Y-173091I-1388J1D01*
G03X75155Y-173634I371J-149D01*
G02X75400Y-173612I246J-1366D01*
G02X74012Y-175000I0J-1388D01*
G02X74112Y-174484I1388J-1D01*
G03X73670Y-173941I-371J149D01*
G37*
G36*
G01X304583Y-103951D02*
G02X304400Y-103963I-182J1376D01*
G02X305788Y-102575I0J1388D01*
G02X305692Y-103082I-1387J0D01*
G03X306117Y-103624I373J-145D01*
G02X306300Y-103612I182J-1376D01*
G02X304912Y-105000I0J-1388D01*
G02X305008Y-104493I1387J0D01*
G03X304583Y-103951I-373J145D01*
G37*
G36*
G01X304671Y-88688D02*
G02X303312Y-87300I29J1388D01*
G02X306088I1388J0D01*
G02X305894Y-88008I-1389J0D01*
G03X306229Y-88612I344J-204D01*
G02X307588Y-90000I-29J-1388D01*
G02X306200Y-91388I-1388J0D01*
G02X306126Y-91386I0J1388D01*
G03X305745Y-91962I-22J-399D01*
G02X305888Y-92575I-1245J-614D01*
G02X305797Y-93071I-1388J-2D01*
G03X306154Y-93613I373J-143D01*
G02X307488Y-95000I-54J-1387D01*
G02X306104Y-96388I-1388J0D01*
G03X305746Y-96964I1J-400D01*
G02X305888Y-97575I-1246J-612D01*
G02X305795Y-98073I-1388J1D01*
G03X306198Y-98616I373J-144D01*
G02X306300Y-98612I105J-1384D01*
G02X304912Y-100000I0J-1388D01*
G02X305005Y-99502I1388J-1D01*
G03X304602Y-98959I-373J144D01*
G02X304500Y-98963I-105J1384D01*
G02X303112Y-97575I0J1388D01*
G02X304496Y-96187I1388J0D01*
G03X304854Y-95611I-1J400D01*
G02X304712Y-95000I1246J612D01*
G02X304803Y-94504I1388J2D01*
G03X304446Y-93962I-373J143D01*
G02X303112Y-92575I54J1387D01*
G02X304500Y-91187I1388J0D01*
G02X304574Y-91189I0J-1388D01*
G03X304955Y-90613I22J399D01*
G02X304812Y-90000I1245J614D01*
G02X305006Y-89292I1389J0D01*
G03X304671Y-88688I-344J204D01*
G37*
G54D17*
X134488Y0D03*
G54D16*
X245512D03*
G54D15*
X289100Y-50000D03*
X126900Y-43181D03*
X71900Y-36819D03*
X109100Y-130000D03*
X124500Y-50000D03*
X71900Y-43181D03*
X244500Y-130000D03*
X229100D03*
X71900Y-196819D03*
X126900Y-203181D03*
X304500Y-130000D03*
X289100D03*
X124500D03*
X126900Y-36819D03*
X304500Y-50000D03*
X109100Y-210000D03*
X124500D03*
X246900Y-43181D03*
X109100Y-50000D03*
X169100Y30000D03*
X244500D03*
X229100D03*
X289100D03*
X244500Y-50000D03*
X229100D03*
X184500D03*
X169100D03*
X246900Y-116819D03*
X71900Y-203181D03*
X184500Y-130000D03*
X169100D03*
X184500Y-210000D03*
X169100D03*
X246900Y-36819D03*
X71900Y-123181D03*
Y-116819D03*
X229100Y-210000D03*
X304500D03*
X289100D03*
X244500D03*
X124500Y30000D03*
X109100D03*
X126900Y-196819D03*
X186900Y-43181D03*
Y-36819D03*
X126900Y-123181D03*
Y-116819D03*
X186900Y-123181D03*
Y-116819D03*
X246900Y-123181D03*
X186900Y-203181D03*
Y-196819D03*
X246900Y-203181D03*
Y-196819D03*
X71900Y-283181D03*
Y-276819D03*
X126900Y-283181D03*
Y-276819D03*
X186900Y-283181D03*
X246900D03*
Y-276819D03*
X105000Y-291700D03*
X156902Y7598D03*
X156929Y-5229D03*
G54D14*
X120000Y-284700D03*
X185000Y-31000D03*
X211700Y33200D03*
X186000Y-15000D03*
X281500Y-150000D03*
X72100Y-148400D03*
X277100Y-32600D03*
X98400Y-90000D03*
X188425Y-9975D03*
X75400Y-180000D03*
X93100Y-210000D03*
X277775Y-27425D03*
X210472Y-528D03*
X93100Y-215000D03*
X106900D03*
Y-220000D03*
X153100Y-215000D03*
Y-210000D03*
X166900Y-220000D03*
Y-215000D03*
X213100Y-210000D03*
Y-215000D03*
X226900D03*
Y-220000D03*
X274000Y-210200D03*
X271100Y-213400D03*
X279500Y-215000D03*
X280800Y-220000D03*
X96400Y-135000D03*
X100200Y-130000D03*
X106900Y-140000D03*
X109300Y-135100D03*
X153100Y-130000D03*
Y-135000D03*
X166900D03*
Y-140000D03*
X213100Y-135000D03*
Y-130000D03*
X226900Y-140000D03*
Y-135000D03*
X273100D03*
Y-130000D03*
X281300Y-140000D03*
X286900Y-135000D03*
X306300Y-145000D03*
X195600Y-62500D03*
X93100Y-55000D03*
Y-50000D03*
X106900Y-60000D03*
Y-55000D03*
X153100Y-50000D03*
Y-55000D03*
X166900D03*
Y-60000D03*
X213100Y-55000D03*
X217200Y-54100D03*
X226900Y-60000D03*
X244600Y-55000D03*
X271100Y-54800D03*
X273100Y-50000D03*
X278300Y-60000D03*
X278900Y-49000D03*
X109500Y15100D03*
X92600Y-105000D03*
X93100Y25000D03*
Y30000D03*
X106900Y20000D03*
Y25000D03*
X153100Y30000D03*
Y25000D03*
X166900D03*
X162200Y22200D03*
X220900Y24500D03*
X223400Y29500D03*
X226900Y20000D03*
Y25000D03*
X273100D03*
Y30000D03*
X286900Y20000D03*
Y25000D03*
X99700Y-105000D03*
X75400Y-170000D03*
X278200Y-15000D03*
X75400Y-185000D03*
X92700Y-95000D03*
X248900Y-145000D03*
X304400Y-110000D03*
X176600Y34100D03*
X278300Y-20000D03*
X282200Y-7000D03*
X125700Y-225000D03*
X282400Y-17400D03*
X282300Y-12400D03*
X166378Y-12600D03*
X73200Y-187425D03*
X282500Y-22700D03*
X273000Y-230000D03*
X210800Y-62300D03*
X188900Y-145000D03*
Y-65000D03*
X250000Y-290600D03*
X284350Y-182650D03*
X270800Y-220000D03*
X251600Y-150000D03*
X271300Y-70000D03*
X255800Y20000D03*
X109900Y-145000D03*
X193500Y-225000D03*
X278500Y-10000D03*
X270560Y-60000D03*
X193200Y24600D03*
X279000Y-192600D03*
X67500Y-146600D03*
X306300Y-270000D03*
X254300Y-140000D03*
X270000Y-290600D03*
X195300Y20400D03*
X163228Y-7300D03*
X115300Y600D03*
X170100Y37000D03*
X310300Y-225000D03*
X186500Y-27400D03*
X191575Y575D03*
X167300Y-225000D03*
X307000Y-65000D03*
X287900Y10000D03*
X123900Y-70000D03*
X189200Y-235600D03*
X92500Y-125300D03*
X286000Y-230000D03*
X280400Y-170000D03*
X284300Y-177400D03*
X218500Y18100D03*
X214750Y31750D03*
X74900Y-70000D03*
X185500Y-20000D03*
X244500Y-67425D03*
X169200Y-17600D03*
X179800Y35600D03*
X207323Y-1723D03*
X168300Y-241800D03*
X63600Y-185500D03*
X87000Y-158300D03*
X63900Y-255000D03*
X258900Y36900D03*
X218150Y37050D03*
X126050Y33650D03*
X196000Y27500D03*
X190900Y30000D03*
X69700Y-140000D03*
X280100Y-175000D03*
X73300Y-192900D03*
X280200Y-180000D03*
X92900Y-90000D03*
X284100Y-167000D03*
X283700Y-70000D03*
X169100Y-22600D03*
X109800Y-150000D03*
X125700Y-65000D03*
X253200Y10000D03*
X74500Y-61700D03*
X99500Y-110000D03*
X279675Y-187425D03*
X216772Y11172D03*
X284600Y-172400D03*
X65200Y-67100D03*
X99100Y-95000D03*
X73200Y-182425D03*
X304300Y15000D03*
X99400Y-100000D03*
X92500D03*
X73200Y-177425D03*
X260000Y-290100D03*
X185100Y-145000D03*
X130000Y-290600D03*
X140000D03*
X62300Y-175600D03*
X150000Y-290600D03*
X160000D03*
X229600Y-144900D03*
X160100Y-284000D03*
X72600Y12600D03*
X180000Y-290600D03*
X190000D03*
X63900Y-197000D03*
X212400Y-283500D03*
X210000Y-290600D03*
X239300Y-239500D03*
X220000Y-290600D03*
X226900Y-278900D03*
X234300Y-238400D03*
X240000Y-290600D03*
X69800Y-170300D03*
X244400Y-225000D03*
X74400Y-220100D03*
X196900Y400D03*
X82300Y-158300D03*
X66900Y-262400D03*
X72700Y-228100D03*
X271700Y8500D03*
Y14700D03*
X89433Y41086D03*
X85898Y37550D03*
X82362Y34015D03*
X75291Y26944D03*
X71756Y23408D03*
X68220Y19872D03*
X64685Y16337D03*
X61149Y12801D03*
X57614Y9266D03*
X56814Y4330D03*
Y-670D03*
Y-5670D03*
Y-10670D03*
Y-15670D03*
Y-20670D03*
Y-25670D03*
Y-30670D03*
Y-35670D03*
Y-40670D03*
Y-45670D03*
Y-50670D03*
Y-55670D03*
Y-60670D03*
Y-65670D03*
Y-70670D03*
Y-75670D03*
Y-85670D03*
Y-95670D03*
Y-105670D03*
Y-115670D03*
Y-125670D03*
Y-135670D03*
Y-145670D03*
Y-155670D03*
Y-165670D03*
Y-175670D03*
Y-185670D03*
Y-195670D03*
Y-205670D03*
Y-215670D03*
Y-225670D03*
Y-235670D03*
Y-245670D03*
Y-255670D03*
Y-265670D03*
X58591Y-275343D03*
X62127Y-278879D03*
X69198Y-285950D03*
X76269Y-293021D03*
X79804Y-296557D03*
X84799Y-296786D03*
X94799D03*
X99799D03*
X104799D03*
X109799D03*
X114799D03*
X124799D03*
X134799D03*
X144799D03*
X154799D03*
X164799D03*
X174799D03*
X184799D03*
X194799D03*
X204799D03*
X214799D03*
X224799D03*
X234799D03*
X244799D03*
X254799D03*
X264799D03*
X274799D03*
X279799D03*
X284799D03*
X289799D03*
X294799D03*
X299799D03*
X303368Y-293284D03*
X317510Y-279142D03*
X321045Y-275607D03*
X324581Y-272071D03*
X324586Y-267071D03*
X324686Y-262072D03*
Y-257072D03*
Y-252072D03*
Y-247072D03*
Y-242072D03*
Y-237072D03*
Y-232072D03*
Y-227072D03*
Y-222072D03*
Y-217072D03*
Y-212072D03*
Y-207072D03*
Y-202072D03*
Y-197072D03*
Y-192072D03*
Y-187072D03*
Y-182072D03*
Y-177072D03*
Y-172072D03*
Y-167072D03*
Y-162072D03*
Y-157072D03*
Y-152072D03*
Y-147072D03*
Y-142072D03*
Y-137072D03*
Y-132072D03*
Y-127072D03*
Y-122072D03*
Y-117072D03*
Y-112072D03*
Y-107072D03*
Y-102072D03*
Y-97072D03*
Y-92072D03*
Y-87072D03*
Y-82072D03*
Y-77072D03*
Y-72072D03*
Y-67072D03*
Y-62072D03*
Y-57072D03*
Y-52072D03*
Y-47072D03*
Y-42072D03*
Y-37072D03*
Y-32072D03*
Y-27072D03*
Y-22072D03*
Y-17072D03*
Y-12072D03*
Y-7072D03*
Y-2072D03*
Y2928D03*
X323719Y7833D03*
X320183Y11369D03*
X316647Y14905D03*
X313112Y18440D03*
X309576Y21976D03*
X306041Y25511D03*
X298970Y32582D03*
X295434Y36118D03*
X291899Y39653D03*
X287108Y41086D03*
X282108D03*
X277108D03*
X272108D03*
X267108D03*
X262108D03*
X257108D03*
X252108D03*
X247108D03*
X242108D03*
X237108D03*
X232108D03*
X227108D03*
X222108D03*
X217108D03*
X212108D03*
X207108D03*
X202108D03*
X197108D03*
X192108D03*
X187108D03*
X182108D03*
X177108D03*
X172108D03*
X167108D03*
X162108D03*
X157108D03*
X152108D03*
X147108D03*
X142108D03*
X137108D03*
X132108D03*
X127108D03*
X122108D03*
X117108D03*
X112108D03*
X107108D03*
X102108D03*
X97108D03*
%LPD*%
G75*
G54D10*
X60000Y-295000D03*
Y35000D03*
X320000Y-295000D03*
Y35000D03*
G54D11*
X47887Y-290000D03*
X48179Y-295000D03*
X49763Y-300910D03*
X54090Y-305237D03*
X60000Y-306821D03*
X47887Y-275000D03*
Y-280000D03*
Y-285000D03*
X58591Y-275343D03*
X62127Y-278879D03*
X65662Y-282415D03*
X60000Y-283179D03*
X54090Y-284763D03*
X49763Y-289090D03*
X63900Y-255000D03*
X47887D03*
Y-265000D03*
X56814Y-255670D03*
Y-265670D03*
X47887Y-235000D03*
Y-245000D03*
X56814Y-235670D03*
Y-245670D03*
X47887Y-215000D03*
Y-225000D03*
X56814Y-215670D03*
Y-225670D03*
X63600Y-185500D03*
X63900Y-197000D03*
X47887Y-195000D03*
Y-205000D03*
X56814Y-185670D03*
Y-195670D03*
Y-205670D03*
X62300Y-175600D03*
X47887Y-165000D03*
Y-175000D03*
Y-185000D03*
X56814Y-165670D03*
Y-175670D03*
X47887Y-145000D03*
Y-155000D03*
X56814Y-145670D03*
Y-155670D03*
X47887Y-125000D03*
Y-135000D03*
X56814Y-125670D03*
Y-135670D03*
X47887Y-105000D03*
Y-115000D03*
X56814Y-105670D03*
Y-115670D03*
X47887Y-85000D03*
Y-95000D03*
X56814Y-85670D03*
Y-95670D03*
X65200Y-67100D03*
X47887Y-60000D03*
Y-65000D03*
Y-70000D03*
Y-75000D03*
X56814Y-60670D03*
Y-65670D03*
Y-70670D03*
Y-75670D03*
X47887Y-40000D03*
Y-45000D03*
Y-50000D03*
Y-55000D03*
X56814Y-40670D03*
Y-45670D03*
Y-50670D03*
Y-55670D03*
X47887Y-20000D03*
Y-25000D03*
Y-30000D03*
Y-35000D03*
X56814Y-20670D03*
Y-25670D03*
Y-30670D03*
Y-35670D03*
X47887Y0D03*
Y-5000D03*
Y-10000D03*
Y-15000D03*
X56814Y-670D03*
Y-5670D03*
Y-10670D03*
Y-15670D03*
X47887Y20000D03*
Y15000D03*
Y10000D03*
Y5000D03*
X64685Y16337D03*
X61149Y12801D03*
X57614Y9266D03*
X56814Y4330D03*
X60000Y23179D03*
X47887Y30000D03*
Y25000D03*
X49763Y40910D03*
X48179Y35000D03*
X49763Y29090D03*
X54090Y24763D03*
X60000Y46821D03*
X54090Y45237D03*
X66110Y-307113D03*
X71110D03*
X76110D03*
X81110D03*
X86110D03*
X76269Y-293021D03*
X79804Y-296557D03*
X84799Y-296786D03*
X71821Y-295000D03*
X65910Y-305237D03*
X70237Y-300910D03*
X69198Y-285950D03*
X72733Y-289486D03*
X70237Y-289090D03*
X65910Y-284763D03*
X66900Y-262400D03*
X72700Y-228100D03*
X74400Y-220100D03*
X73300Y-192900D03*
X73200Y-187425D03*
X75400Y-170000D03*
Y-175000D03*
Y-180000D03*
Y-185000D03*
X73200Y-182425D03*
Y-177425D03*
X73425Y-172575D03*
X69800Y-170300D03*
X67500Y-146600D03*
X82300Y-158300D03*
X72100Y-148400D03*
X69700Y-140000D03*
X74500Y-61700D03*
X74900Y-70000D03*
X72600Y12600D03*
X71756Y23408D03*
X68220Y19872D03*
X85898Y37550D03*
X82362Y34015D03*
X75291Y26944D03*
X71821Y35000D03*
X70237Y40910D03*
X65910Y24763D03*
X70237Y29090D03*
X86699Y47113D03*
X81699D03*
X76699D03*
X71699D03*
X66699D03*
X65910Y45237D03*
X96110Y-307113D03*
X101110D03*
X106110D03*
X94799Y-296786D03*
X99799D03*
X104799D03*
X93100Y-210000D03*
Y-215000D03*
X106900Y-220000D03*
Y-215000D03*
X87000Y-158300D03*
X100200Y-130000D03*
X96400Y-135000D03*
X106900Y-140000D03*
X92500Y-125300D03*
X92600Y-105000D03*
X99500Y-110000D03*
X99700Y-105000D03*
X92900Y-90000D03*
X92700Y-95000D03*
X92500Y-100000D03*
X99400D03*
X99100Y-95000D03*
X98400Y-90000D03*
X106900Y-60000D03*
X93100Y-50000D03*
Y-55000D03*
X106900D03*
Y20000D03*
X93100Y30000D03*
Y25000D03*
X106900D03*
X89433Y41086D03*
X107108D03*
X102108D03*
X97108D03*
X106699Y47113D03*
X101699D03*
X96699D03*
X91699D03*
X111110Y-307113D03*
X116110D03*
X126110D03*
X109799Y-296786D03*
X114799D03*
X124799D03*
X120000Y-284700D03*
X125700Y-225000D03*
X109800Y-150000D03*
X109900Y-145000D03*
X109300Y-135100D03*
X123900Y-70000D03*
X125700Y-65000D03*
X115300Y600D03*
X109500Y15100D03*
X126050Y33650D03*
X127108Y41086D03*
X122108D03*
X117108D03*
X112108D03*
X126699Y47113D03*
X121699D03*
X116699D03*
X111699D03*
X130000Y-290600D03*
X140000D03*
X136110Y-307113D03*
X146110D03*
X134799Y-296786D03*
X144799D03*
X147108Y41086D03*
X142108D03*
X137108D03*
X132108D03*
X146699Y47113D03*
X141699D03*
X136699D03*
X131699D03*
X150000Y-290600D03*
X160000D03*
X156110Y-307113D03*
X166110D03*
X154799Y-296786D03*
X164799D03*
X160100Y-284000D03*
X168300Y-241800D03*
X153100Y-210000D03*
Y-215000D03*
X166900Y-220000D03*
Y-215000D03*
X167300Y-225000D03*
X153100Y-130000D03*
Y-135000D03*
X166900Y-140000D03*
Y-135000D03*
Y-60000D03*
X153100Y-50000D03*
Y-55000D03*
X166900D03*
X169100Y-22600D03*
X163228Y-7300D03*
X166378Y-12600D03*
X169200Y-17600D03*
X162200Y22200D03*
X170100Y37000D03*
X153100Y30000D03*
Y25000D03*
X166900D03*
X167108Y41086D03*
X162108D03*
X157108D03*
X152108D03*
X166699Y47113D03*
X161699D03*
X156699D03*
X151699D03*
X180000Y-290600D03*
X190000D03*
X176110Y-307113D03*
X186110D03*
X174799Y-296786D03*
X184799D03*
X189800Y-275000D03*
X189200Y-235600D03*
X188900Y-145000D03*
X185100D03*
X188900Y-65000D03*
X185000Y-31000D03*
X186500Y-27400D03*
X185500Y-20000D03*
X186000Y-15000D03*
X188425Y-9975D03*
X184000Y22400D03*
X186300Y21000D03*
X176600Y34100D03*
X179800Y35600D03*
X186100Y27575D03*
X186600Y24900D03*
X190900Y30000D03*
X187108Y41086D03*
X182108D03*
X177108D03*
X172108D03*
X186699Y47113D03*
X181699D03*
X176699D03*
X171699D03*
X210000Y-290600D03*
X196110Y-307113D03*
X206110D03*
X194799Y-296786D03*
X204799D03*
X193500Y-225000D03*
X210800Y-62300D03*
X195600Y-62500D03*
X196900Y400D03*
X207323Y-1723D03*
X210472Y-528D03*
X191575Y575D03*
X195300Y20400D03*
X193200Y24600D03*
X196000Y27500D03*
X211700Y33200D03*
X212108Y41086D03*
X207108D03*
X202108D03*
X197108D03*
X192108D03*
X211699Y47113D03*
X206699D03*
X201699D03*
X196699D03*
X191699D03*
X220000Y-290600D03*
X216110Y-307113D03*
X226110D03*
X214799Y-296786D03*
X224799D03*
X212400Y-283500D03*
X226900Y-278900D03*
X213100Y-210000D03*
Y-215000D03*
X226900D03*
Y-220000D03*
X229600Y-144900D03*
X213100Y-130000D03*
Y-135000D03*
X226900D03*
Y-140000D03*
Y-60000D03*
X217200Y-54100D03*
X213100Y-55000D03*
X226900Y20000D03*
X216772Y11172D03*
X218500Y18100D03*
X223400Y29500D03*
X220900Y24500D03*
X226900Y25000D03*
X214750Y31750D03*
X218150Y37050D03*
X232108Y41086D03*
X227108D03*
X222108D03*
X217108D03*
X231699Y47113D03*
X226699D03*
X221699D03*
X216699D03*
X240000Y-290600D03*
X250000D03*
X236110Y-307113D03*
X246110D03*
X234799Y-296786D03*
X244799D03*
X234300Y-238400D03*
X239300Y-239500D03*
X244400Y-225000D03*
X248900Y-145000D03*
X251600Y-150000D03*
X244500Y-67425D03*
X244600Y-55000D03*
X253200Y10000D03*
X252108Y41086D03*
X247108D03*
X242108D03*
X237108D03*
X251699Y47113D03*
X246699D03*
X241699D03*
X236699D03*
X260000Y-290100D03*
X270000Y-290600D03*
X256110Y-307113D03*
X266110D03*
X254799Y-296786D03*
X264799D03*
X274799D03*
X273000Y-230000D03*
X274000Y-210200D03*
X271100Y-213400D03*
X270800Y-220000D03*
X273100Y-130000D03*
Y-135000D03*
X254300Y-140000D03*
X270560Y-60000D03*
X271300Y-70000D03*
X273100Y-50000D03*
X271100Y-54800D03*
X271700Y8500D03*
Y14700D03*
X255800Y20000D03*
X273100Y30000D03*
Y25000D03*
X258900Y36900D03*
X272108Y41086D03*
X267108D03*
X262108D03*
X257108D03*
X271699Y47113D03*
X266699D03*
X261699D03*
X256699D03*
X276110Y-307113D03*
X281110D03*
X286110D03*
X291110D03*
X279799Y-296786D03*
X284799D03*
X289799D03*
X294799D03*
X286000Y-230000D03*
X280800Y-220000D03*
X279500Y-215000D03*
X279000Y-192600D03*
X279675Y-187425D03*
X284100Y-167000D03*
X284600Y-172400D03*
X284300Y-177400D03*
X284350Y-182650D03*
X280200Y-180000D03*
X280100Y-175000D03*
X280400Y-170000D03*
X281500Y-150000D03*
X281300Y-140000D03*
X286900Y-135000D03*
X278300Y-60000D03*
X283700Y-70000D03*
X278900Y-49000D03*
X282500Y-22700D03*
X277100Y-32600D03*
X277775Y-27425D03*
X278300Y-20000D03*
X282200Y-7000D03*
X282300Y-12400D03*
X282400Y-17400D03*
X278200Y-15000D03*
X278500Y-10000D03*
X286900Y20000D03*
X287900Y10000D03*
X286900Y25000D03*
X295434Y36118D03*
X291899Y39653D03*
X287108Y41086D03*
X282108D03*
X277108D03*
X291699Y47113D03*
X286699D03*
X281699D03*
X276699D03*
X296110Y-307113D03*
X301110D03*
X306110D03*
X311110D03*
X316110D03*
X299799Y-296786D03*
X303368Y-293284D03*
X308179Y-295000D03*
X309763Y-300910D03*
X314090Y-305237D03*
X306300Y-270000D03*
X306903Y-289749D03*
X310439Y-286213D03*
X313974Y-282678D03*
X314090Y-284763D03*
X309763Y-289090D03*
X306375Y-252575D03*
Y-257575D03*
X306300Y-262575D03*
X308200Y-265000D03*
Y-260000D03*
X308000Y-255000D03*
X308100Y-250000D03*
X306600Y-247300D03*
X310300Y-225000D03*
X306300Y-145000D03*
X304400Y-102575D03*
Y-110000D03*
X306300Y-105000D03*
X304700Y-87300D03*
X304500Y-92575D03*
Y-97575D03*
X306300Y-100000D03*
X306100Y-95000D03*
X306200Y-90000D03*
X307000Y-65000D03*
X304300Y15000D03*
X316647Y14905D03*
X313112Y18440D03*
X309576Y21976D03*
X306041Y25511D03*
X302505Y29047D03*
X298970Y32582D03*
X309763Y40910D03*
X308179Y35000D03*
X309763Y29090D03*
X314090Y24763D03*
X316699Y47113D03*
X311699D03*
X306699D03*
X301699D03*
X296699D03*
X314090Y45237D03*
X332113Y-292793D03*
X331821Y-295000D03*
X320000Y-306821D03*
X325910Y-305237D03*
X330237Y-300910D03*
X332113Y-287793D03*
Y-282793D03*
Y-277793D03*
Y-272793D03*
X317510Y-279142D03*
X321045Y-275607D03*
X324581Y-272071D03*
X330237Y-289090D03*
X325910Y-284763D03*
X320000Y-283179D03*
X332113Y-267793D03*
Y-262793D03*
Y-257793D03*
Y-252793D03*
X324586Y-267071D03*
X324686Y-262072D03*
Y-257072D03*
Y-252072D03*
X332113Y-247793D03*
Y-242793D03*
Y-237793D03*
Y-232793D03*
Y-227793D03*
X324686Y-247072D03*
Y-242072D03*
Y-237072D03*
Y-232072D03*
X332113Y-222793D03*
Y-217793D03*
Y-212793D03*
Y-207793D03*
X324686Y-227072D03*
Y-222072D03*
Y-217072D03*
Y-212072D03*
Y-207072D03*
X332113Y-202793D03*
Y-197793D03*
Y-192793D03*
Y-187793D03*
X324686Y-202072D03*
Y-197072D03*
Y-192072D03*
Y-187072D03*
X332113Y-182793D03*
Y-177793D03*
Y-172793D03*
Y-167793D03*
X324686Y-182072D03*
Y-177072D03*
Y-172072D03*
Y-167072D03*
X332113Y-162793D03*
Y-157793D03*
Y-152793D03*
Y-147793D03*
X324686Y-162072D03*
Y-157072D03*
Y-152072D03*
Y-147072D03*
X332113Y-142793D03*
Y-137793D03*
Y-132793D03*
Y-127793D03*
Y-122793D03*
X324686Y-142072D03*
Y-137072D03*
Y-132072D03*
Y-127072D03*
X332113Y-117793D03*
Y-112793D03*
Y-107793D03*
Y-102793D03*
X324686Y-122072D03*
Y-117072D03*
Y-112072D03*
Y-107072D03*
Y-102072D03*
X332113Y-97793D03*
Y-92793D03*
Y-87793D03*
Y-82793D03*
X324686Y-97072D03*
Y-92072D03*
Y-87072D03*
Y-82072D03*
X332113Y-77793D03*
Y-72793D03*
Y-67793D03*
Y-62793D03*
X324686Y-77072D03*
Y-72072D03*
Y-67072D03*
Y-62072D03*
X332113Y-57793D03*
Y-52793D03*
Y-47793D03*
Y-42793D03*
X324686Y-57072D03*
Y-52072D03*
Y-47072D03*
Y-42072D03*
X332113Y-37793D03*
Y-32793D03*
Y-27793D03*
Y-22793D03*
X324686Y-37072D03*
Y-32072D03*
Y-27072D03*
Y-22072D03*
X332113Y-17793D03*
Y-12793D03*
Y-7793D03*
Y-2793D03*
Y2207D03*
X324686Y-17072D03*
Y-12072D03*
Y-7072D03*
Y-2072D03*
Y2928D03*
X332113Y7207D03*
Y12207D03*
Y17207D03*
Y22207D03*
X323719Y7833D03*
X320183Y11369D03*
X320000Y23179D03*
X332113Y27207D03*
Y32207D03*
X331821Y35000D03*
X330237Y40910D03*
X325910Y24763D03*
X330237Y29090D03*
X325910Y45237D03*
X320000Y46821D03*
G54D12*
X71900Y-276819D03*
Y-283181D03*
X78100Y-276819D03*
Y-283181D03*
X75636Y-270000D03*
X71900Y-196819D03*
Y-203181D03*
X78100Y-196819D03*
Y-203181D03*
X75636Y-190000D03*
X71900Y-123181D03*
X78100D03*
X71900Y-116819D03*
X78100D03*
X75636Y-110000D03*
X71900Y-43181D03*
X78100D03*
X71900Y-36819D03*
X78100D03*
X75636Y-30000D03*
X105000Y-291700D03*
X91036Y-270000D03*
Y-190000D03*
Y-110000D03*
Y-30000D03*
X126900Y-276819D03*
Y-283181D03*
X109100Y-210000D03*
X124500D03*
X126900Y-196819D03*
Y-203181D03*
Y-123181D03*
X109100Y-130000D03*
X124500D03*
X126900Y-116819D03*
X109100Y-50000D03*
X124500D03*
X126900Y-43181D03*
Y-36819D03*
X109100Y30000D03*
X124500D03*
X133100Y-276819D03*
Y-283181D03*
X135636Y-270000D03*
X133100Y-196819D03*
Y-203181D03*
X135636Y-190000D03*
X133100Y-123181D03*
Y-116819D03*
X135636Y-110000D03*
X133100Y-43181D03*
Y-36819D03*
X135636Y-30000D03*
X145200Y-100D03*
X148400D03*
X151036Y-270000D03*
X169100Y-210000D03*
X151036Y-190000D03*
X169100Y-130000D03*
X151036Y-110000D03*
X169100Y-50000D03*
X151800Y-39400D03*
X155000D03*
X161300Y-39500D03*
X158100D03*
X151036Y-30000D03*
X155100Y-35500D03*
X151900D03*
X158200Y-35600D03*
X161400D03*
X156929Y-5229D03*
X151900Y-100D03*
X156900D03*
X160100D03*
X156902Y7598D03*
X169100Y30000D03*
X186900Y-276819D03*
Y-283181D03*
X184500Y-210000D03*
X186900Y-196819D03*
Y-203181D03*
Y-123181D03*
X184500Y-130000D03*
X186900Y-116819D03*
X184500Y-50000D03*
X186900Y-43181D03*
Y-36819D03*
X184500Y30000D03*
X193100Y-276819D03*
Y-283181D03*
X211036Y-270000D03*
X195636D03*
X193100Y-196819D03*
Y-203181D03*
X211036Y-190000D03*
X195636D03*
X193100Y-123181D03*
Y-116819D03*
X211036Y-110000D03*
X195636D03*
X193100Y-43181D03*
Y-36819D03*
X211036Y-30000D03*
X195636D03*
X229100Y-210000D03*
Y-130000D03*
Y-50000D03*
X228500Y-39800D03*
X225300D03*
X222000D03*
X228500Y-35300D03*
X225300D03*
X222000D03*
X228300Y-30000D03*
X225100D03*
X221800D03*
X227500Y200D03*
X230800D03*
X229100Y30000D03*
X246900Y-276819D03*
Y-283181D03*
X253100Y-276819D03*
Y-283181D03*
X244500Y-210000D03*
X246900Y-196819D03*
Y-203181D03*
X253100Y-196819D03*
Y-203181D03*
X246900Y-123181D03*
X244500Y-130000D03*
X253100Y-123181D03*
X246900Y-116819D03*
X253100D03*
X244500Y-50000D03*
X246900Y-43181D03*
X253100D03*
X246900Y-36819D03*
X253100D03*
X234000Y200D03*
X244500Y30000D03*
X271036Y-270000D03*
X255636D03*
X271036Y-190000D03*
X255636D03*
X271036Y-110000D03*
X255636D03*
X271036Y-30000D03*
X255636D03*
X289100Y-210000D03*
Y-130000D03*
Y-50000D03*
Y30000D03*
X304500Y-210000D03*
Y-130000D03*
Y-50000D03*
Y30000D03*
G54D13*
G01X60000Y50000D02*
X320000D01*
G02X335000Y35000I0J-15000D01*
G01Y-295000D01*
G02X320000Y-310000I-15000J0D01*
G01X60000D01*
G02X45000Y-295000I0J15000D01*
G01Y35000D01*
G02X60000Y50000I15000J0D01*
M02*
