G04 ================== begin FILE IDENTIFICATION RECORD ==================*
G04 Layout Name:  F:/PCB_PROJECT/386_Dram_board/PCB/DRAM_BOARD.brd*
G04 Film Name:    TOP*
G04 File Format:  Gerber RS274X*
G04 File Origin:  Cadence Allegro 17.2-S058*
G04 Origin Date:  Thu Dec 30 22:30:05 2021*
G04 *
G04 Layer:  BOARD GEOMETRY/OUTLINE*
G04 Layer:  ETCH/TOP*
G04 Layer:  PIN/TOP*
G04 Layer:  VIA CLASS/TOP*
G04 *
G04 Offset:    (0.00 0.00)*
G04 Mirror:    No*
G04 Mode:      Positive*
G04 Rotation:  0*
G04 FullContactRelief:  No*
G04 UndefLineWidth:     1.00*
G04 ================== end FILE IDENTIFICATION RECORD ====================*
%FSLAX25Y25*MOIN*%
%IR0*IPPOS*OFA0.00000B0.00000*MIA0B0*SFA1.00000B1.00000*%
%ADD14O,.11811X.0315*%
%ADD15C,.02362*%
%ADD18C,.05118*%
%ADD11C,.01772*%
%ADD16R,.03937X.11811*%
%ADD12R,.11811X.03937*%
%ADD17C,.03937*%
%ADD13R,.038X.03*%
%ADD10C,.20866*%
%ADD19C,.015*%
%ADD20C,.025*%
%ADD21C,.001*%
%ADD22C,.007*%
%ADD23C,.2187*%
G75*
%LPD*%
G75*
G36*
G01X60000Y47999D02*
X320000D01*
G02X332999Y35000I0J-12999D01*
G01Y-295000D01*
G02X320000Y-307999I-12999J0D01*
G01X276600D01*
Y-295900D01*
X299500D01*
X323700Y-271700D01*
Y-266100D01*
X323800Y-266000D01*
Y6500D01*
X302430Y27870D01*
G02X302446Y28451I283J283D01*
G03X301062Y32076I-1383J1549D01*
G01X298224D01*
X290100Y40200D01*
X89800D01*
X81676Y32076D01*
X78938D01*
G03X77510Y28492I0J-2076D01*
G02X77518Y27918I-275J-291D01*
G01X57700Y8100D01*
Y-71300D01*
X47001D01*
Y35000D01*
G02X60000Y47999I12999J0D01*
G37*
%LPC*%
G75*
G54D23*
X60000Y35000D03*
X320000Y-295000D03*
Y35000D03*
%LPD*%
G75*
G54D10*
X60000Y-295000D03*
Y35000D03*
X320000Y-295000D03*
Y35000D03*
G54D20*
G01X71900Y-280000D02*
Y-276819D01*
G01Y-280000D02*
Y-283181D01*
G01X78100Y-280000D02*
Y-276819D01*
G01Y-280000D02*
Y-283181D01*
G01X83268Y-270000D02*
X91036D01*
G01X83268D02*
X75636D01*
G01X71900Y-200000D02*
Y-196819D01*
G01Y-200000D02*
Y-203181D01*
G01X78100Y-200000D02*
Y-196819D01*
G01Y-200000D02*
Y-203181D01*
G01X83268Y-190000D02*
X91036D01*
G01X83268D02*
X75636D01*
G01X71900Y-120000D02*
Y-123181D01*
G01X78100Y-120000D02*
Y-123181D01*
G01X71900Y-120000D02*
Y-116819D01*
G01X78100Y-120000D02*
Y-116819D01*
G01X83268Y-110000D02*
X91036D01*
G01X83268D02*
X75636D01*
G01X71900Y-40000D02*
Y-43181D01*
G01Y-40000D02*
Y-36819D01*
G01X78100Y-40000D02*
Y-43181D01*
G01Y-40000D02*
Y-36819D01*
G01X83268Y-30000D02*
X91036D01*
G01X83268D02*
X75636D01*
G01X105000Y-300000D02*
Y-291700D01*
G01X126900Y-280000D02*
Y-276819D01*
G01Y-280000D02*
Y-283181D01*
G01X116732Y-210000D02*
X109100D01*
G01X116732D02*
X124500D01*
G01X126900Y-200000D02*
Y-196819D01*
G01Y-200000D02*
Y-203181D01*
G01Y-120000D02*
Y-123181D01*
G01X116732Y-130000D02*
X124500D01*
G01X116732D02*
X109100D01*
G01X126900Y-120000D02*
Y-116819D01*
G01X116732Y-50000D02*
X109100D01*
G01X116732D02*
X124500D01*
G01X126900Y-40000D02*
Y-36819D01*
G01Y-40000D02*
Y-43181D01*
G01X116732Y30000D02*
X109100D01*
G01X116732D02*
X124500D01*
G01X133100Y-280000D02*
Y-276819D01*
G01Y-280000D02*
Y-283181D01*
G01X143268Y-270000D02*
X151036D01*
G01X143268D02*
X135636D01*
G01X133100Y-200000D02*
Y-196819D01*
G01Y-200000D02*
Y-203181D01*
G01X143268Y-190000D02*
X151036D01*
G01X143268D02*
X135636D01*
G01X133100Y-120000D02*
Y-123181D01*
G01Y-120000D02*
Y-116819D01*
G01X143268Y-110000D02*
X151036D01*
G01X143268D02*
X135636D01*
G01X133100Y-40000D02*
Y-36819D01*
G01Y-40000D02*
Y-43181D01*
G01X143268Y-30000D02*
X151036D01*
G01X143268D02*
X135636D01*
G01X176732Y-210000D02*
X169100D01*
G01X176732Y-130000D02*
X169100D01*
G01X176732Y-50000D02*
X169100D01*
G01X176732Y30000D02*
X169100D01*
G01X186900Y-280000D02*
Y-276819D01*
G01Y-280000D02*
Y-283181D01*
G01X176732Y-210000D02*
X184500D01*
G01X186900Y-200000D02*
Y-196819D01*
G01Y-200000D02*
Y-203181D01*
G01Y-120000D02*
Y-123181D01*
G01X176732Y-130000D02*
X184500D01*
G01X186900Y-120000D02*
Y-116819D01*
G01X176732Y-50000D02*
X184500D01*
G01X186900Y-40000D02*
Y-36819D01*
G01Y-40000D02*
Y-43181D01*
G01X176732Y30000D02*
X184500D01*
G01X193100Y-280000D02*
Y-276819D01*
G01Y-280000D02*
Y-283181D01*
G01X203268Y-270000D02*
X211036D01*
G01X203268D02*
X195636D01*
G01X193100Y-200000D02*
Y-196819D01*
G01Y-200000D02*
Y-203181D01*
G01X203268Y-190000D02*
X211036D01*
G01X203268D02*
X195636D01*
G01X193100Y-120000D02*
Y-123181D01*
G01Y-120000D02*
Y-116819D01*
G01X203268Y-110000D02*
X211036D01*
G01X203268D02*
X195636D01*
G01X193100Y-40000D02*
Y-36819D01*
G01Y-40000D02*
Y-43181D01*
G01X203268Y-30000D02*
X211036D01*
G01X203268D02*
X195636D01*
G01X236732Y-210000D02*
X229100D01*
G01X236732Y-130000D02*
X229100D01*
G01X236732Y-50000D02*
X229100D01*
G01X236732Y30000D02*
X229100D01*
G01X246900Y-280000D02*
Y-276819D01*
G01Y-280000D02*
Y-283181D01*
G01X253100Y-280000D02*
Y-276819D01*
G01Y-280000D02*
Y-283181D01*
G01X236732Y-210000D02*
X244500D01*
G01X246900Y-200000D02*
Y-196819D01*
G01Y-200000D02*
Y-203181D01*
G01X253100Y-200000D02*
Y-196819D01*
G01Y-200000D02*
Y-203181D01*
G01X246900Y-120000D02*
Y-123181D01*
G01X236732Y-130000D02*
X244500D01*
G01X253100Y-120000D02*
Y-123181D01*
G01X246900Y-120000D02*
Y-116819D01*
G01X253100Y-120000D02*
Y-116819D01*
G01X236732Y-50000D02*
X244500D01*
G01X246900Y-40000D02*
Y-36819D01*
G01Y-40000D02*
Y-43181D01*
G01X253100Y-40000D02*
Y-36819D01*
G01Y-40000D02*
Y-43181D01*
G01X236732Y30000D02*
X244500D01*
G01X263268Y-270000D02*
X271036D01*
G01X263268D02*
X255636D01*
G01X263268Y-190000D02*
X271036D01*
G01X263268D02*
X255636D01*
G01X263268Y-110000D02*
X271036D01*
G01X263268D02*
X255636D01*
G01X263268Y-30000D02*
X271036D01*
G01X263268D02*
X255636D01*
G01X296732Y-210000D02*
X289100D01*
G01X296732Y-130000D02*
X289100D01*
G01X296732Y-50000D02*
X289100D01*
G01X296732Y30000D02*
X289100D01*
G01X296732Y-210000D02*
X304500D01*
G01X296732Y-130000D02*
X304500D01*
G01X296732Y-50000D02*
X304500D01*
G01X296732Y30000D02*
X304500D01*
G54D11*
X47887Y-290000D03*
X48179Y-295000D03*
X49763Y-300910D03*
X54090Y-305237D03*
X60000Y-306821D03*
X47887Y-275000D03*
Y-280000D03*
Y-285000D03*
X58591Y-275343D03*
X62127Y-278879D03*
X65662Y-282415D03*
X60000Y-283179D03*
X54090Y-284763D03*
X49763Y-289090D03*
X63900Y-255000D03*
X47887D03*
Y-265000D03*
X56814Y-255670D03*
Y-265670D03*
X47887Y-235000D03*
Y-245000D03*
X56814Y-235670D03*
Y-245670D03*
X47887Y-215000D03*
Y-225000D03*
X56814Y-215670D03*
Y-225670D03*
X63600Y-185500D03*
X63900Y-197000D03*
X47887Y-195000D03*
Y-205000D03*
X56814Y-185670D03*
Y-195670D03*
Y-205670D03*
X62300Y-175600D03*
X47887Y-165000D03*
Y-175000D03*
Y-185000D03*
X56814Y-165670D03*
Y-175670D03*
X47887Y-145000D03*
Y-155000D03*
X56814Y-145670D03*
Y-155670D03*
X47887Y-125000D03*
Y-135000D03*
X56814Y-125670D03*
Y-135670D03*
X47887Y-105000D03*
Y-115000D03*
X56814Y-105670D03*
Y-115670D03*
X47887Y-85000D03*
Y-95000D03*
X56814Y-85670D03*
Y-95670D03*
X65200Y-67100D03*
X47887Y-60000D03*
Y-65000D03*
Y-70000D03*
Y-75000D03*
X56814Y-60670D03*
Y-65670D03*
Y-70670D03*
Y-75670D03*
X47887Y-40000D03*
Y-45000D03*
Y-50000D03*
Y-55000D03*
X56814Y-40670D03*
Y-45670D03*
Y-50670D03*
Y-55670D03*
X47887Y-20000D03*
Y-25000D03*
Y-30000D03*
Y-35000D03*
X56814Y-20670D03*
Y-25670D03*
Y-30670D03*
Y-35670D03*
X47887Y0D03*
Y-5000D03*
Y-10000D03*
Y-15000D03*
X56814Y-670D03*
Y-5670D03*
Y-10670D03*
Y-15670D03*
X47887Y20000D03*
Y15000D03*
Y10000D03*
Y5000D03*
X64685Y16337D03*
X61149Y12801D03*
X57614Y9266D03*
X56814Y4330D03*
X60000Y23179D03*
X47887Y30000D03*
Y25000D03*
X49763Y40910D03*
X48179Y35000D03*
X49763Y29090D03*
X54090Y24763D03*
X60000Y46821D03*
X54090Y45237D03*
X66110Y-307113D03*
X71110D03*
X76110D03*
X81110D03*
X86110D03*
X76269Y-293021D03*
X79804Y-296557D03*
X84799Y-296786D03*
X71821Y-295000D03*
X65910Y-305237D03*
X70237Y-300910D03*
X69198Y-285950D03*
X72733Y-289486D03*
X70237Y-289090D03*
X65910Y-284763D03*
X66900Y-262400D03*
X72700Y-228100D03*
X74400Y-220100D03*
X73300Y-192900D03*
X73200Y-187425D03*
X75400Y-170000D03*
Y-175000D03*
Y-180000D03*
Y-185000D03*
X73200Y-182425D03*
Y-177425D03*
X73425Y-172575D03*
X69800Y-170300D03*
X67500Y-146600D03*
X82300Y-158300D03*
X72100Y-148400D03*
X69700Y-140000D03*
X74500Y-61700D03*
X74900Y-70000D03*
X72600Y12600D03*
X71756Y23408D03*
X68220Y19872D03*
X85898Y37550D03*
X82362Y34015D03*
X75291Y26944D03*
X71821Y35000D03*
X70237Y40910D03*
X65910Y24763D03*
X70237Y29090D03*
X86699Y47113D03*
X81699D03*
X76699D03*
X71699D03*
X66699D03*
X65910Y45237D03*
X96110Y-307113D03*
X101110D03*
X106110D03*
X94799Y-296786D03*
X99799D03*
X104799D03*
X93100Y-210000D03*
Y-215000D03*
X106900Y-220000D03*
Y-215000D03*
X87000Y-158300D03*
X100200Y-130000D03*
X96400Y-135000D03*
X106900Y-140000D03*
X92500Y-125300D03*
X92600Y-105000D03*
X99500Y-110000D03*
X99700Y-105000D03*
X92900Y-90000D03*
X92700Y-95000D03*
X92500Y-100000D03*
X99400D03*
X99100Y-95000D03*
X98400Y-90000D03*
X106900Y-60000D03*
X93100Y-50000D03*
Y-55000D03*
X106900D03*
Y20000D03*
X93100Y30000D03*
Y25000D03*
X106900D03*
X89433Y41086D03*
X107108D03*
X102108D03*
X97108D03*
X106699Y47113D03*
X101699D03*
X96699D03*
X91699D03*
X111110Y-307113D03*
X116110D03*
X126110D03*
X109799Y-296786D03*
X114799D03*
X124799D03*
X120000Y-284700D03*
X125700Y-225000D03*
X109800Y-150000D03*
X109900Y-145000D03*
X109300Y-135100D03*
X123900Y-70000D03*
X125700Y-65000D03*
X115300Y600D03*
X109500Y15100D03*
X126050Y33650D03*
X127108Y41086D03*
X122108D03*
X117108D03*
X112108D03*
X126699Y47113D03*
X121699D03*
X116699D03*
X111699D03*
X130000Y-290600D03*
X140000D03*
X136110Y-307113D03*
X146110D03*
X134799Y-296786D03*
X144799D03*
X147108Y41086D03*
X142108D03*
X137108D03*
X132108D03*
X146699Y47113D03*
X141699D03*
X136699D03*
X131699D03*
X150000Y-290600D03*
X160000D03*
X156110Y-307113D03*
X166110D03*
X154799Y-296786D03*
X164799D03*
X160100Y-284000D03*
X168300Y-241800D03*
X153100Y-210000D03*
Y-215000D03*
X166900Y-220000D03*
Y-215000D03*
X167300Y-225000D03*
X153100Y-130000D03*
Y-135000D03*
X166900Y-140000D03*
Y-135000D03*
Y-60000D03*
X153100Y-50000D03*
Y-55000D03*
X166900D03*
X169100Y-22600D03*
X163228Y-7300D03*
X166378Y-12600D03*
X169200Y-17600D03*
X162200Y22200D03*
X170100Y37000D03*
X153100Y30000D03*
Y25000D03*
X166900D03*
X167108Y41086D03*
X162108D03*
X157108D03*
X152108D03*
X166699Y47113D03*
X161699D03*
X156699D03*
X151699D03*
X180000Y-290600D03*
X190000D03*
X176110Y-307113D03*
X186110D03*
X174799Y-296786D03*
X184799D03*
X189800Y-275000D03*
X189200Y-235600D03*
X188900Y-145000D03*
X185100D03*
X188900Y-65000D03*
X185000Y-31000D03*
X186500Y-27400D03*
X185500Y-20000D03*
X186000Y-15000D03*
X188425Y-9975D03*
X184000Y22400D03*
X186300Y21000D03*
X176600Y34100D03*
X179800Y35600D03*
X186100Y27575D03*
X186600Y24900D03*
X190900Y30000D03*
X187108Y41086D03*
X182108D03*
X177108D03*
X172108D03*
X186699Y47113D03*
X181699D03*
X176699D03*
X171699D03*
X210000Y-290600D03*
X196110Y-307113D03*
X206110D03*
X194799Y-296786D03*
X204799D03*
X193500Y-225000D03*
X210800Y-62300D03*
X195600Y-62500D03*
X196900Y400D03*
X207323Y-1723D03*
X210472Y-528D03*
X191575Y575D03*
X195300Y20400D03*
X193200Y24600D03*
X196000Y27500D03*
X211700Y33200D03*
X212108Y41086D03*
X207108D03*
X202108D03*
X197108D03*
X192108D03*
X211699Y47113D03*
X206699D03*
X201699D03*
X196699D03*
X191699D03*
X220000Y-290600D03*
X216110Y-307113D03*
X226110D03*
X214799Y-296786D03*
X224799D03*
X212400Y-283500D03*
X226900Y-278900D03*
X213100Y-210000D03*
Y-215000D03*
X226900D03*
Y-220000D03*
X229600Y-144900D03*
X213100Y-130000D03*
Y-135000D03*
X226900D03*
Y-140000D03*
Y-60000D03*
X217200Y-54100D03*
X213100Y-55000D03*
X226900Y20000D03*
X216772Y11172D03*
X218500Y18100D03*
X223400Y29500D03*
X220900Y24500D03*
X226900Y25000D03*
X214750Y31750D03*
X218150Y37050D03*
X232108Y41086D03*
X227108D03*
X222108D03*
X217108D03*
X231699Y47113D03*
X226699D03*
X221699D03*
X216699D03*
X240000Y-290600D03*
X250000D03*
X236110Y-307113D03*
X246110D03*
X234799Y-296786D03*
X244799D03*
X234300Y-238400D03*
X239300Y-239500D03*
X244400Y-225000D03*
X248900Y-145000D03*
X251600Y-150000D03*
X244500Y-67425D03*
X244600Y-55000D03*
X253200Y10000D03*
X252108Y41086D03*
X247108D03*
X242108D03*
X237108D03*
X251699Y47113D03*
X246699D03*
X241699D03*
X236699D03*
X260000Y-290100D03*
X270000Y-290600D03*
X256110Y-307113D03*
X266110D03*
X254799Y-296786D03*
X264799D03*
X274799D03*
X273000Y-230000D03*
X274000Y-210200D03*
X271100Y-213400D03*
X270800Y-220000D03*
X273100Y-130000D03*
Y-135000D03*
X254300Y-140000D03*
X270560Y-60000D03*
X271300Y-70000D03*
X273100Y-50000D03*
X271100Y-54800D03*
X271700Y8500D03*
Y14700D03*
X255800Y20000D03*
X273100Y30000D03*
Y25000D03*
X258900Y36900D03*
X272108Y41086D03*
X267108D03*
X262108D03*
X257108D03*
X271699Y47113D03*
X266699D03*
X261699D03*
X256699D03*
X276110Y-307113D03*
X281110D03*
X286110D03*
X291110D03*
X279799Y-296786D03*
X284799D03*
X289799D03*
X294799D03*
X286000Y-230000D03*
X280800Y-220000D03*
X279500Y-215000D03*
X279000Y-192600D03*
X279675Y-187425D03*
X284100Y-167000D03*
X284600Y-172400D03*
X284300Y-177400D03*
X284350Y-182650D03*
X280200Y-180000D03*
X280100Y-175000D03*
X280400Y-170000D03*
X281500Y-150000D03*
X281300Y-140000D03*
X286900Y-135000D03*
X278300Y-60000D03*
X283700Y-70000D03*
X278900Y-49000D03*
X282500Y-22700D03*
X277100Y-32600D03*
X277775Y-27425D03*
X278300Y-20000D03*
X282200Y-7000D03*
X282300Y-12400D03*
X282400Y-17400D03*
X278200Y-15000D03*
X278500Y-10000D03*
X286900Y20000D03*
X287900Y10000D03*
X286900Y25000D03*
X295434Y36118D03*
X291899Y39653D03*
X287108Y41086D03*
X282108D03*
X277108D03*
X291699Y47113D03*
X286699D03*
X281699D03*
X276699D03*
X296110Y-307113D03*
X301110D03*
X306110D03*
X311110D03*
X316110D03*
X299799Y-296786D03*
X303368Y-293284D03*
X308179Y-295000D03*
X309763Y-300910D03*
X314090Y-305237D03*
X306300Y-270000D03*
X306903Y-289749D03*
X310439Y-286213D03*
X313974Y-282678D03*
X314090Y-284763D03*
X309763Y-289090D03*
X306375Y-252575D03*
Y-257575D03*
X306300Y-262575D03*
X308200Y-265000D03*
Y-260000D03*
X308000Y-255000D03*
X308100Y-250000D03*
X306600Y-247300D03*
X310300Y-225000D03*
X306300Y-145000D03*
X304400Y-102575D03*
Y-110000D03*
X306300Y-105000D03*
X304700Y-87300D03*
X304500Y-92575D03*
Y-97575D03*
X306300Y-100000D03*
X306100Y-95000D03*
X306200Y-90000D03*
X307000Y-65000D03*
X304300Y15000D03*
X316647Y14905D03*
X313112Y18440D03*
X309576Y21976D03*
X306041Y25511D03*
X302505Y29047D03*
X298970Y32582D03*
X309763Y40910D03*
X308179Y35000D03*
X309763Y29090D03*
X314090Y24763D03*
X316699Y47113D03*
X311699D03*
X306699D03*
X301699D03*
X296699D03*
X314090Y45237D03*
X332113Y-292793D03*
X331821Y-295000D03*
X320000Y-306821D03*
X325910Y-305237D03*
X330237Y-300910D03*
X332113Y-287793D03*
Y-282793D03*
Y-277793D03*
Y-272793D03*
X317510Y-279142D03*
X321045Y-275607D03*
X324581Y-272071D03*
X330237Y-289090D03*
X325910Y-284763D03*
X320000Y-283179D03*
X332113Y-267793D03*
Y-262793D03*
Y-257793D03*
Y-252793D03*
X324586Y-267071D03*
X324686Y-262072D03*
Y-257072D03*
Y-252072D03*
X332113Y-247793D03*
Y-242793D03*
Y-237793D03*
Y-232793D03*
Y-227793D03*
X324686Y-247072D03*
Y-242072D03*
Y-237072D03*
Y-232072D03*
X332113Y-222793D03*
Y-217793D03*
Y-212793D03*
Y-207793D03*
X324686Y-227072D03*
Y-222072D03*
Y-217072D03*
Y-212072D03*
Y-207072D03*
X332113Y-202793D03*
Y-197793D03*
Y-192793D03*
Y-187793D03*
X324686Y-202072D03*
Y-197072D03*
Y-192072D03*
Y-187072D03*
X332113Y-182793D03*
Y-177793D03*
Y-172793D03*
Y-167793D03*
X324686Y-182072D03*
Y-177072D03*
Y-172072D03*
Y-167072D03*
X332113Y-162793D03*
Y-157793D03*
Y-152793D03*
Y-147793D03*
X324686Y-162072D03*
Y-157072D03*
Y-152072D03*
Y-147072D03*
X332113Y-142793D03*
Y-137793D03*
Y-132793D03*
Y-127793D03*
Y-122793D03*
X324686Y-142072D03*
Y-137072D03*
Y-132072D03*
Y-127072D03*
X332113Y-117793D03*
Y-112793D03*
Y-107793D03*
Y-102793D03*
X324686Y-122072D03*
Y-117072D03*
Y-112072D03*
Y-107072D03*
Y-102072D03*
X332113Y-97793D03*
Y-92793D03*
Y-87793D03*
Y-82793D03*
X324686Y-97072D03*
Y-92072D03*
Y-87072D03*
Y-82072D03*
X332113Y-77793D03*
Y-72793D03*
Y-67793D03*
Y-62793D03*
X324686Y-77072D03*
Y-72072D03*
Y-67072D03*
Y-62072D03*
X332113Y-57793D03*
Y-52793D03*
Y-47793D03*
Y-42793D03*
X324686Y-57072D03*
Y-52072D03*
Y-47072D03*
Y-42072D03*
X332113Y-37793D03*
Y-32793D03*
Y-27793D03*
Y-22793D03*
X324686Y-37072D03*
Y-32072D03*
Y-27072D03*
Y-22072D03*
X332113Y-17793D03*
Y-12793D03*
Y-7793D03*
Y-2793D03*
Y2207D03*
X324686Y-17072D03*
Y-12072D03*
Y-7072D03*
Y-2072D03*
Y2928D03*
X332113Y7207D03*
Y12207D03*
Y17207D03*
Y22207D03*
X323719Y7833D03*
X320183Y11369D03*
X320000Y23179D03*
X332113Y27207D03*
Y32207D03*
X331821Y35000D03*
X330237Y40910D03*
X325910Y24763D03*
X330237Y29090D03*
X325910Y45237D03*
X320000Y46821D03*
G54D21*
G01X60000Y50000D02*
X320000D01*
G02X335000Y35000I0J-15000D01*
G01Y-295000D01*
G02X320000Y-310000I-15000J0D01*
G01X60000D01*
G02X45000Y-295000I0J15000D01*
G01Y35000D01*
G02X60000Y50000I15000J0D01*
G54D12*
X55000Y-270000D03*
Y-260000D03*
Y-250000D03*
Y-230000D03*
Y-240000D03*
Y-210000D03*
Y-220000D03*
Y-190000D03*
Y-200000D03*
Y-170000D03*
Y-180000D03*
Y-150000D03*
Y-160000D03*
Y-130000D03*
Y-140000D03*
Y-110000D03*
Y-120000D03*
Y-80000D03*
Y-90000D03*
Y-100000D03*
G54D22*
G01X66900Y-262400D02*
X59300Y-270000D01*
X55000D01*
G01X239300Y-239500D02*
X234500Y-244300D01*
X72700D01*
X67000Y-250000D01*
X55000D01*
G01Y-260000D02*
X58900D01*
X63900Y-255000D01*
G01X234300Y-238400D02*
X233300Y-239400D01*
X74200D01*
X69200Y-234400D01*
X63300D01*
X58900Y-230000D01*
X55000D01*
G01X168300Y-241800D02*
X72800D01*
X71000Y-240000D01*
X55000D01*
G01X83268Y-225000D02*
X74000D01*
X59000Y-210000D01*
X55000D01*
G01X189200Y-235600D02*
X188400Y-236400D01*
X75700D01*
X59300Y-220000D01*
X55000D01*
G01X63600Y-185500D02*
X59100Y-190000D01*
X55000D01*
G01X63900Y-197000D02*
X62200D01*
X59200Y-200000D01*
X55000D01*
G01Y-180000D02*
X58900D01*
X62300Y-176600D01*
Y-175600D01*
G01X69800Y-170300D02*
X55300D01*
X55000Y-170000D01*
G01X87000Y-158300D02*
Y-158000D01*
X83100Y-154100D01*
X70400D01*
X61800Y-145500D01*
Y-143000D01*
X58800Y-140000D01*
X55000D01*
G01X82300Y-158300D02*
X80700Y-156700D01*
X65700D01*
X59000Y-150000D01*
X55000D01*
G01X73425Y-172575D02*
X72700Y-171850D01*
Y-162800D01*
X69900Y-160000D01*
X55000D01*
G01X92500Y-125300D02*
X91500Y-126300D01*
X62900D01*
X59200Y-130000D01*
X55000D01*
G01X83268Y-105000D02*
X63700D01*
X58700Y-110000D01*
X55000D01*
G01X99500D02*
X95400Y-114100D01*
X65100D01*
X59200Y-120000D01*
X55000D01*
G01Y-90000D02*
X69300D01*
X74300Y-95000D01*
X83268D01*
G01Y-100000D02*
X55000D01*
G01X83268Y-65000D02*
X67300D01*
X65200Y-67100D01*
G01X55000Y-80000D02*
X64500D01*
X74500Y-90000D01*
X83268D01*
G01X143268Y-250000D02*
X136100D01*
X133400Y-247300D01*
X95600D01*
X92900Y-250000D01*
X83268D01*
G01X143268Y-255000D02*
X133000D01*
X130575Y-252575D01*
X96125D01*
X93700Y-255000D01*
X83268D01*
G01X143268Y-260000D02*
X131000D01*
X128575Y-257575D01*
X97025D01*
X94600Y-260000D01*
X83268D01*
G01X143268Y-265000D02*
X128000D01*
X125575Y-262575D01*
X97725D01*
X95300Y-265000D01*
X83268D01*
G01X72700Y-228100D02*
X73225Y-227575D01*
X97075D01*
X99700Y-230200D01*
X116532D01*
X116732Y-230000D01*
G01X83268D02*
X95500D01*
X98200Y-232700D01*
X127300D01*
X130000Y-230000D01*
X143268D01*
G01X83268Y-210000D02*
X93100D01*
G01X83268Y-215000D02*
X93100D01*
G01X83268Y-225000D02*
X97700D01*
X100125Y-227425D01*
X126475D01*
X128900Y-225000D01*
X143268D01*
G01X83268Y-220000D02*
X98800D01*
X101375Y-222575D01*
X124425D01*
X127000Y-220000D01*
X143268D01*
G01X74400Y-220100D02*
X83168D01*
X83268Y-220000D01*
G01X73300Y-192900D02*
X97500D01*
X100400Y-190000D01*
X116732D01*
G01X73200Y-187425D02*
X96975D01*
X99400Y-185000D01*
X116732D01*
G01X143268Y-170000D02*
X136100D01*
X133400Y-167300D01*
X95600D01*
X92900Y-170000D01*
X83268D01*
G01D02*
X75400D01*
G01X143268Y-175000D02*
X133000D01*
X130575Y-172575D01*
X96125D01*
X93700Y-175000D01*
X83268D01*
G01D02*
X75400D01*
G01X143268Y-180000D02*
X131000D01*
X128575Y-177575D01*
X97025D01*
X94600Y-180000D01*
X83268D01*
G01D02*
X75400D01*
G01X143268Y-185000D02*
X128000D01*
X125575Y-182575D01*
X97725D01*
X95300Y-185000D01*
X83268D01*
G01D02*
X75400D01*
G01X73200Y-182425D02*
X94675D01*
X97100Y-180000D01*
X116732D01*
G01X73200Y-177425D02*
X94075D01*
X96500Y-175000D01*
X116732D01*
G01X73425Y-172575D02*
X92925D01*
X95500Y-170000D01*
X116732D01*
G01X83268Y-145000D02*
X97700D01*
X100125Y-147425D01*
X126475D01*
X128900Y-145000D01*
X143268D01*
G01X83268D02*
X69100D01*
X67500Y-146600D01*
G01X83268Y-150000D02*
X95500D01*
X98200Y-152700D01*
X127300D01*
X130000Y-150000D01*
X143268D01*
G01X72100Y-148400D02*
X73700Y-150000D01*
X83268D01*
G01Y-130000D02*
X100200D01*
G01X83268Y-135000D02*
X96400D01*
G01X83268Y-140000D02*
X98800D01*
X101375Y-142575D01*
X124425D01*
X127000Y-140000D01*
X143268D01*
G01X69700D02*
X83268D01*
G01X92600Y-105000D02*
X83268D01*
G01X92900Y-90000D02*
X83268D01*
G01X92700Y-95000D02*
X83268D01*
G01X92500Y-100000D02*
X83268D01*
G01Y-65000D02*
X97700D01*
X100125Y-67425D01*
X126475D01*
X128900Y-65000D01*
X143268D01*
G01X83268Y-60000D02*
X76200D01*
X74500Y-61700D01*
G01X83268Y-70000D02*
X95500D01*
X98200Y-72700D01*
X127300D01*
X130000Y-70000D01*
X143268D01*
G01X83268D02*
X74900D01*
G01X83268Y-50000D02*
X93100D01*
G01X83268Y-55000D02*
X93100D01*
G01X83268Y-60000D02*
X98800D01*
X101375Y-62575D01*
X124425D01*
X127000Y-60000D01*
X143268D01*
G01Y-20000D02*
X131000D01*
X128575Y-17575D01*
X97025D01*
X94600Y-20000D01*
X83268D01*
G01X143268Y-25000D02*
X128000D01*
X125575Y-22575D01*
X97725D01*
X95300Y-25000D01*
X83268D01*
G01X143268Y-10000D02*
X136100D01*
X133400Y-7300D01*
X95600D01*
X92900Y-10000D01*
X83268D01*
G01X143268Y-15000D02*
X133000D01*
X130575Y-12575D01*
X96125D01*
X93700Y-15000D01*
X83268D01*
G01Y15000D02*
X97700D01*
X100125Y12575D01*
X126475D01*
X128900Y15000D01*
X143268D01*
G01X83268D02*
X75000D01*
X72600Y12600D01*
G01X83268Y20000D02*
X98800D01*
X101375Y17425D01*
X124425D01*
X127000Y20000D01*
X143268D01*
G01X83268Y10000D02*
X95500D01*
X98200Y7300D01*
X127300D01*
X130000Y10000D01*
X143268D01*
G01X83268Y30000D02*
X93100D01*
G01X83268Y25000D02*
X93100D01*
G01X189800Y-275000D02*
X189600D01*
X188100Y-273500D01*
X160600D01*
X159500Y-274600D01*
X111300D01*
X90000Y-295900D01*
Y-300000D01*
G01X116732Y-220000D02*
X106900D01*
G01X116732Y-215000D02*
X106900D01*
G01X116732Y-140000D02*
X106900D01*
G01X143268Y-105000D02*
X128000D01*
X125575Y-102575D01*
X97725D01*
X95300Y-105000D01*
X92600D01*
G01X116732Y-110000D02*
X99500D01*
G01X116732Y-105000D02*
X99700D01*
G01X143268Y-90000D02*
X136100D01*
X133400Y-87300D01*
X95600D01*
X92900Y-90000D01*
G01X143268Y-95000D02*
X133000D01*
X130575Y-92575D01*
X96125D01*
X93700Y-95000D01*
X92700D01*
G01X143268Y-100000D02*
X131000D01*
X128575Y-97575D01*
X97025D01*
X94600Y-100000D01*
X92500D01*
G01X116732D02*
X99400D01*
G01X116732Y-95000D02*
X99100D01*
G01X116732Y-90000D02*
X98400D01*
G01X116732Y-60000D02*
X106900D01*
G01X116732Y-55000D02*
X106900D01*
G01X116732Y20000D02*
X106900D01*
G01X126050Y33650D02*
X125100Y32700D01*
X95800D01*
X93100Y30000D01*
G01X170100Y37000D02*
X135000D01*
X125425Y27425D01*
X95525D01*
X93100Y25000D01*
G01X116732D02*
X106900D01*
G01X120000Y-284700D02*
Y-300000D01*
G01X176732Y-270000D02*
X159700D01*
X157100Y-272600D01*
X126600D01*
X124000Y-270000D01*
X116732D01*
G01X176732Y-265000D02*
X160200D01*
X157775Y-267425D01*
X126525D01*
X124100Y-265000D01*
X116732D01*
G01X176732Y-260000D02*
X158300D01*
X155725Y-262575D01*
X129375D01*
X126800Y-260000D01*
X116732D01*
G01X176732Y-255000D02*
X156500D01*
X154000Y-257500D01*
X131900D01*
X129400Y-255000D01*
X116732D01*
G01X176732Y-250000D02*
X154900D01*
X152400Y-252500D01*
X134300D01*
X131800Y-250000D01*
X116732D01*
G01X176732Y-230000D02*
X157900D01*
X155475Y-227575D01*
X129325D01*
X126900Y-230000D01*
X116732D01*
G01X125700Y-225000D02*
X116732D01*
G01X167300D02*
X160700D01*
X158275Y-222575D01*
X128125D01*
X125700Y-225000D01*
G01X176732Y-190000D02*
X159700D01*
X157100Y-192600D01*
X126600D01*
X124000Y-190000D01*
X116732D01*
G01X176732Y-185000D02*
X160200D01*
X157775Y-187425D01*
X126525D01*
X124100Y-185000D01*
X116732D01*
G01X176732Y-180000D02*
X158300D01*
X155725Y-182575D01*
X129375D01*
X126800Y-180000D01*
X116732D01*
G01X176732Y-175000D02*
X156500D01*
X154000Y-177500D01*
X131900D01*
X129400Y-175000D01*
X116732D01*
G01X176732Y-170000D02*
X154900D01*
X152400Y-172500D01*
X134300D01*
X131800Y-170000D01*
X116732D01*
G01X176732Y-150000D02*
X157900D01*
X155475Y-147575D01*
X129325D01*
X126900Y-150000D01*
X116732D01*
G01X109800D02*
X116732D01*
G01Y-145000D02*
X109900D01*
G01X116732D02*
X125700D01*
X128125Y-142575D01*
X158275D01*
X160700Y-145000D01*
X176732D01*
G01X116732Y-135000D02*
X109400D01*
X109300Y-135100D01*
G01X176732Y-110000D02*
X159700D01*
X157100Y-112600D01*
X126600D01*
X124000Y-110000D01*
X116732D01*
G01X176732Y-105000D02*
X160200D01*
X157775Y-107425D01*
X126525D01*
X124100Y-105000D01*
X116732D01*
G01X176732Y-100000D02*
X158300D01*
X155725Y-102575D01*
X129375D01*
X126800Y-100000D01*
X116732D01*
G01X176732Y-95000D02*
X156500D01*
X154000Y-97500D01*
X131900D01*
X129400Y-95000D01*
X116732D01*
G01X176732Y-90000D02*
X154900D01*
X152400Y-92500D01*
X134300D01*
X131800Y-90000D01*
X116732D01*
G01X176732Y-70000D02*
X157900D01*
X155475Y-67575D01*
X129325D01*
X126900Y-70000D01*
X123900D01*
G01D02*
X116732D01*
G01X176732Y-65000D02*
X160700D01*
X158275Y-62575D01*
X128125D01*
X125700Y-65000D01*
G01D02*
X116732D01*
G01X176732Y-30000D02*
X159700D01*
X157100Y-32600D01*
X126600D01*
X124000Y-30000D01*
X116732D01*
G01X176732Y-25000D02*
X160200D01*
X157775Y-27425D01*
X126525D01*
X124100Y-25000D01*
X116732D01*
G01X176732Y-20000D02*
X158300D01*
X155725Y-22575D01*
X129375D01*
X126800Y-20000D01*
X116732D01*
G01X207323Y-1723D02*
X174477D01*
X173002Y-3198D01*
X124198D01*
X120400Y600D01*
X115300D01*
G01X176732Y-15000D02*
X156500D01*
X154000Y-17500D01*
X131900D01*
X129400Y-15000D01*
X116732D01*
G01X176732Y-10000D02*
X154900D01*
X152400Y-12500D01*
X134300D01*
X131800Y-10000D01*
X116732D01*
G01X176600Y34100D02*
X174700D01*
X173600Y33000D01*
X137600D01*
X127300Y22700D01*
X125700D01*
X123000Y20000D01*
X116732D01*
G01X176732Y10000D02*
X157900D01*
X155475Y12425D01*
X129325D01*
X126900Y10000D01*
X116732D01*
G01X109500Y15100D02*
X116632D01*
X116732Y15000D01*
G01D02*
X125700D01*
X128125Y17425D01*
X158418D01*
X160843Y15000D01*
X176732D01*
G01X179800Y35600D02*
X179100Y36300D01*
X172600D01*
X171300Y35000D01*
X136400D01*
X126400Y25000D01*
X116732D01*
G01X130000Y-290600D02*
Y-300000D01*
G01X140000Y-290600D02*
Y-300000D01*
G01X143268Y-250000D02*
X150600D01*
X153300Y-247300D01*
X193400D01*
X196100Y-250000D01*
X203268D01*
G01X143268Y-255000D02*
X153100D01*
X155525Y-252575D01*
X190575D01*
X193000Y-255000D01*
X203268D01*
G01X143268Y-260000D02*
X154900D01*
X157325Y-257575D01*
X188575D01*
X191000Y-260000D01*
X203268D01*
G01X143268Y-265000D02*
X157100D01*
X159525Y-262575D01*
X185575D01*
X188000Y-265000D01*
X203268D01*
G01X143268Y-230000D02*
X155500D01*
X158200Y-232700D01*
X187300D01*
X190000Y-230000D01*
X203268D01*
G01X143268Y-210000D02*
X153100D01*
G01X143268Y-215000D02*
X153100D01*
G01X143268Y-225000D02*
X157700D01*
X160125Y-227425D01*
X186475D01*
X188900Y-225000D01*
X193500D01*
G01X143268Y-220000D02*
X158800D01*
X161375Y-222575D01*
X184425D01*
X187000Y-220000D01*
X203268D01*
G01X143268Y-170000D02*
X150600D01*
X153300Y-167300D01*
X193400D01*
X196100Y-170000D01*
X203268D01*
G01X143268Y-175000D02*
X153100D01*
X155525Y-172575D01*
X190575D01*
X193000Y-175000D01*
X203268D01*
G01X143268Y-180000D02*
X154900D01*
X157325Y-177575D01*
X188575D01*
X191000Y-180000D01*
X203268D01*
G01X143268Y-185000D02*
X157100D01*
X159525Y-182575D01*
X185575D01*
X188000Y-185000D01*
X203268D01*
G01X143268Y-145000D02*
X157700D01*
X160125Y-147425D01*
X186475D01*
X188900Y-145000D01*
G01X143268Y-150000D02*
X155500D01*
X158200Y-152700D01*
X187300D01*
X190000Y-150000D01*
X203268D01*
G01X143268Y-130000D02*
X153100D01*
G01X143268Y-135000D02*
X153100D01*
G01X143268Y-140000D02*
X158800D01*
X161375Y-142575D01*
X184425D01*
X187000Y-140000D01*
X203268D01*
G01X143268Y-105000D02*
X157100D01*
X159525Y-102575D01*
X185575D01*
X188000Y-105000D01*
X203268D01*
G01X143268Y-90000D02*
X150600D01*
X153300Y-87300D01*
X193400D01*
X196100Y-90000D01*
X203268D01*
G01X143268Y-95000D02*
X153100D01*
X155525Y-92575D01*
X190575D01*
X193000Y-95000D01*
X203268D01*
G01X143268Y-100000D02*
X154900D01*
X157325Y-97575D01*
X188575D01*
X191000Y-100000D01*
X203268D01*
G01X188900Y-65000D02*
X186475Y-67425D01*
X160125D01*
X157700Y-65000D01*
X143268D01*
G01Y-70000D02*
X155500D01*
X158200Y-72700D01*
X187300D01*
X190000Y-70000D01*
X203268D01*
G01X143268Y-50000D02*
X153100D01*
G01X143268Y-55000D02*
X153100D01*
G01X143268Y-60000D02*
X158800D01*
X161375Y-62575D01*
X184425D01*
X187000Y-60000D01*
X203268D01*
G01X169200Y-17600D02*
X157300D01*
X154900Y-20000D01*
X143268D01*
G01X169100Y-22600D02*
X159500D01*
X157100Y-25000D01*
X143268D01*
G01Y-10000D02*
X150600D01*
X153300Y-7300D01*
X163228D01*
G01X143268Y-15000D02*
X153100D01*
X155525Y-12575D01*
X166353D01*
X166378Y-12600D01*
G01X143268Y15000D02*
X157700D01*
X160125Y12575D01*
X186475D01*
X188900Y15000D01*
X203268D01*
G01Y20000D02*
X199300D01*
X196725Y17425D01*
X161375D01*
X158800Y20000D01*
X143268D01*
G01Y10000D02*
X150400D01*
X155900Y4500D01*
X187650D01*
X191575Y575D01*
G01X143268Y30000D02*
X153100D01*
G01X143268Y25000D02*
X153100D01*
G01X150000Y-290600D02*
Y-300000D01*
G01X160000Y-290600D02*
Y-300000D01*
G01X160100Y-284000D02*
Y-286100D01*
X170000Y-296000D01*
Y-300000D01*
G01X176732Y-220000D02*
X166900D01*
G01X176732Y-215000D02*
X166900D01*
G01X176732Y-225000D02*
X167300D01*
G01X176732Y-140000D02*
X166900D01*
G01X176732Y-135000D02*
X166900D01*
G01X176732Y-60000D02*
X166900D01*
G01X176732Y-55000D02*
X166900D01*
G01X203268Y-25000D02*
X188000D01*
X185575Y-22575D01*
X169125D01*
X169100Y-22600D01*
G01X163228Y-7300D02*
X193400D01*
X196100Y-10000D01*
X203268D01*
G01Y-15000D02*
X193000D01*
X190575Y-12575D01*
X166403D01*
X166378Y-12600D01*
G01X203268Y-20000D02*
X191000D01*
X188575Y-17575D01*
X169225D01*
X169200Y-17600D01*
G01X184000Y22400D02*
X183975Y22425D01*
X166275D01*
X163700Y25000D01*
X153100D01*
G01X176732Y20000D02*
X164400D01*
X162200Y22200D01*
G01X186100Y27575D02*
X163125D01*
X160700Y30000D01*
X153100D01*
G01X176732Y25000D02*
X166900D01*
G01X180000Y-290600D02*
Y-300000D01*
G01X190000Y-290600D02*
Y-300000D01*
G01X176732Y-270000D02*
X189100D01*
X191700Y-272600D01*
X217100D01*
X219700Y-270000D01*
X236732D01*
G01Y-265000D02*
X220200D01*
X217775Y-267425D01*
X186525D01*
X184100Y-265000D01*
X176732D01*
G01X236732Y-260000D02*
X218300D01*
X215725Y-262575D01*
X189375D01*
X186800Y-260000D01*
X176732D01*
G01X236732Y-255000D02*
X216500D01*
X214000Y-257500D01*
X191900D01*
X189400Y-255000D01*
X176732D01*
G01X236732Y-250000D02*
X214900D01*
X212400Y-252500D01*
X194300D01*
X191800Y-250000D01*
X176732D01*
G01X236732Y-230000D02*
X217900D01*
X215475Y-227575D01*
X189325D01*
X186900Y-230000D01*
X176732D01*
G01X236732Y-190000D02*
X219700D01*
X217100Y-192600D01*
X186600D01*
X184000Y-190000D01*
X176732D01*
G01X236732Y-185000D02*
X220200D01*
X217775Y-187425D01*
X186525D01*
X184100Y-185000D01*
X176732D01*
G01X236732Y-180000D02*
X218300D01*
X215725Y-182575D01*
X189375D01*
X186800Y-180000D01*
X176732D01*
G01X236732Y-175000D02*
X216500D01*
X214000Y-177500D01*
X191900D01*
X189400Y-175000D01*
X176732D01*
G01X236732Y-170000D02*
X214900D01*
X212400Y-172500D01*
X194300D01*
X191800Y-170000D01*
X176732D01*
G01X236732Y-150000D02*
X217900D01*
X215475Y-147575D01*
X189325D01*
X186900Y-150000D01*
X176732D01*
G01X188900Y-145000D02*
X203268D01*
G01X185100D02*
X176732D01*
G01X236732Y-110000D02*
X219700D01*
X217100Y-112600D01*
X186600D01*
X184000Y-110000D01*
X176732D01*
G01X236732Y-105000D02*
X220200D01*
X217775Y-107425D01*
X186525D01*
X184100Y-105000D01*
X176732D01*
G01X236732Y-100000D02*
X218300D01*
X215725Y-102575D01*
X189375D01*
X186800Y-100000D01*
X176732D01*
G01X236732Y-95000D02*
X216500D01*
X214000Y-97500D01*
X191900D01*
X189400Y-95000D01*
X176732D01*
G01X236732Y-90000D02*
X214900D01*
X212400Y-92500D01*
X194300D01*
X191800Y-90000D01*
X176732D01*
G01X236732Y-70000D02*
X217900D01*
X215475Y-67575D01*
X189325D01*
X186900Y-70000D01*
X176732D01*
G01X203268Y-65000D02*
X188900D01*
G01X195600Y-62500D02*
X188100D01*
X185600Y-65000D01*
X176732D01*
G01X185000Y-31000D02*
X184000Y-30000D01*
X176732D01*
G01X236732D02*
X232400D01*
X229800Y-32600D01*
X186600D01*
X185000Y-31000D01*
G01X186500Y-27400D02*
X184100Y-25000D01*
X176732D01*
G01X236732D02*
X232100D01*
X229675Y-27425D01*
X186525D01*
X186500Y-27400D01*
G01X185500Y-20000D02*
X176732D01*
G01X236732D02*
X230000D01*
X227425Y-22575D01*
X189375D01*
X186800Y-20000D01*
X185500D01*
G01X186000Y-15000D02*
X176732D01*
G01X236732D02*
X228500D01*
X226000Y-17500D01*
X191900D01*
X189400Y-15000D01*
X186000D01*
G01X176732Y-10000D02*
X188400D01*
X188425Y-9975D01*
G01X236732Y-10000D02*
X214900D01*
X212400Y-12500D01*
X194300D01*
X191800Y-10000D01*
X188450D01*
X188425Y-9975D01*
G01X186300Y21000D02*
X185300Y20000D01*
X176732D01*
G01X217944Y10000D02*
X217900D01*
X215475Y12425D01*
X189325D01*
X186900Y10000D01*
X176732D01*
G01X186600Y24900D02*
X186500Y25000D01*
X176732D01*
G01X212400Y-283500D02*
X200000Y-295900D01*
Y-300000D01*
G01X210000Y-290600D02*
Y-300000D01*
G01X203268Y-250000D02*
X210600D01*
X213300Y-247300D01*
X253400D01*
X256100Y-250000D01*
X263268D01*
G01X203268Y-255000D02*
X213100D01*
X215525Y-252575D01*
X250575D01*
X253000Y-255000D01*
X263268D01*
G01X203268Y-260000D02*
X214900D01*
X217325Y-257575D01*
X248575D01*
X251000Y-260000D01*
X263268D01*
G01X203268Y-265000D02*
X217100D01*
X219525Y-262575D01*
X245575D01*
X248000Y-265000D01*
X263268D01*
G01X203268Y-230000D02*
X215500D01*
X218200Y-232700D01*
X247300D01*
X250000Y-230000D01*
X263268D01*
G01X203268Y-210000D02*
X213100D01*
G01X203268Y-215000D02*
X213100D01*
G01X203268Y-225000D02*
X217700D01*
X220125Y-227425D01*
X246475D01*
X248900Y-225000D01*
X263268D01*
G01X193500D02*
X203268D01*
G01Y-220000D02*
X218800D01*
X221375Y-222575D01*
X244425D01*
X247000Y-220000D01*
X263268D01*
G01X203268Y-170000D02*
X210600D01*
X213300Y-167300D01*
X253400D01*
X256100Y-170000D01*
X263268D01*
G01X203268Y-175000D02*
X213100D01*
X215525Y-172575D01*
X250575D01*
X253000Y-175000D01*
X263268D01*
G01X203268Y-180000D02*
X214900D01*
X217325Y-177575D01*
X248575D01*
X251000Y-180000D01*
X263268D01*
G01X203268Y-185000D02*
X217100D01*
X219525Y-182575D01*
X245575D01*
X248000Y-185000D01*
X263268D01*
G01X203268Y-145000D02*
X217700D01*
X220125Y-147425D01*
X246475D01*
X248900Y-145000D01*
G01X203268Y-150000D02*
X215500D01*
X218200Y-152700D01*
X247300D01*
X250000Y-150000D01*
X251600D01*
G01X203268Y-130000D02*
X213100D01*
G01X203268Y-135000D02*
X213100D01*
G01X203268Y-140000D02*
X218800D01*
X221375Y-142575D01*
X244425D01*
X247000Y-140000D01*
X254300D01*
G01X203268Y-105000D02*
X217100D01*
X219525Y-102575D01*
X245575D01*
X248000Y-105000D01*
X263268D01*
G01X203268Y-90000D02*
X210600D01*
X213300Y-87300D01*
X253400D01*
X256100Y-90000D01*
X263268D01*
G01X203268Y-95000D02*
X213100D01*
X215525Y-92575D01*
X250575D01*
X253000Y-95000D01*
X263268D01*
G01X203268Y-100000D02*
X214900D01*
X217325Y-97575D01*
X248575D01*
X251000Y-100000D01*
X263268D01*
G01X203268Y-65000D02*
X217700D01*
X220125Y-67425D01*
X244500D01*
G01X236732Y-65000D02*
X220600D01*
X217900Y-62300D01*
X210800D01*
G01X203268Y-70000D02*
X215500D01*
X218200Y-72700D01*
X247300D01*
X250000Y-70000D01*
X263268D01*
G01X203268Y-50000D02*
X213100D01*
X217200Y-54100D01*
G01X203268Y-55000D02*
X213100D01*
G01X203268Y-60000D02*
X218800D01*
X221375Y-62575D01*
X244425D01*
X247000Y-60000D01*
X263268D01*
G01X203268Y-20000D02*
X226400D01*
X228825Y-17575D01*
X248575D01*
X251000Y-20000D01*
X263268D01*
G01X203268Y-25000D02*
X228400D01*
X230825Y-22575D01*
X245575D01*
X248000Y-25000D01*
X263268D01*
G01X271700Y8500D02*
X267700Y4500D01*
X212300D01*
X210100Y2300D01*
X198900D01*
X197000Y400D01*
X196900D01*
G01X210472Y-528D02*
X214344Y-4400D01*
X263900D01*
X272900Y4600D01*
X300200D01*
X304300Y8700D01*
Y15000D01*
G01X203268Y-10000D02*
X210600D01*
X213300Y-7300D01*
X253400D01*
X256100Y-10000D01*
X263268D01*
G01X203268Y-15000D02*
X224700D01*
X227125Y-12575D01*
X250575D01*
X253000Y-15000D01*
X263268D01*
G01X191575Y575D02*
X193843D01*
X203268Y10000D01*
G01X226900Y20000D02*
X226500Y20400D01*
X212201D01*
X210176Y22425D01*
X196924D01*
X195300Y20801D01*
Y20400D01*
G01X263268Y15000D02*
X248900D01*
X246500Y12600D01*
X242093D01*
X242068Y12575D01*
X222475D01*
X222300Y12400D01*
X219200D01*
X216600Y15000D01*
X203268D01*
G01X218500Y18100D02*
X211500D01*
X209600Y20000D01*
X203268D01*
G01Y10000D02*
X214100D01*
X216800Y7300D01*
X247300D01*
X250000Y10000D01*
X253200D01*
G01X190900Y30000D02*
X203268D01*
G01D02*
X222900D01*
X223400Y29500D01*
G01X193200Y24600D02*
X193600Y25000D01*
X203268D01*
G01D02*
X220400D01*
X220900Y24500D01*
G01X196000Y27500D02*
X224400D01*
X226900Y25000D01*
G01X211700Y33200D02*
X213600Y35100D01*
X251500D01*
X256600Y30000D01*
X263268D01*
G01X220000Y-290600D02*
Y-300000D01*
G01X226900Y-278900D02*
X230000Y-282000D01*
Y-300000D01*
G01X236732Y-215000D02*
X226900D01*
G01X236732Y-220000D02*
X226900D01*
G01X229600Y-144900D02*
X236632D01*
X236732Y-145000D01*
G01Y-135000D02*
X226900D01*
G01X236732Y-140000D02*
X226900D01*
G01X236732Y-60000D02*
X226900D01*
G01X236732Y20000D02*
X226900D01*
G01X217944Y10000D02*
X216772Y11172D01*
G01X217944Y10000D02*
X236732D01*
G01X218500Y18100D02*
X222500D01*
X223175Y17425D01*
X244425D01*
X247000Y20000D01*
X255800D01*
G01X236732Y25000D02*
X226900D01*
G01X263268D02*
X257600D01*
X249400Y33200D01*
X216200D01*
X214750Y31750D01*
G01X286900Y20000D02*
Y20700D01*
X273700Y33900D01*
X258000D01*
X254850Y37050D01*
X218150D01*
G01X240000Y-290600D02*
Y-300000D01*
G01X250000Y-290600D02*
Y-300000D01*
G01X296732Y-270000D02*
X279700D01*
X277100Y-272600D01*
X246600D01*
X244000Y-270000D01*
X236732D01*
G01X296732Y-265000D02*
X280200D01*
X277775Y-267425D01*
X246525D01*
X244100Y-265000D01*
X236732D01*
G01X296732Y-260000D02*
X278300D01*
X275725Y-262575D01*
X249375D01*
X246800Y-260000D01*
X236732D01*
G01X296732Y-255000D02*
X276500D01*
X274000Y-257500D01*
X251900D01*
X249400Y-255000D01*
X236732D01*
G01X296732Y-250000D02*
X274900D01*
X272400Y-252500D01*
X254300D01*
X251800Y-250000D01*
X236732D01*
G01X286000Y-230000D02*
X277900D01*
X275475Y-227575D01*
X249325D01*
X246900Y-230000D01*
X236732D01*
G01X296732Y-225000D02*
X280700D01*
X278275Y-222575D01*
X248125D01*
X245700Y-225000D01*
X244400D01*
G01D02*
X236732D01*
G01X279000Y-192600D02*
X246600D01*
X244000Y-190000D01*
X236732D01*
G01X279675Y-187425D02*
X246525D01*
X244100Y-185000D01*
X236732D01*
G01X280200Y-180000D02*
X278300D01*
X275725Y-182575D01*
X249375D01*
X246800Y-180000D01*
X236732D01*
G01X280100Y-175000D02*
X276500D01*
X274000Y-177500D01*
X251900D01*
X249400Y-175000D01*
X236732D01*
G01X280400Y-170000D02*
X274900D01*
X272400Y-172500D01*
X254300D01*
X251800Y-170000D01*
X236732D01*
G01X281500Y-150000D02*
X277900D01*
X275475Y-147575D01*
X249325D01*
X246900Y-150000D01*
X236732D01*
G01X248900Y-145000D02*
X263268D01*
G01X296732D02*
X280700D01*
X278275Y-142575D01*
X248125D01*
X245700Y-145000D01*
X236732D01*
G01X251600Y-150000D02*
X263268D01*
G01X296732Y-110000D02*
X279700D01*
X277100Y-112600D01*
X246600D01*
X244000Y-110000D01*
X236732D01*
G01X296732Y-105000D02*
X280200D01*
X277775Y-107425D01*
X246525D01*
X244100Y-105000D01*
X236732D01*
G01X296732Y-100000D02*
X278300D01*
X275725Y-102575D01*
X249375D01*
X246800Y-100000D01*
X236732D01*
G01X296732Y-95000D02*
X276500D01*
X274000Y-97500D01*
X251900D01*
X249400Y-95000D01*
X236732D01*
G01X296732Y-90000D02*
X274900D01*
X272400Y-92500D01*
X254300D01*
X251800Y-90000D01*
X236732D01*
G01Y-70000D02*
X246900D01*
X249325Y-67575D01*
X275475D01*
X277900Y-70000D01*
X283700D01*
G01X244500Y-67425D02*
X246475D01*
X248900Y-65000D01*
X263268D01*
G01X296732D02*
X280700D01*
X278275Y-62575D01*
X248125D01*
X245700Y-65000D01*
X236732D01*
G01Y-55000D02*
X244600D01*
G01X277100Y-32600D02*
X246600D01*
X244000Y-30000D01*
X236732D01*
G01X277775Y-27425D02*
X246525D01*
X244100Y-25000D01*
X236732D01*
G01X278300Y-20000D02*
X275725Y-22575D01*
X249375D01*
X246800Y-20000D01*
X236732D01*
G01X278200Y-15000D02*
X276500D01*
X274000Y-17500D01*
X251900D01*
X249400Y-15000D01*
X236732D01*
G01Y-10000D02*
X251800D01*
X254300Y-12500D01*
X272400D01*
X274900Y-10000D01*
X278500D01*
G01X287900Y10000D02*
X277900D01*
X275475Y12425D01*
X249325D01*
X246900Y10000D01*
X236732D01*
G01X296732Y15000D02*
X280700D01*
X278275Y17425D01*
X248125D01*
X245700Y15000D01*
X236732D01*
G01X253200Y10000D02*
X263268D01*
G01X260000Y-290100D02*
Y-300000D01*
G01X270000Y-290600D02*
Y-300000D01*
G01X306600Y-247300D02*
X273300D01*
X270600Y-250000D01*
X263268D01*
G01X306375Y-252575D02*
X275525D01*
X273100Y-255000D01*
X263268D01*
G01X306375Y-257575D02*
X277325D01*
X274900Y-260000D01*
X263268D01*
G01X306300Y-262575D02*
X279525D01*
X277100Y-265000D01*
X263268D01*
G01X273000Y-230000D02*
X263268D01*
G01Y-210000D02*
X273800D01*
X274000Y-210200D01*
G01X263268Y-215000D02*
X269500D01*
X271100Y-213400D01*
G01X270800Y-220000D02*
X263268D01*
G01X284100Y-167000D02*
X273600D01*
X270600Y-170000D01*
X263268D01*
G01X284600Y-172400D02*
X275700D01*
X273100Y-175000D01*
X263268D01*
G01X284300Y-177400D02*
X277500D01*
X274900Y-180000D01*
X263268D01*
G01X284350Y-182650D02*
X279450D01*
X277100Y-185000D01*
X263268D01*
G01Y-130000D02*
X273100D01*
G01X263268Y-135000D02*
X273100D01*
G01X254300Y-140000D02*
X263268D01*
G01X304400Y-102575D02*
X279525D01*
X277100Y-105000D01*
X263268D01*
G01X304700Y-87300D02*
X273300D01*
X270600Y-90000D01*
X263268D01*
G01X304500Y-92575D02*
X275525D01*
X273100Y-95000D01*
X263268D01*
G01X304500Y-97575D02*
X277325D01*
X274900Y-100000D01*
X263268D01*
G01X271300Y-70000D02*
X263268D01*
G01Y-50000D02*
X273100D01*
G01X263268Y-55000D02*
X270900D01*
X271100Y-54800D01*
G01X263268Y-60000D02*
X270560D01*
G01X282400Y-17400D02*
X277000D01*
X274400Y-20000D01*
X263268D01*
G01X282500Y-22700D02*
X278600D01*
X276300Y-25000D01*
X263268D01*
G01X282200Y-7000D02*
X273600D01*
X270600Y-10000D01*
X263268D01*
G01X282300Y-12400D02*
X275500D01*
X272900Y-15000D01*
X263268D01*
G01X271700Y14700D02*
X263568D01*
X263268Y15000D01*
G01X255800Y20000D02*
X263268D01*
G01Y30000D02*
X273100D01*
G01X263268Y25000D02*
X273100D01*
G01X258900Y36900D02*
X259800Y36000D01*
X275900D01*
X286900Y25000D01*
G01X296732Y-230000D02*
X286000D01*
G01X296732Y-220000D02*
X280800D01*
G01X296732Y-215000D02*
X279500D01*
G01X296732Y-190000D02*
X281600D01*
X279000Y-192600D01*
G01X296732Y-185000D02*
X282100D01*
X279675Y-187425D01*
G01X296732Y-180000D02*
X280200D01*
G01X296732Y-175000D02*
X280100D01*
G01X296732Y-170000D02*
X280400D01*
G01X296732Y-150000D02*
X281500D01*
G01X296732Y-140000D02*
X281300D01*
G01X296732Y-135000D02*
X286900D01*
G01X283700Y-70000D02*
X296732D01*
G01Y-60000D02*
X278300D01*
G01X278900Y-49000D02*
X284900Y-55000D01*
X296732D01*
G01Y-30000D02*
X279700D01*
X277100Y-32600D01*
G01X296732Y-25000D02*
X280200D01*
X277775Y-27425D01*
G01X296732Y-20000D02*
X278300D01*
G01X296732Y-15000D02*
X278200D01*
G01X278500Y-10000D02*
X296732D01*
G01Y20000D02*
X286900D01*
G01X296732Y10000D02*
X287900D01*
G01X296732Y25000D02*
X286900D01*
G01X296732Y-270000D02*
X306300D01*
G01X296732Y-265000D02*
X308200D01*
G01X296732Y-260000D02*
X308200D01*
G01X296732Y-255000D02*
X308000D01*
G01X296732Y-250000D02*
X308100D01*
G01X310300Y-225000D02*
X296732D01*
G01X306300Y-145000D02*
X296732D01*
G01Y-110000D02*
X304400D01*
G01X296732Y-105000D02*
X306300D01*
G01X296732Y-100000D02*
X306300D01*
G01X296732Y-95000D02*
X306100D01*
G01X296732Y-90000D02*
X306200D01*
G01X296732Y-65000D02*
X307000D01*
G01X296732Y15000D02*
X304300D01*
G54D13*
X71900Y-280000D03*
X78100D03*
X71900Y-200000D03*
X78100D03*
X71900Y-120000D03*
X78100D03*
X71900Y-40000D03*
X78100D03*
X126900Y-280000D03*
Y-200000D03*
Y-120000D03*
Y-40000D03*
X133100Y-280000D03*
Y-200000D03*
Y-120000D03*
Y-40000D03*
X186900Y-280000D03*
Y-200000D03*
Y-120000D03*
Y-40000D03*
X193100Y-280000D03*
Y-200000D03*
Y-120000D03*
Y-40000D03*
X246900Y-280000D03*
X253100D03*
X246900Y-200000D03*
X253100D03*
X246900Y-120000D03*
X253100D03*
X246900Y-40000D03*
X253100D03*
G54D14*
X83268Y-270000D03*
Y-265000D03*
Y-260000D03*
Y-255000D03*
Y-250000D03*
Y-230000D03*
Y-225000D03*
Y-220000D03*
Y-215000D03*
Y-210000D03*
Y-190000D03*
Y-185000D03*
Y-180000D03*
Y-175000D03*
Y-170000D03*
Y-150000D03*
Y-145000D03*
Y-140000D03*
Y-135000D03*
Y-130000D03*
Y-110000D03*
Y-105000D03*
Y-100000D03*
Y-95000D03*
Y-90000D03*
Y-70000D03*
Y-65000D03*
Y-60000D03*
Y-55000D03*
Y-50000D03*
Y-30000D03*
Y-25000D03*
Y-20000D03*
Y-15000D03*
Y-10000D03*
Y10000D03*
Y15000D03*
Y20000D03*
Y25000D03*
Y30000D03*
X116732Y-270000D03*
Y-250000D03*
Y-255000D03*
Y-260000D03*
Y-265000D03*
Y-230000D03*
Y-210000D03*
Y-215000D03*
Y-220000D03*
Y-225000D03*
Y-185000D03*
Y-190000D03*
Y-170000D03*
Y-175000D03*
Y-180000D03*
Y-145000D03*
Y-150000D03*
Y-130000D03*
Y-135000D03*
Y-140000D03*
Y-105000D03*
Y-110000D03*
Y-90000D03*
Y-95000D03*
Y-100000D03*
Y-60000D03*
Y-65000D03*
Y-70000D03*
Y-50000D03*
Y-55000D03*
Y-20000D03*
Y-25000D03*
Y-30000D03*
Y-10000D03*
Y-15000D03*
Y20000D03*
Y15000D03*
Y10000D03*
Y30000D03*
Y25000D03*
X143268Y-270000D03*
Y-265000D03*
Y-260000D03*
Y-255000D03*
Y-250000D03*
Y-230000D03*
Y-225000D03*
Y-220000D03*
Y-215000D03*
Y-210000D03*
Y-190000D03*
Y-185000D03*
Y-180000D03*
Y-175000D03*
Y-170000D03*
Y-150000D03*
Y-145000D03*
Y-140000D03*
Y-135000D03*
Y-130000D03*
Y-110000D03*
Y-105000D03*
Y-100000D03*
Y-95000D03*
Y-90000D03*
Y-70000D03*
Y-65000D03*
Y-60000D03*
Y-55000D03*
Y-50000D03*
Y-30000D03*
Y-25000D03*
Y-20000D03*
Y-15000D03*
Y-10000D03*
Y10000D03*
Y15000D03*
Y20000D03*
Y25000D03*
Y30000D03*
X176732Y-270000D03*
Y-250000D03*
Y-255000D03*
Y-260000D03*
Y-265000D03*
Y-230000D03*
Y-210000D03*
Y-215000D03*
Y-220000D03*
Y-225000D03*
Y-185000D03*
Y-190000D03*
Y-170000D03*
Y-175000D03*
Y-180000D03*
Y-145000D03*
Y-150000D03*
Y-130000D03*
Y-135000D03*
Y-140000D03*
Y-105000D03*
Y-110000D03*
Y-90000D03*
Y-95000D03*
Y-100000D03*
Y-60000D03*
Y-65000D03*
Y-70000D03*
Y-50000D03*
Y-55000D03*
Y-20000D03*
Y-25000D03*
Y-30000D03*
Y-10000D03*
Y-15000D03*
Y20000D03*
Y15000D03*
Y10000D03*
Y30000D03*
Y25000D03*
X203268Y-270000D03*
Y-265000D03*
Y-260000D03*
Y-255000D03*
Y-250000D03*
Y-230000D03*
Y-225000D03*
Y-220000D03*
Y-215000D03*
Y-210000D03*
Y-190000D03*
Y-185000D03*
Y-180000D03*
Y-175000D03*
Y-170000D03*
Y-150000D03*
Y-145000D03*
Y-140000D03*
Y-135000D03*
Y-130000D03*
Y-110000D03*
Y-105000D03*
Y-100000D03*
Y-95000D03*
Y-90000D03*
Y-70000D03*
Y-65000D03*
Y-60000D03*
Y-55000D03*
Y-50000D03*
Y-30000D03*
Y-25000D03*
Y-20000D03*
Y-15000D03*
Y-10000D03*
Y10000D03*
Y15000D03*
Y20000D03*
Y25000D03*
Y30000D03*
X236732Y-270000D03*
Y-250000D03*
Y-255000D03*
Y-260000D03*
Y-265000D03*
Y-230000D03*
Y-210000D03*
Y-215000D03*
Y-220000D03*
Y-225000D03*
Y-185000D03*
Y-190000D03*
Y-170000D03*
Y-175000D03*
Y-180000D03*
Y-145000D03*
Y-150000D03*
Y-130000D03*
Y-135000D03*
Y-140000D03*
Y-105000D03*
Y-110000D03*
Y-90000D03*
Y-95000D03*
Y-100000D03*
Y-60000D03*
Y-65000D03*
Y-70000D03*
Y-50000D03*
Y-55000D03*
Y-20000D03*
Y-25000D03*
Y-30000D03*
Y-10000D03*
Y-15000D03*
Y20000D03*
Y15000D03*
Y10000D03*
Y30000D03*
Y25000D03*
X263268Y-270000D03*
Y-265000D03*
Y-260000D03*
Y-255000D03*
Y-250000D03*
Y-230000D03*
Y-225000D03*
Y-220000D03*
Y-215000D03*
Y-210000D03*
Y-190000D03*
Y-185000D03*
Y-180000D03*
Y-175000D03*
Y-170000D03*
Y-150000D03*
Y-145000D03*
Y-140000D03*
Y-135000D03*
Y-130000D03*
Y-110000D03*
Y-105000D03*
Y-100000D03*
Y-95000D03*
Y-90000D03*
Y-70000D03*
Y-65000D03*
Y-60000D03*
Y-55000D03*
Y-50000D03*
Y-30000D03*
Y-25000D03*
Y-20000D03*
Y-15000D03*
Y-10000D03*
Y10000D03*
Y15000D03*
Y20000D03*
Y25000D03*
Y30000D03*
X296732Y-270000D03*
Y-250000D03*
Y-255000D03*
Y-260000D03*
Y-265000D03*
Y-230000D03*
Y-210000D03*
Y-215000D03*
Y-220000D03*
Y-225000D03*
Y-185000D03*
Y-190000D03*
Y-170000D03*
Y-175000D03*
Y-180000D03*
Y-145000D03*
Y-150000D03*
Y-130000D03*
Y-135000D03*
Y-140000D03*
Y-105000D03*
Y-110000D03*
Y-90000D03*
Y-95000D03*
Y-100000D03*
Y-60000D03*
Y-65000D03*
Y-70000D03*
Y-50000D03*
Y-55000D03*
Y-20000D03*
Y-25000D03*
Y-30000D03*
Y-10000D03*
Y-15000D03*
Y20000D03*
Y15000D03*
Y10000D03*
Y30000D03*
Y25000D03*
G54D15*
X71900Y-276819D03*
Y-283181D03*
X78100Y-276819D03*
Y-283181D03*
X75636Y-270000D03*
X71900Y-196819D03*
Y-203181D03*
X78100Y-196819D03*
Y-203181D03*
X75636Y-190000D03*
X71900Y-123181D03*
X78100D03*
X71900Y-116819D03*
X78100D03*
X75636Y-110000D03*
X71900Y-43181D03*
X78100D03*
X71900Y-36819D03*
X78100D03*
X75636Y-30000D03*
X105000Y-291700D03*
X91036Y-270000D03*
Y-190000D03*
Y-110000D03*
Y-30000D03*
X126900Y-276819D03*
Y-283181D03*
X109100Y-210000D03*
X124500D03*
X126900Y-196819D03*
Y-203181D03*
Y-123181D03*
X109100Y-130000D03*
X124500D03*
X126900Y-116819D03*
X109100Y-50000D03*
X124500D03*
X126900Y-43181D03*
Y-36819D03*
X109100Y30000D03*
X124500D03*
X133100Y-276819D03*
Y-283181D03*
X135636Y-270000D03*
X133100Y-196819D03*
Y-203181D03*
X135636Y-190000D03*
X133100Y-123181D03*
Y-116819D03*
X135636Y-110000D03*
X133100Y-43181D03*
Y-36819D03*
X135636Y-30000D03*
X145200Y-100D03*
X148400D03*
X151036Y-270000D03*
X169100Y-210000D03*
X151036Y-190000D03*
X169100Y-130000D03*
X151036Y-110000D03*
X169100Y-50000D03*
X151800Y-39400D03*
X155000D03*
X161300Y-39500D03*
X158100D03*
X151036Y-30000D03*
X155100Y-35500D03*
X151900D03*
X158200Y-35600D03*
X161400D03*
X156929Y-5229D03*
X151900Y-100D03*
X156900D03*
X160100D03*
X156902Y7598D03*
X169100Y30000D03*
X186900Y-276819D03*
Y-283181D03*
X184500Y-210000D03*
X186900Y-196819D03*
Y-203181D03*
Y-123181D03*
X184500Y-130000D03*
X186900Y-116819D03*
X184500Y-50000D03*
X186900Y-43181D03*
Y-36819D03*
X184500Y30000D03*
X193100Y-276819D03*
Y-283181D03*
X211036Y-270000D03*
X195636D03*
X193100Y-196819D03*
Y-203181D03*
X211036Y-190000D03*
X195636D03*
X193100Y-123181D03*
Y-116819D03*
X211036Y-110000D03*
X195636D03*
X193100Y-43181D03*
Y-36819D03*
X211036Y-30000D03*
X195636D03*
X229100Y-210000D03*
Y-130000D03*
Y-50000D03*
X228500Y-39800D03*
X225300D03*
X222000D03*
X228500Y-35300D03*
X225300D03*
X222000D03*
X228300Y-30000D03*
X225100D03*
X221800D03*
X227500Y200D03*
X230800D03*
X229100Y30000D03*
X246900Y-276819D03*
Y-283181D03*
X253100Y-276819D03*
Y-283181D03*
X244500Y-210000D03*
X246900Y-196819D03*
Y-203181D03*
X253100Y-196819D03*
Y-203181D03*
X246900Y-123181D03*
X244500Y-130000D03*
X253100Y-123181D03*
X246900Y-116819D03*
X253100D03*
X244500Y-50000D03*
X246900Y-43181D03*
X253100D03*
X246900Y-36819D03*
X253100D03*
X234000Y200D03*
X244500Y30000D03*
X271036Y-270000D03*
X255636D03*
X271036Y-190000D03*
X255636D03*
X271036Y-110000D03*
X255636D03*
X271036Y-30000D03*
X255636D03*
X289100Y-210000D03*
Y-130000D03*
Y-50000D03*
Y30000D03*
X304500Y-210000D03*
Y-130000D03*
Y-50000D03*
Y30000D03*
G54D16*
X90000Y-300000D03*
X105000D03*
X120000D03*
X130000D03*
X150000D03*
X140000D03*
X160000D03*
X170000D03*
X180000D03*
X190000D03*
X200000D03*
X210000D03*
X220000D03*
X230000D03*
X240000D03*
X250000D03*
X260000D03*
X270000D03*
G54D17*
X134488Y0D03*
G54D18*
X245512D03*
G54D19*
G01X60000Y23865D02*
Y35000D01*
G01D02*
Y46135D01*
G01X48865Y35000D02*
X60000D01*
G01D02*
X71135D01*
G01X308865Y-295000D02*
X320000D01*
G01X308865Y35000D02*
X320000D01*
G01Y-306135D02*
Y-295000D01*
G01D02*
Y-283865D01*
G01Y-295000D02*
X331135D01*
G01X320000Y23865D02*
Y35000D01*
G01D02*
Y46135D01*
G01Y35000D02*
X331135D01*
M02*
