G04 ================== begin FILE IDENTIFICATION RECORD ==================*
G04 Layout Name:  F:/PCB_PROJECT/386_Dram_board/PCB/DRAM_BOARD.brd*
G04 Film Name:    BOTTOM*
G04 File Format:  Gerber RS274X*
G04 File Origin:  Cadence Allegro 17.2-S058*
G04 Origin Date:  Fri Dec 31 19:12:04 2021*
G04 *
G04 Layer:  BOARD GEOMETRY/OUTLINE*
G04 Layer:  ETCH/BOTTOM*
G04 Layer:  PIN/BOTTOM*
G04 Layer:  VIA CLASS/BOTTOM*
G04 *
G04 Offset:    (0.00 0.00)*
G04 Mirror:    No*
G04 Mode:      Positive*
G04 Rotation:  0*
G04 FullContactRelief:  No*
G04 UndefLineWidth:     1.00*
G04 ================== end FILE IDENTIFICATION RECORD ====================*
%FSLAX25Y25*MOIN*%
%IR0*IPPOS*OFA0.00000B0.00000*MIA0B0*SFA1.00000B1.00000*%
%AMMACRO14*
4,1,44,-.00984,-.04265,
-.00984,.04265,
-.009746,.043789,
-.009451,.044894,
-.008969,.045931,
-.008313,.046868,
-.007506,.047677,
-.006569,.048334,
-.005533,.048818,
-.004429,.049114,
-.00329,.049215,
-.00328,.04921,
.00328,.04921,
.004419,.049116,
.005524,.048821,
.006561,.048339,
.007498,.047683,
.008307,.046876,
.008964,.045939,
.009448,.044903,
.009744,.043799,
.009845,.04266,
.00984,.04265,
.00984,-.04265,
.009746,-.043789,
.009451,-.044894,
.008969,-.045931,
.008313,-.046868,
.007506,-.047677,
.006569,-.048334,
.005533,-.048818,
.004429,-.049114,
.00329,-.049215,
.00328,-.04921,
-.00328,-.04921,
-.004419,-.049116,
-.005524,-.048821,
-.006561,-.048339,
-.007498,-.047683,
-.008307,-.046876,
-.008964,-.045939,
-.009448,-.044903,
-.009744,-.043799,
-.009845,-.04266,
-.00984,-.04265,
0.0*
%
%ADD14MACRO14*%
%ADD12C,.02362*%
%ADD15C,.05118*%
%ADD11C,.01772*%
%ADD13C,.03937*%
%ADD10C,.20866*%
%ADD16C,.015*%
%ADD17C,.001*%
%ADD18C,.007*%
%ADD19C,.2187*%
G75*
%LPD*%
G75*
G36*
G01X320000Y47999D02*
G02X332999Y35000I0J-12999D01*
G01Y-295000D01*
G02X320000Y-307999I-12999J0D01*
G01X60000D01*
G02X47001Y-295000I0J12999D01*
G01Y35000D01*
G02X60000Y47999I12999J0D01*
G01X320000D01*
G37*
%LPC*%
G75*
G36*
G01X290100Y40200D02*
X323800Y6500D01*
Y-266000D01*
X323700Y-266100D01*
Y-271700D01*
X299500Y-295900D01*
X80400D01*
X57700Y-273200D01*
Y8100D01*
X89800Y40200D01*
X290100D01*
G37*
G54D19*
X60000Y35000D03*
X320000Y-295000D03*
X60000D03*
X320000Y35000D03*
%LPD*%
G75*
G36*
G01X153100Y-27000D02*
Y-31000D01*
X149700Y-34400D01*
Y-40000D01*
X151200Y-41500D01*
X157400D01*
X161100D01*
X163000Y-39600D01*
Y-21100D01*
X157600Y-15700D01*
X154800Y-12900D01*
Y-11900D01*
Y-3300D01*
X156500Y-1600D01*
X160900D01*
X161400Y-1100D01*
Y900D01*
X160500Y1800D01*
X156000D01*
X154800Y3000D01*
Y12200D01*
X153700Y13300D01*
X144900D01*
X143600Y12000D01*
X143300Y11700D01*
Y-17200D01*
X144050Y-17950D01*
X153100Y-27000D01*
G37*
G36*
G01X225300Y12200D02*
Y-12600D01*
X219000Y-18900D01*
Y-39900D01*
X221000Y-41900D01*
X229100D01*
X231200Y-39800D01*
Y-23500D01*
X236600Y-18100D01*
Y11400D01*
X235800Y12200D01*
X225300D01*
G37*
G54D10*
X60000Y-295000D03*
Y35000D03*
X320000Y-295000D03*
Y35000D03*
G54D11*
X48179Y-295000D03*
X49763Y-300910D03*
X54090Y-305237D03*
X60000Y-306821D03*
X47887Y-275000D03*
Y-280000D03*
Y-285000D03*
Y-290000D03*
X58591Y-275343D03*
X62127Y-278879D03*
X60000Y-283179D03*
X54090Y-284763D03*
X49763Y-289090D03*
X63900Y-255000D03*
X47887D03*
Y-265000D03*
X56814Y-255670D03*
Y-265670D03*
X47887Y-235000D03*
Y-245000D03*
X56814Y-235670D03*
Y-245670D03*
X47887Y-215000D03*
Y-225000D03*
X56814Y-215670D03*
Y-225670D03*
X63900Y-197000D03*
X47887Y-195000D03*
Y-205000D03*
X56814Y-195670D03*
Y-205670D03*
X62300Y-175600D03*
X63600Y-185500D03*
X47887Y-165000D03*
Y-175000D03*
Y-185000D03*
X56814Y-165670D03*
Y-175670D03*
Y-185670D03*
X47887Y-145000D03*
Y-155000D03*
X56814Y-145670D03*
Y-155670D03*
X47887Y-125000D03*
Y-135000D03*
X56814Y-125670D03*
Y-135670D03*
X47887Y-105000D03*
Y-115000D03*
X56814Y-105670D03*
Y-115670D03*
X47887Y-85000D03*
Y-95000D03*
X56814Y-85670D03*
Y-95670D03*
X47887Y-65000D03*
Y-70000D03*
Y-75000D03*
X56814Y-60670D03*
Y-65670D03*
Y-70670D03*
Y-75670D03*
X47887Y-40000D03*
Y-45000D03*
Y-50000D03*
Y-55000D03*
Y-60000D03*
X56814Y-40670D03*
Y-45670D03*
Y-50670D03*
Y-55670D03*
X47887Y-20000D03*
Y-25000D03*
Y-30000D03*
Y-35000D03*
X56814Y-20670D03*
Y-25670D03*
Y-30670D03*
Y-35670D03*
X47887Y0D03*
Y-5000D03*
Y-10000D03*
Y-15000D03*
X56814Y-670D03*
Y-5670D03*
Y-10670D03*
Y-15670D03*
X47887Y20000D03*
Y15000D03*
Y10000D03*
Y5000D03*
X64685Y16337D03*
X61149Y12801D03*
X57614Y9266D03*
X56814Y4330D03*
X47887Y30000D03*
Y25000D03*
X49763Y40910D03*
X48179Y35000D03*
X49763Y29090D03*
X54090Y24763D03*
X60000Y23179D03*
Y46821D03*
X54090Y45237D03*
X66110Y-307113D03*
X71110D03*
X76110D03*
X81110D03*
X76269Y-293021D03*
X79804Y-296557D03*
X84799Y-296786D03*
X71821Y-295000D03*
X65910Y-305237D03*
X70237Y-300910D03*
X65662Y-282415D03*
X69198Y-285950D03*
X72733Y-289486D03*
X70237Y-289090D03*
X65910Y-284763D03*
X74400Y-220100D03*
X73300Y-192900D03*
X73200Y-187425D03*
X75400Y-170000D03*
Y-175000D03*
Y-180000D03*
Y-185000D03*
X73200Y-182425D03*
Y-177425D03*
X73425Y-172575D03*
X69800Y-170300D03*
X67500Y-146600D03*
X82300Y-158300D03*
X72100Y-148400D03*
X69700Y-140000D03*
X65200Y-67100D03*
X74500Y-61700D03*
X74900Y-70000D03*
X72600Y12600D03*
X68220Y19872D03*
X82362Y34015D03*
X75291Y26944D03*
X71756Y23408D03*
X71821Y35000D03*
X70237Y40910D03*
X65910Y24763D03*
X70237Y29090D03*
X81699Y47113D03*
X76699D03*
X71699D03*
X66699D03*
X65910Y45237D03*
X86110Y-307113D03*
X96110D03*
X101110D03*
X106110D03*
X94799Y-296786D03*
X99799D03*
X104799D03*
X93100Y-210000D03*
Y-215000D03*
X87000Y-158300D03*
X100200Y-130000D03*
X96400Y-135000D03*
X92500Y-125300D03*
X92600Y-105000D03*
X99500Y-110000D03*
X99700Y-105000D03*
X92900Y-90000D03*
X92700Y-95000D03*
X92500Y-100000D03*
X99400D03*
X99100Y-95000D03*
X98400Y-90000D03*
X93100Y-50000D03*
Y-55000D03*
Y30000D03*
Y25000D03*
X89433Y41086D03*
X85898Y37550D03*
X102108Y41086D03*
X97108D03*
X101699Y47113D03*
X96699D03*
X91699D03*
X86699D03*
X111110Y-307113D03*
X116110D03*
X126110D03*
X109799Y-296786D03*
X114799D03*
X124799D03*
X120000Y-284700D03*
X106900Y-220000D03*
Y-215000D03*
X125700Y-225000D03*
X109900Y-145000D03*
X106900Y-140000D03*
X109300Y-135100D03*
X125700Y-65000D03*
X106900Y-60000D03*
Y-55000D03*
X115300Y600D03*
X106900Y20000D03*
X109500Y15100D03*
X126050Y33650D03*
X106900Y25000D03*
X127108Y41086D03*
X122108D03*
X117108D03*
X112108D03*
X107108D03*
X126699Y47113D03*
X121699D03*
X116699D03*
X111699D03*
X106699D03*
X130000Y-290600D03*
X140000D03*
X136110Y-307113D03*
X146110D03*
X134799Y-296786D03*
X144799D03*
X147108Y41086D03*
X142108D03*
X137108D03*
X132108D03*
X146699Y47113D03*
X141699D03*
X136699D03*
X131699D03*
X150000Y-290600D03*
X160000D03*
X156110Y-307113D03*
X166110D03*
X154799Y-296786D03*
X164799D03*
X160100Y-284000D03*
X168300Y-241800D03*
X153100Y-210000D03*
Y-215000D03*
X166900Y-220000D03*
Y-215000D03*
X167300Y-225000D03*
X153100Y-130000D03*
Y-135000D03*
X166900Y-140000D03*
Y-135000D03*
X153100Y-50000D03*
Y-55000D03*
X166900Y-60000D03*
Y-55000D03*
X169100Y-22600D03*
X163228Y-7300D03*
X166378Y-12600D03*
X162200Y22200D03*
X153100Y30000D03*
Y25000D03*
X166900D03*
X167108Y41086D03*
X162108D03*
X157108D03*
X152108D03*
X166699Y47113D03*
X161699D03*
X156699D03*
X151699D03*
X180000Y-290600D03*
X190000D03*
X176110Y-307113D03*
X186110D03*
X174799Y-296786D03*
X184799D03*
X189800Y-275000D03*
X189200Y-235600D03*
X188900Y-145000D03*
X185100D03*
X188900Y-65000D03*
X185000Y-31000D03*
X186500Y-27400D03*
X185500Y-20000D03*
X169200Y-17600D03*
X186000Y-15000D03*
X188425Y-9975D03*
X184000Y22400D03*
X186300Y21000D03*
X170100Y37000D03*
X176600Y34100D03*
X179800Y35600D03*
X186100Y27575D03*
X186600Y24900D03*
X187108Y41086D03*
X182108D03*
X177108D03*
X172108D03*
X186699Y47113D03*
X181699D03*
X176699D03*
X171699D03*
X210000Y-290600D03*
X196110Y-307113D03*
X206110D03*
X194799Y-296786D03*
X204799D03*
X193500Y-225000D03*
X210800Y-62300D03*
X195600Y-62500D03*
X196900Y400D03*
X207323Y-1723D03*
X210472Y-528D03*
X191575Y575D03*
X195300Y20400D03*
X190900Y30000D03*
X193200Y24600D03*
X196000Y27500D03*
X207108Y41086D03*
X202108D03*
X197108D03*
X192108D03*
X206699Y47113D03*
X201699D03*
X196699D03*
X191699D03*
X220000Y-290600D03*
X216110Y-307113D03*
X226110D03*
X214799Y-296786D03*
X224799D03*
X212400Y-283500D03*
X226900Y-278900D03*
X213100Y-210000D03*
Y-215000D03*
X226900D03*
Y-220000D03*
X229600Y-144900D03*
X213100Y-130000D03*
Y-135000D03*
X226900D03*
Y-140000D03*
X217200Y-54100D03*
X213100Y-55000D03*
X226900Y-60000D03*
Y20000D03*
X218500Y18100D03*
X223400Y29500D03*
X220900Y24500D03*
X226900Y25000D03*
X211700Y33200D03*
X214750Y31750D03*
X218150Y37050D03*
X227108Y41086D03*
X222108D03*
X217108D03*
X212108D03*
X231699Y47113D03*
X226699D03*
X221699D03*
X216699D03*
X211699D03*
X240000Y-290600D03*
X250000D03*
X236110Y-307113D03*
X246110D03*
X234799Y-296786D03*
X244799D03*
X234300Y-238400D03*
X239300Y-239500D03*
X244400Y-225000D03*
X248900Y-145000D03*
X251600Y-150000D03*
X244500Y-67425D03*
X244600Y-55000D03*
X252108Y41086D03*
X247108D03*
X242108D03*
X237108D03*
X232108D03*
X251699Y47113D03*
X246699D03*
X241699D03*
X236699D03*
X270000Y-290600D03*
X256110Y-307113D03*
X266110D03*
X254799Y-296786D03*
X264799D03*
X260000Y-290100D03*
X273000Y-230000D03*
X271100Y-213400D03*
X270800Y-220000D03*
X273100Y-130000D03*
Y-135000D03*
X254300Y-140000D03*
X271300Y-70000D03*
X273100Y-50000D03*
X271100Y-54800D03*
X270560Y-60000D03*
X271700Y8500D03*
Y14700D03*
X255800Y20000D03*
X253200Y10000D03*
X273100Y30000D03*
Y25000D03*
X258900Y36900D03*
X272108Y41086D03*
X267108D03*
X262108D03*
X257108D03*
X271699Y47113D03*
X266699D03*
X261699D03*
X256699D03*
X276110Y-307113D03*
X281110D03*
X286110D03*
X291110D03*
X274799Y-296786D03*
X279799D03*
X284799D03*
X289799D03*
X274000Y-210200D03*
X280800Y-220000D03*
X279500Y-215000D03*
X279000Y-192600D03*
X279675Y-187425D03*
X284100Y-167000D03*
X284600Y-172400D03*
X284300Y-177400D03*
X284350Y-182650D03*
X280200Y-180000D03*
X280100Y-175000D03*
X280400Y-170000D03*
X281300Y-140000D03*
X286900Y-135000D03*
X278300Y-60000D03*
X278900Y-49000D03*
X282500Y-22700D03*
X277100Y-32600D03*
X277775Y-27425D03*
X278300Y-20000D03*
X282200Y-7000D03*
X282300Y-12400D03*
X282400Y-17400D03*
X278200Y-15000D03*
X278500Y-10000D03*
X286900Y20000D03*
Y25000D03*
X291899Y39653D03*
X287108Y41086D03*
X282108D03*
X277108D03*
X291699Y47113D03*
X286699D03*
X281699D03*
X276699D03*
X296110Y-307113D03*
X301110D03*
X306110D03*
X311110D03*
X294799Y-296786D03*
X299799D03*
X303368Y-293284D03*
X308179Y-295000D03*
X309763Y-300910D03*
X314090Y-305237D03*
X306300Y-270000D03*
X306903Y-289749D03*
X310439Y-286213D03*
X313974Y-282678D03*
X314090Y-284763D03*
X309763Y-289090D03*
X306375Y-252575D03*
Y-257575D03*
X306300Y-262575D03*
X308200Y-265000D03*
Y-260000D03*
X308000Y-255000D03*
X308100Y-250000D03*
X306600Y-247300D03*
X310300Y-225000D03*
X306300Y-145000D03*
X304400Y-102575D03*
Y-110000D03*
X306300Y-105000D03*
X304700Y-87300D03*
X304500Y-92575D03*
Y-97575D03*
X306300Y-100000D03*
X306100Y-95000D03*
X306200Y-90000D03*
X307000Y-65000D03*
X304300Y15000D03*
X313112Y18440D03*
X309576Y21976D03*
X306041Y25511D03*
X302505Y29047D03*
X298970Y32582D03*
X295434Y36118D03*
X309763Y40910D03*
X308179Y35000D03*
X309763Y29090D03*
X314090Y24763D03*
X311699Y47113D03*
X306699D03*
X301699D03*
X296699D03*
X314090Y45237D03*
X316110Y-307113D03*
X332113Y-292793D03*
X331821Y-295000D03*
X320000Y-306821D03*
X325910Y-305237D03*
X330237Y-300910D03*
X332113Y-287793D03*
Y-282793D03*
Y-277793D03*
Y-272793D03*
X317510Y-279142D03*
X321045Y-275607D03*
X324581Y-272071D03*
X330237Y-289090D03*
X325910Y-284763D03*
X320000Y-283179D03*
X332113Y-267793D03*
Y-262793D03*
Y-257793D03*
Y-252793D03*
X324586Y-267071D03*
X324686Y-262072D03*
Y-257072D03*
Y-252072D03*
X332113Y-247793D03*
Y-242793D03*
Y-237793D03*
Y-232793D03*
Y-227793D03*
X324686Y-247072D03*
Y-242072D03*
Y-237072D03*
Y-232072D03*
X332113Y-222793D03*
Y-217793D03*
Y-212793D03*
Y-207793D03*
X324686Y-227072D03*
Y-222072D03*
Y-217072D03*
Y-212072D03*
Y-207072D03*
X332113Y-202793D03*
Y-197793D03*
Y-192793D03*
Y-187793D03*
X324686Y-202072D03*
Y-197072D03*
Y-192072D03*
Y-187072D03*
X332113Y-182793D03*
Y-177793D03*
Y-172793D03*
Y-167793D03*
X324686Y-182072D03*
Y-177072D03*
Y-172072D03*
Y-167072D03*
X332113Y-162793D03*
Y-157793D03*
Y-152793D03*
Y-147793D03*
X324686Y-162072D03*
Y-157072D03*
Y-152072D03*
Y-147072D03*
X332113Y-142793D03*
Y-137793D03*
Y-132793D03*
Y-127793D03*
X324686Y-142072D03*
Y-137072D03*
Y-132072D03*
Y-127072D03*
X332113Y-122793D03*
Y-117793D03*
Y-112793D03*
Y-107793D03*
Y-102793D03*
X324686Y-122072D03*
Y-117072D03*
Y-112072D03*
Y-107072D03*
X332113Y-97793D03*
Y-92793D03*
Y-87793D03*
Y-82793D03*
X324686Y-102072D03*
Y-97072D03*
Y-92072D03*
Y-87072D03*
Y-82072D03*
X332113Y-77793D03*
Y-72793D03*
Y-67793D03*
Y-62793D03*
X324686Y-77072D03*
Y-72072D03*
Y-67072D03*
Y-62072D03*
X332113Y-57793D03*
Y-52793D03*
Y-47793D03*
Y-42793D03*
X324686Y-57072D03*
Y-52072D03*
Y-47072D03*
Y-42072D03*
X332113Y-37793D03*
Y-32793D03*
Y-27793D03*
Y-22793D03*
X324686Y-37072D03*
Y-32072D03*
Y-27072D03*
Y-22072D03*
X332113Y-17793D03*
Y-12793D03*
Y-7793D03*
Y-2793D03*
X324686Y-17072D03*
Y-12072D03*
Y-7072D03*
Y-2072D03*
X332113Y2207D03*
Y7207D03*
Y12207D03*
Y17207D03*
Y22207D03*
X324686Y2928D03*
X323719Y7833D03*
X320183Y11369D03*
X316647Y14905D03*
X332113Y27207D03*
Y32207D03*
X331821Y35000D03*
X330237Y40910D03*
X320000Y23179D03*
X325910Y24763D03*
X330237Y29090D03*
X316699Y47113D03*
X325910Y45237D03*
X320000Y46821D03*
G54D12*
X71900Y-276819D03*
Y-283181D03*
X78100Y-276819D03*
Y-283181D03*
X75636Y-270000D03*
X71900Y-196819D03*
Y-203181D03*
X78100Y-196819D03*
Y-203181D03*
X75636Y-190000D03*
X71900Y-123181D03*
X78100D03*
X71900Y-116819D03*
X78100D03*
X75636Y-110000D03*
X71900Y-43181D03*
X78100D03*
X71900Y-36819D03*
X78100D03*
X75636Y-30000D03*
X105000Y-291700D03*
X91036Y-270000D03*
Y-190000D03*
Y-110000D03*
Y-30000D03*
X126900Y-276819D03*
Y-283181D03*
X125700Y-230000D03*
X109100Y-210000D03*
X124500D03*
X126900Y-196819D03*
Y-203181D03*
X109764Y-150000D03*
X126900Y-123181D03*
X109100Y-130000D03*
X124500D03*
X126900Y-116819D03*
X123700Y-70000D03*
X109100Y-50000D03*
X124500D03*
X126900Y-43181D03*
Y-36819D03*
X123700Y10000D03*
X109100Y30000D03*
X124500D03*
X133100Y-276819D03*
Y-283181D03*
X135636Y-270000D03*
X133100Y-196819D03*
Y-203181D03*
X135636Y-190000D03*
X133100Y-123181D03*
Y-116819D03*
X135636Y-110000D03*
X133100Y-43181D03*
Y-36819D03*
X135636Y-30000D03*
X145200Y-100D03*
X148400D03*
X151036Y-270000D03*
X165700Y-230000D03*
X169100Y-210000D03*
X151036Y-190000D03*
X169100Y-130000D03*
X151036Y-110000D03*
X169100Y-50000D03*
X151800Y-39400D03*
X155000D03*
X161300Y-39500D03*
X158100D03*
X151036Y-30000D03*
X155100Y-35500D03*
X151900D03*
X158200Y-35600D03*
X161400D03*
X156929Y-5229D03*
X151900Y-100D03*
X156900D03*
X160100D03*
X156902Y7598D03*
X169100Y30000D03*
X186900Y-276819D03*
Y-283181D03*
X184500Y-210000D03*
X186900Y-196819D03*
Y-203181D03*
X183700Y-150000D03*
X186900Y-123181D03*
X184500Y-130000D03*
X186900Y-116819D03*
X183700Y-70000D03*
X184500Y-50000D03*
X186900Y-43181D03*
Y-36819D03*
X184500Y30000D03*
X193100Y-276819D03*
Y-283181D03*
X211036Y-270000D03*
X195636D03*
X193100Y-196819D03*
Y-203181D03*
X211036Y-190000D03*
X195636D03*
X193100Y-123181D03*
Y-116819D03*
X211036Y-110000D03*
X195636D03*
X193100Y-43181D03*
Y-36819D03*
X211036Y-30000D03*
X195636D03*
X229100Y-210000D03*
Y-130000D03*
Y-50000D03*
X228500Y-39800D03*
X225300D03*
X222000D03*
X228500Y-35300D03*
X225300D03*
X222000D03*
X228300Y-30000D03*
X225100D03*
X221800D03*
X227500Y200D03*
X230800D03*
X229100Y30000D03*
X246900Y-276819D03*
Y-283181D03*
X243700Y-230000D03*
X244500Y-210000D03*
X246900Y-196819D03*
Y-203181D03*
X243700Y-150000D03*
X246900Y-123181D03*
X244500Y-130000D03*
X246900Y-116819D03*
X243700Y-70000D03*
X244500Y-50000D03*
X246900Y-43181D03*
Y-36819D03*
X234000Y200D03*
X243700Y10000D03*
X244500Y30000D03*
X253100Y-276819D03*
Y-283181D03*
X271036Y-270000D03*
X255636D03*
X253100Y-196819D03*
Y-203181D03*
X271036Y-190000D03*
X255636D03*
X253100Y-123181D03*
Y-116819D03*
X271036Y-110000D03*
X255636D03*
X253100Y-43181D03*
Y-36819D03*
X271036Y-30000D03*
X255636D03*
X286469Y-230000D03*
X289100Y-210000D03*
X289764Y-150000D03*
X289100Y-130000D03*
X283800Y-70000D03*
X289100Y-50000D03*
X289764Y10000D03*
X289100Y30000D03*
X304500Y-210000D03*
Y-130000D03*
Y-50000D03*
Y30000D03*
G54D13*
X134488Y0D03*
G54D14*
X147480Y-7598D03*
X144331D03*
X147480Y7598D03*
X144331D03*
X166378Y-7598D03*
X163228D03*
X160079D03*
X156929D03*
X153780D03*
X150630D03*
X166378Y7598D03*
X163228D03*
X160079D03*
X156929D03*
X153780D03*
X150630D03*
X188425Y-7598D03*
X185276D03*
X182126D03*
X178976D03*
X175827D03*
X172677D03*
X169528D03*
X188425Y7598D03*
X185276D03*
X182126D03*
X178976D03*
X175827D03*
X172677D03*
X169528D03*
X210472Y-7598D03*
X207323D03*
X204173D03*
X201024D03*
X197874D03*
X194724D03*
X191575D03*
X210472Y7598D03*
X207323D03*
X204173D03*
X201024D03*
X197874D03*
X194724D03*
X191575D03*
X229370Y-7598D03*
X226220D03*
X223071D03*
X219921D03*
X216772D03*
X213622D03*
X229370Y7598D03*
X226220D03*
X223071D03*
X219921D03*
X216772D03*
X213622D03*
X235669Y-7598D03*
X232520D03*
X235669Y7598D03*
X232520D03*
G54D15*
X245512Y0D03*
G54D16*
G01X60000Y-306135D02*
Y-295000D01*
G01D02*
Y-283865D01*
G01X48865Y-295000D02*
X60000D01*
G01D02*
X71135D01*
G01X60000Y23865D02*
Y35000D01*
G01D02*
Y46135D01*
G01X48865Y35000D02*
X60000D01*
G01D02*
X71135D01*
G01X156929Y-7598D02*
Y-5229D01*
G01Y7598D02*
X156902D01*
G01X308865Y-295000D02*
X320000D01*
G01X308865Y35000D02*
X320000D01*
G01Y-306135D02*
Y-295000D01*
G01D02*
Y-283865D01*
G01Y-295000D02*
X331135D01*
G01X320000Y23865D02*
Y35000D01*
G01D02*
Y46135D01*
G01Y35000D02*
X331135D01*
G54D17*
G01X60000Y50000D02*
X320000D01*
G02X335000Y35000I0J-15000D01*
G01Y-295000D01*
G02X320000Y-310000I-15000J0D01*
G01X60000D01*
G02X45000Y-295000I0J15000D01*
G01Y35000D01*
G02X60000Y50000I15000J0D01*
G54D18*
G01X63900Y-255000D02*
Y-230600D01*
X74400Y-220100D01*
G01X67500Y-146600D02*
Y-193400D01*
X63900Y-197000D01*
G01X62300Y-175600D02*
Y700D01*
X72600Y11000D01*
Y12600D01*
G01X65200Y-67100D02*
Y-183900D01*
X63600Y-185500D01*
G01X73300Y-192900D02*
X91200D01*
X94664Y-189436D01*
Y-116936D01*
X99500Y-112100D01*
Y-110000D01*
G01X73200Y-187425D02*
X85675D01*
X91600Y-181500D01*
Y-134900D01*
X92500Y-134000D01*
Y-125300D01*
G01X92900Y-90000D02*
X85600D01*
X77667Y-97933D01*
Y-112433D01*
X75400Y-114700D01*
Y-170000D01*
G01Y-175000D02*
X80000Y-170400D01*
Y-131900D01*
X82500Y-129400D01*
Y-100101D01*
X87601Y-95000D01*
X92700D01*
G01X75400Y-180000D02*
X79400D01*
X84600Y-174800D01*
Y-133100D01*
X86500Y-131200D01*
Y-103600D01*
X90100Y-100000D01*
X92500D01*
G01X92600Y-105000D02*
X93828Y-106228D01*
Y-110572D01*
X90400Y-114000D01*
Y-133000D01*
X89300Y-134100D01*
Y-178700D01*
X82900Y-185100D01*
X77236D01*
X77136Y-185000D01*
X75400D01*
G01X87000Y-158300D02*
Y-176500D01*
X81075Y-182425D01*
X73200D01*
G01Y-177425D02*
X76975D01*
X82300Y-172100D01*
Y-158300D01*
G01X73425Y-172575D02*
X75281D01*
X77900Y-169956D01*
Y-131100D01*
X80400Y-128600D01*
Y-99036D01*
X86936Y-92500D01*
X95900D01*
X98400Y-90000D01*
G01X69800Y-170300D02*
Y-154300D01*
X72100Y-152000D01*
Y-148400D01*
G01X82300Y-158300D02*
Y-132500D01*
X84400Y-130400D01*
Y-102000D01*
X88800Y-97600D01*
X96500D01*
X99100Y-95000D01*
G01X72100Y-148400D02*
Y-131800D01*
X69869Y-129569D01*
Y-115977D01*
X71800Y-114046D01*
X72000D01*
Y-72900D01*
X74900Y-70000D01*
G01X69700Y-140000D02*
X67500Y-137800D01*
Y-68700D01*
X74500Y-61700D01*
G01X120000Y-284700D02*
Y-237800D01*
X93100Y-210900D01*
Y-210000D01*
G01X100200Y-130000D02*
Y-202900D01*
X93100Y-210000D01*
G01Y-215000D02*
X113700Y-235600D01*
Y-287900D01*
X116400Y-290600D01*
X130000D01*
G01X96400Y-135000D02*
X97200Y-135800D01*
Y-200100D01*
X90300Y-207000D01*
Y-212200D01*
X93100Y-215000D01*
G01X106900Y-220000D02*
X102700Y-215800D01*
Y-144200D01*
X106900Y-140000D01*
G01X109300Y-135100D02*
Y-142200D01*
X105500Y-146000D01*
Y-213600D01*
X106900Y-215000D01*
G01X99400Y-100000D02*
X96900Y-102500D01*
X92200D01*
X88600Y-106100D01*
Y-131700D01*
X87000Y-133300D01*
Y-158300D01*
G01X100200Y-130000D02*
Y-123100D01*
X106700Y-116600D01*
Y-63600D01*
X93100Y-50000D01*
G01X96400Y-135000D02*
X97200Y-134200D01*
Y-120100D01*
X103200Y-114100D01*
Y-65100D01*
X93100Y-55000D01*
G01X92500Y-125300D02*
Y-115400D01*
X96100Y-111800D01*
Y-108600D01*
X99700Y-105000D01*
G01X93100Y30000D02*
X97200Y25900D01*
Y-45900D01*
X93100Y-50000D01*
G01Y25000D02*
X94328Y23772D01*
Y-42972D01*
X90300Y-47000D01*
Y-52200D01*
X93100Y-55000D01*
G01X106900Y-60000D02*
X102200Y-55300D01*
Y15300D01*
X106900Y20000D01*
G01Y-55000D02*
X105500Y-53600D01*
Y14000D01*
X109300Y17800D01*
Y22600D01*
X106900Y25000D01*
G01Y-220000D02*
X140000Y-253100D01*
Y-290600D01*
G01X106900Y-215000D02*
X145600Y-253700D01*
Y-275100D01*
X150000Y-279500D01*
Y-290600D01*
G01X125700Y-65000D02*
X126600Y-65900D01*
Y-107700D01*
X122469Y-111831D01*
Y-130842D01*
X124100Y-132473D01*
Y-207527D01*
X122469Y-209158D01*
Y-221769D01*
X125700Y-225000D01*
G01X115300Y600D02*
Y-139600D01*
X109900Y-145000D01*
G01X106900Y-60000D02*
X109200Y-62300D01*
Y-125800D01*
X106900Y-128100D01*
Y-140000D01*
G01Y-55000D02*
X111900Y-60000D01*
Y-132500D01*
X109300Y-135100D01*
G01X109500Y15100D02*
X115300Y9300D01*
Y600D01*
G01X163228Y7598D02*
Y13928D01*
X171400Y22100D01*
Y31400D01*
X169150Y33650D01*
X126050D01*
G01X153100Y30000D02*
X157200Y25900D01*
Y23000D01*
X155450Y21250D01*
X134350D01*
X131369Y18269D01*
Y-20069D01*
X140200Y-28900D01*
Y-48800D01*
X141400Y-50000D01*
X153100D01*
G01Y-55000D02*
X142200D01*
X137400Y-50200D01*
Y-35800D01*
X128400Y-26800D01*
Y21700D01*
X131700Y25000D01*
X153100D01*
G01X166900Y-60000D02*
X153750Y-46850D01*
X144750D01*
X143100Y-45200D01*
Y-28100D01*
X139200Y-24200D01*
Y12600D01*
X145100Y18500D01*
X158500D01*
X162200Y22200D01*
G01X166900Y25000D02*
Y24000D01*
X158800Y15900D01*
X145600D01*
X141500Y11800D01*
Y-22100D01*
X146100Y-26700D01*
Y-42600D01*
X148200Y-44700D01*
X156600D01*
X166900Y-55000D01*
G01X153100Y-210000D02*
X163000Y-219900D01*
Y-287900D01*
X160300Y-290600D01*
X160000D01*
G01X160100Y-284000D02*
Y-221400D01*
X153700Y-215000D01*
X153100D01*
G01X168300Y-241800D02*
X168200Y-241700D01*
Y-225900D01*
X167300Y-225000D01*
G01X153100Y-130000D02*
X157200Y-134100D01*
Y-205900D01*
X153100Y-210000D01*
G01Y-135000D02*
X154328Y-136228D01*
Y-202972D01*
X150300Y-207000D01*
Y-212200D01*
X153100Y-215000D01*
G01X166900Y-220000D02*
X162200Y-215300D01*
Y-144700D01*
X166900Y-140000D01*
G01X180000Y-290600D02*
Y-233100D01*
X166900Y-220000D01*
G01Y-215000D02*
X165500Y-213600D01*
Y-146000D01*
X169300Y-142200D01*
Y-137400D01*
X166900Y-135000D01*
G01Y-215000D02*
X184000Y-232100D01*
Y-287200D01*
X187400Y-290600D01*
X190000D01*
G01X189800Y-275000D02*
X186100Y-271300D01*
Y-227700D01*
X171200Y-212800D01*
Y-206200D01*
X168100Y-203100D01*
Y-147400D01*
X171500Y-144000D01*
Y-33000D01*
X165600Y-27100D01*
Y-18191D01*
X160079Y-12670D01*
Y-7598D01*
G01X153100Y-50000D02*
X157200Y-54100D01*
Y-125900D01*
X153100Y-130000D01*
G01Y-55000D02*
X154328Y-56228D01*
Y-122972D01*
X150300Y-127000D01*
Y-132200D01*
X153100Y-135000D01*
G01X166900Y-140000D02*
X162200Y-135300D01*
Y-64700D01*
X166900Y-60000D01*
G01Y-135000D02*
X165500Y-133600D01*
Y-66000D01*
X169300Y-62200D01*
Y-57400D01*
X166900Y-55000D01*
G01X163228Y-7598D02*
Y-7300D01*
G01X166378Y-7598D02*
Y-12600D01*
G01Y7598D02*
Y13578D01*
X173700Y20900D01*
Y33600D01*
X170300Y37000D01*
X170100D01*
G01X185100Y-145000D02*
X174100Y-156000D01*
Y-211699D01*
X189200Y-226799D01*
Y-235600D01*
G01X201024Y-7598D02*
Y-44176D01*
X191100Y-54100D01*
Y-110700D01*
X190100Y-111700D01*
Y-143800D01*
X188900Y-145000D01*
G01X197874Y-7598D02*
Y-44326D01*
X188900Y-53300D01*
Y-65000D01*
G01X172677Y-7598D02*
Y-19023D01*
X169100Y-22600D01*
G01X175827Y-7598D02*
Y-21827D01*
X185000Y-31000D01*
G01X178976Y-7598D02*
Y-22276D01*
X181600Y-24900D01*
X184000D01*
X186500Y-27400D01*
G01X182126Y-7598D02*
Y-18726D01*
X183400Y-20000D01*
X185500D01*
G01X169528Y-7598D02*
Y-17272D01*
X169200Y-17600D01*
G01X185276Y-7598D02*
Y-14276D01*
X186000Y-15000D01*
G01X188425Y-7598D02*
Y-9975D01*
G01X169528Y7598D02*
Y12728D01*
X175200Y18400D01*
Y32700D01*
X176600Y34100D01*
G01X172677Y7598D02*
Y12177D01*
X177800Y17300D01*
Y32500D01*
X179800Y34500D01*
Y35600D01*
G01X175827Y7598D02*
Y12027D01*
X179900Y16100D01*
Y22900D01*
X184575Y27575D01*
X186100D01*
G01X178976Y7598D02*
Y11876D01*
X182400Y15300D01*
Y20800D01*
X184000Y22400D01*
G01X182126Y7598D02*
Y12426D01*
X184300Y14600D01*
Y19000D01*
X186300Y21000D01*
G01X185276Y7598D02*
Y13176D01*
X188400Y16300D01*
Y23100D01*
X186600Y24900D01*
G01X188425Y7598D02*
Y12025D01*
X190000Y13600D01*
Y29100D01*
X190900Y30000D01*
G01X213100Y-215000D02*
X214000Y-215900D01*
Y-271500D01*
X210000Y-275500D01*
Y-290600D01*
G01X213100Y-135000D02*
X214328Y-136228D01*
Y-202972D01*
X210300Y-207000D01*
Y-212200D01*
X213100Y-215000D01*
G01X204173Y-7598D02*
Y-44127D01*
X193400Y-54900D01*
Y-104900D01*
X196469Y-107969D01*
X196478D01*
X197900Y-109391D01*
Y-220600D01*
X193500Y-225000D01*
G01X213100Y-55000D02*
X214328Y-56228D01*
Y-122972D01*
X210300Y-127000D01*
Y-132200D01*
X213100Y-135000D01*
G01X216772Y-7598D02*
Y-36728D01*
X208300Y-45200D01*
Y-59800D01*
X210800Y-62300D01*
G01X213622Y-7598D02*
Y-36978D01*
X195600Y-55000D01*
Y-62500D01*
G01X194724Y-7598D02*
Y-1776D01*
X196900Y400D01*
G01X207323Y-7598D02*
Y-1723D01*
G01X191575Y-7598D02*
Y575D01*
G01Y7598D02*
Y22975D01*
X193200Y24600D01*
G01X194724Y7598D02*
Y15576D01*
X193564Y16736D01*
Y22164D01*
X196000Y24600D01*
Y27500D01*
G01X197874Y7598D02*
Y17826D01*
X195300Y20400D01*
G01X201024Y7598D02*
Y22524D01*
X211700Y33200D01*
G01X204173Y7598D02*
Y21173D01*
X214750Y31750D01*
G01X207323Y7598D02*
Y19623D01*
X218150Y30450D01*
Y37050D01*
G01X210472Y7598D02*
Y17372D01*
X220800Y27700D01*
Y32100D01*
X225600Y36900D01*
X258900D01*
G01X213100Y-210000D02*
X216800Y-213700D01*
Y-273000D01*
X212400Y-277400D01*
Y-283500D01*
G01X220000Y-290600D02*
X230300Y-280300D01*
Y-218400D01*
X226900Y-215000D01*
G01Y-278900D02*
Y-220000D01*
G01X213100Y-130000D02*
X217200Y-134100D01*
Y-205900D01*
X213100Y-210000D01*
G01X226900Y-215000D02*
X225500Y-213600D01*
Y-146000D01*
X229300Y-142200D01*
Y-137400D01*
X226900Y-135000D01*
G01Y-220000D02*
X222200Y-215300D01*
Y-144700D01*
X226900Y-140000D01*
G01X229600Y-144900D02*
X228500Y-146000D01*
Y-203800D01*
X234300Y-209600D01*
Y-238400D01*
G01X213100Y-130000D02*
X217200Y-125900D01*
Y-54100D01*
G01X244600Y-55000D02*
X236500D01*
X225500Y-66000D01*
Y-133600D01*
X226900Y-135000D01*
G01Y-140000D02*
X222200Y-135300D01*
Y-64700D01*
X226900Y-60000D01*
G01X217200Y-54100D02*
X224400Y-46900D01*
X231100D01*
X235350Y-42650D01*
Y-27750D01*
X239600Y-23500D01*
Y2400D01*
X240500Y3300D01*
Y14400D01*
X237650Y17250D01*
X226550D01*
X223400Y20400D01*
Y29500D01*
G01X213100Y-55000D02*
X223600Y-44500D01*
X229700D01*
X233500Y-40700D01*
Y-23800D01*
X237800Y-19500D01*
Y12200D01*
X235500Y14500D01*
X225900D01*
X220900Y19500D01*
Y24500D01*
G01X226900Y-60000D02*
X238100Y-48800D01*
Y-36800D01*
X241600Y-33300D01*
Y1334D01*
X248400Y8134D01*
Y14400D01*
X242800Y20000D01*
X226900D01*
G01X210472Y-7598D02*
Y-528D01*
G01X226900Y25000D02*
X229500Y22400D01*
X245000D01*
X250300Y17100D01*
Y-27900D01*
X241800Y-36400D01*
Y-52200D01*
X244600Y-55000D01*
G01X213622Y7598D02*
Y13222D01*
X218500Y18100D01*
G01X274000Y-210200D02*
Y-216700D01*
X278300Y-221000D01*
Y-267400D01*
X253000Y-292700D01*
X242800D01*
X240700Y-290600D01*
X240000D01*
G01X250000D02*
X250200D01*
X267800Y-273000D01*
Y-270200D01*
X276100Y-261900D01*
Y-222200D01*
X271100Y-217200D01*
Y-213400D01*
G01X239300Y-239500D02*
Y-230100D01*
X244400Y-225000D01*
G01X273000Y-230000D02*
X257900Y-214900D01*
Y-195900D01*
X251600Y-189600D01*
Y-150000D01*
G01X280800Y-220000D02*
Y-269300D01*
X260000Y-290100D01*
G01X279500Y-215000D02*
X283800Y-219300D01*
Y-276800D01*
X270000Y-290600D01*
G01X271100Y-213400D02*
Y-201600D01*
X266300Y-196800D01*
Y-141800D01*
X273100Y-135000D01*
G01X270800Y-220000D02*
X262600Y-211800D01*
Y-192400D01*
X254300Y-184100D01*
Y-140000D01*
G01X274000Y-210200D02*
Y-201300D01*
X269000Y-196300D01*
Y-143700D01*
X276100Y-136600D01*
Y-133000D01*
X273100Y-130000D01*
G01Y-50000D02*
Y-54100D01*
X276000Y-57000D01*
Y-127100D01*
X273100Y-130000D01*
G01X271100Y-54800D02*
X273500Y-57200D01*
Y-123800D01*
X270300Y-127000D01*
Y-132200D01*
X273100Y-135000D01*
G01X271300Y-70000D02*
X256600Y-55300D01*
Y-35500D01*
X253200Y-32100D01*
Y10000D01*
G01X273100Y30000D02*
X277055Y26045D01*
Y25055D01*
X264900Y12900D01*
Y-41800D01*
X273100Y-50000D01*
G01Y25000D02*
X271400D01*
X261100Y14700D01*
Y-44800D01*
X271100Y-54800D01*
G01X278300Y-60000D02*
Y-55600D01*
X275900Y-53200D01*
Y-49400D01*
X268900Y-42400D01*
Y2000D01*
X286900Y20000D01*
G01X278900Y-49000D02*
X273067Y-43167D01*
Y767D01*
X289300Y17000D01*
Y22600D01*
X286900Y25000D01*
G01X270560Y-60000D02*
X259100Y-48540D01*
Y-27000D01*
X255800Y-23700D01*
Y20000D01*
G01X271700Y8500D02*
Y14700D01*
G01X284350Y-182650D02*
X291800Y-190100D01*
Y-206600D01*
X293300Y-208100D01*
Y-255200D01*
X300675Y-262575D01*
X306300D01*
G01X279000Y-192600D02*
X281300D01*
X284200Y-195500D01*
Y-211600D01*
X288500Y-215900D01*
Y-258600D01*
X299900Y-270000D01*
X306300D01*
G01X308200Y-265000D02*
X299000D01*
X291100Y-257100D01*
Y-215601D01*
X286800Y-211301D01*
Y-190025D01*
X284200Y-187425D01*
X279675D01*
G01X280800Y-220000D02*
X276900Y-216100D01*
Y-200800D01*
X273400Y-197300D01*
Y-147900D01*
X281300Y-140000D01*
G01X279500Y-215000D02*
X279100Y-214600D01*
Y-199200D01*
X275300Y-195400D01*
Y-151000D01*
X286900Y-139400D01*
Y-135000D01*
G01X280200Y-180000D02*
X285200D01*
X295100Y-189900D01*
Y-253300D01*
X301800Y-260000D01*
X308200D01*
G01X306600Y-247300D02*
Y-214800D01*
X309000Y-212400D01*
Y-185200D01*
X290800Y-167000D01*
X284100D01*
G01X284600Y-172400D02*
X288200D01*
X301800Y-186000D01*
Y-249711D01*
X304664Y-252575D01*
X306375D01*
G01X284300Y-177400D02*
X286300D01*
X297400Y-188500D01*
Y-252300D01*
X302675Y-257575D01*
X306375D01*
G01X308000Y-255000D02*
X303400D01*
X299700Y-251300D01*
Y-187700D01*
X287000Y-175000D01*
X280100D01*
G01X308100Y-250000D02*
X305600D01*
X304100Y-248500D01*
Y-214000D01*
X306700Y-211400D01*
Y-187100D01*
X289600Y-170000D01*
X280400D01*
G01X278300Y-60000D02*
Y-128800D01*
X281300Y-131800D01*
Y-140000D01*
G01X278900Y-49000D02*
Y-53100D01*
X281278Y-55478D01*
Y-129378D01*
X286900Y-135000D01*
G01X304400Y-110000D02*
X298000D01*
X286100Y-98100D01*
Y-55500D01*
X283700Y-53100D01*
Y-35000D01*
X281300Y-32600D01*
X277100D01*
G01X304400Y-102575D02*
X298775D01*
X291400Y-95200D01*
Y-48100D01*
X289900Y-46600D01*
Y-30100D01*
X282500Y-22700D01*
G01X277775Y-27425D02*
X282325D01*
X286600Y-31700D01*
Y-51900D01*
X288700Y-54000D01*
Y-96600D01*
X297100Y-105000D01*
X306300D01*
G01X278300Y-20000D02*
X283300D01*
X293200Y-29900D01*
Y-93300D01*
X299900Y-100000D01*
X306300D01*
G01X304500Y-92575D02*
X302764D01*
X299900Y-89711D01*
Y-26000D01*
X286300Y-12400D01*
X282300D01*
G01X282400Y-17400D02*
X284400D01*
X295500Y-28500D01*
Y-92300D01*
X300775Y-97575D01*
X304500D01*
G01X306100Y-95000D02*
X301500D01*
X297800Y-91300D01*
Y-27700D01*
X285100Y-15000D01*
X278200D01*
G01X304700Y-87300D02*
Y-54800D01*
X307100Y-52400D01*
Y-25200D01*
X288900Y-7000D01*
X282200D01*
G01X306200Y-90000D02*
X303700D01*
X302200Y-88500D01*
Y-24500D01*
X287700Y-10000D01*
X278500D01*
G01X306400Y-252575D02*
X306375D01*
G01Y-257575D02*
X306400D01*
G01X307000Y-65000D02*
Y-87100D01*
X308800Y-88900D01*
Y-109700D01*
X301900Y-116600D01*
Y-172500D01*
X311200Y-181800D01*
Y-224100D01*
X310300Y-225000D01*
G01X306300Y-145000D02*
X312000Y-139300D01*
Y-86000D01*
X309300Y-83300D01*
Y-22900D01*
X304300Y-17900D01*
Y15000D01*
M02*
