M48
INCH,TZ
T01C.00787
T02C.01181
T03C.12598
T04C.03937
T05C.05118
;LEADER: 12 
;HEADER: 
;CODE  : ASCII 
;FILE  : DRAM_BOARD-1-4.drl for board F:/PCB_PROJECT/386_Dram_board/PCB/#Taaaabx14880.tmp ... layers TOP and BOTTOM
;T01 Holesize 1. = 7.870000 Tolerance = +0.000000/-0.000000 PLATED MILS Quantity = 649
;T02 Holesize 2. = 11.810000 Tolerance = +0.000000/-0.000000 PLATED MILS Quantity = 171
;T03 Holesize 3. = 125.980000 Tolerance = +0.000000/-0.000000 PLATED MILS Quantity = 4
;T04 Holesize 4. = 39.370000 Tolerance = +0.000000/-0.000000 NON_PLATED MILS Quantity = 1
;T05 Holesize 5. = 51.180000 Tolerance = +0.000000/-0.000000 NON_PLATED MILS Quantity = 1
%
G90
T01
X49763Y-300910
X54090Y-305237
X60000Y-306821
X65910Y-305237
X66110Y-307113
X70237Y-300910
X71110Y-307113
R03X5000
X96110Y-307113
R04X5000
X126110Y-307113
R15X10000
X281110Y-307113
R05X5000
X309763Y-300910
X311110Y-307113
X314090Y-305237
X316110Y-307113
X320000Y-306821
X325910Y-305237
X330237Y-300910
X332113Y-272793
X332113Y-277793
R03Y-5000
X331821Y-295000
X330237Y-289090
X325910Y-284763
X324581Y-272071
X321045Y-275607
X320000Y-283179
X317510Y-279142
X314090Y-284763
X313974Y-282678
X310439Y-286213
X309763Y-289090
X308179Y-295000
X306903Y-289749
X303368Y-293284
X299799Y-296786
R05X-5000
X270000Y-290600
X264799Y-296786
X260000Y-290100
X254799Y-296786
X250000Y-290600
X244799Y-296786
X240000Y-290600
X234799Y-296786
X226900Y-278900
X224799Y-296786
X220000Y-290600
X214799Y-296786
X212400Y-283500
X210000Y-290600
X204799Y-296786
X194799Y-296786
X190000Y-290600
X189800Y-275000
X184799Y-296786
X180000Y-290600
X174799Y-296786
X164799Y-296786
X160100Y-284000
X160000Y-290600
X154799Y-296786
X150000Y-290600
X144799Y-296786
X140000Y-290600
X134799Y-296786
X130000Y-290600
X124799Y-296786
X120000Y-284700
X114799Y-296786
R04X-5000
X84799Y-296786
X79804Y-296557
X76269Y-293021
X72733Y-289486
X71821Y-295000
X70237Y-289090
X69198Y-285950
X65910Y-284763
X65662Y-282415
X62127Y-278879
X60000Y-283179
X58591Y-275343
X54090Y-284763
X49763Y-289090
X48179Y-295000
X47887Y-275000
X47887Y-280000
R02Y-5000
X47887Y-265000
R02Y10000
X56814Y-265670
R02Y10000
X63900Y-255000
X168300Y-241800
X306300Y-270000
X306300Y-262575
X306375Y-257575
X306375Y-252575
X306600Y-247300
X308000Y-255000
X308100Y-250000
X308200Y-265000
X308200Y-260000
X324586Y-267071
X324686Y-262072
R04Y5000
X332113Y-267793
R05Y5000
X332113Y-212793
R05Y-5000
X324686Y-212072
R05Y-5000
X310300Y-225000
X280800Y-220000
X279500Y-215000
X274000Y-210200
X273000Y-230000
X271100Y-213400
X270800Y-220000
X244400Y-225000
X239300Y-239500
X234300Y-238400
X226900Y-215000
X226900Y-220000
X213100Y-215000
X193500Y-225000
X189200Y-235600
X167300Y-225000
X166900Y-215000
X166900Y-220000
X153100Y-215000
X125700Y-225000
X106900Y-215000
X106900Y-220000
X93100Y-215000
X74400Y-220100
X56814Y-215670
R02Y-10000
X47887Y-215000
R02Y-10000
X47887Y-205000
R02Y10000
X56814Y-205670
R02Y10000
X63600Y-185500
X63900Y-197000
X73200Y-187425
X73200Y-182425
X73300Y-192900
X75400Y-185000
X93100Y-210000
R02X60000
X279000Y-192600
X279675Y-187425
X284350Y-182650
X324686Y-207072
X324686Y-202072
R04Y5000
X332113Y-207793
R05Y5000
X332113Y-152793
R05Y-5000
X324686Y-152072
R05Y-5000
X284600Y-172400
X284300Y-177400
X284100Y-167000
X280400Y-170000
X280200Y-180000
X280100Y-175000
X87000Y-158300
X82300Y-158300
X75400Y-170000
R02Y-5000
X73425Y-172575
X73200Y-177425
X69800Y-170300
X62300Y-175600
X56814Y-155670
R02Y-10000
X47887Y-155000
R02Y-10000
X47887Y-145000
R02Y10000
X56814Y-145670
R02Y10000
X67500Y-146600
X69700Y-140000
X72100Y-148400
X92500Y-125300
X96400Y-135000
X100200Y-130000
X106900Y-140000
X109300Y-135100
X109900Y-145000
X153100Y-135000
X153100Y-130000
X166900Y-140000
X166900Y-135000
X185100Y-145000
X188900Y-145000
X213100Y-135000
X213100Y-130000
X226900Y-140000
X226900Y-135000
X229600Y-144900
X248900Y-145000
X251600Y-150000
X254300Y-140000
X273100Y-135000
X273100Y-130000
X281300Y-140000
X286900Y-135000
X306300Y-145000
X324686Y-147072
R05Y5000
X332113Y-147793
R05Y5000
X332113Y-92793
R05Y-5000
X324686Y-92072
R05Y-5000
X306300Y-100000
X306300Y-105000
X306100Y-95000
X304500Y-92575
X304500Y-97575
X304400Y-102575
X304400Y-110000
X99700Y-105000
X99500Y-110000
X99400Y-100000
X99100Y-95000
X92700Y-95000
X92600Y-105000
X92500Y-100000
X56814Y-95670
R02Y-10000
X47887Y-95000
R02Y-10000
X47887Y-85000
X47887Y-75000
X47887Y-70000
X47887Y-65000
X56814Y-85670
X56814Y-75670
X56814Y-70670
R02Y5000
X65200Y-67100
X74500Y-61700
X74900Y-70000
X92900Y-90000
X98400Y-90000
X125700Y-65000
X188900Y-65000
X195600Y-62500
X210800Y-62300
X244500Y-67425
X271300Y-70000
X304700Y-87300
X306200Y-90000
X307000Y-65000
X324686Y-87072
R05Y5000
X332113Y-87793
R05Y5000
X332113Y-32793
R05Y-5000
X324686Y-32072
R05Y-5000
X278900Y-49000
X278300Y-60000
X277100Y-32600
X273100Y-50000
X271100Y-54800
X270560Y-60000
X244600Y-55000
X226900Y-60000
X217200Y-54100
X213100Y-55000
X185000Y-31000
X166900Y-55000
X166900Y-60000
X153100Y-50000
X153100Y-55000
X106900Y-55000
X106900Y-60000
X93100Y-50000
X93100Y-55000
X56814Y-30670
X56814Y-35670
R04Y-5000
X47887Y-35000
R05Y-5000
X47887Y-30000
R05Y5000
X56814Y-25670
R05Y5000
X163228Y-7300
X166378Y-12600
X169100Y-22600
X169200Y-17600
X185500Y-20000
X186000Y-15000
X186500Y-27400
X188425Y-9975
X207323Y-1723
X210472Y-528
X277775Y-27425
X278200Y-15000
X278300Y-20000
X278500Y-10000
X282200Y-7000
X282300Y-12400
X282400Y-17400
X282500Y-22700
X324686Y-27072
R05Y5000
X332113Y-27793
R05Y5000
X332113Y27207
R05Y-5000
X330237Y29090
X325910Y24763
X324686Y2928
X323719Y7833
X320183Y11369
X320000Y23179
X316647Y14905
X314090Y24763
X313112Y18440
X309763Y29090
X309576Y21976
X306041Y25511
X304300Y15000
X302505Y29047
X286900Y25000
X286900Y20000
X273100Y25000
X271700Y14700
X271700Y8500
X255800Y20000
X253200Y10000
X226900Y25000
X226900Y20000
X223400Y29500
X220900Y24500
X218500Y18100
X196900Y400
X196000Y27500
X195300Y20400
X193200Y24600
X191575Y575
X186600Y24900
X186300Y21000
X186100Y27575
X184000Y22400
X166900Y25000
X162200Y22200
X153100Y25000
X115300Y600
X109500Y15100
X106900Y25000
X106900Y20000
X93100Y25000
X75291Y26944
X72600Y12600
X71756Y23408
X70237Y29090
X68220Y19872
X65910Y24763
X64685Y16337
X61149Y12801
X60000Y23179
X57614Y9266
X56814Y4330
X54090Y24763
X49763Y29090
X47887Y25000
R05Y-5000
X47887Y30000
X48179Y35000
X49763Y40910
X54090Y45237
X60000Y46821
X65910Y45237
X66699Y47113
X70237Y40910
X71699Y47113
X71821Y35000
X76699Y47113
X81699Y47113
X82362Y34015
X85898Y37550
X86699Y47113
X89433Y41086
X91699Y47113
X93100Y30000
X96699Y47113
X97108Y41086
X101699Y47113
X102108Y41086
X106699Y47113
X107108Y41086
X111699Y47113
X112108Y41086
X116699Y47113
X117108Y41086
X121699Y47113
X122108Y41086
X126050Y33650
X126699Y47113
X127108Y41086
X131699Y47113
X132108Y41086
X136699Y47113
X137108Y41086
X141699Y47113
X142108Y41086
X146699Y47113
X147108Y41086
X151699Y47113
X152108Y41086
X153100Y30000
X156699Y47113
X157108Y41086
X161699Y47113
X162108Y41086
X166699Y47113
X167108Y41086
X170100Y37000
X171699Y47113
X172108Y41086
X176600Y34100
X176699Y47113
X177108Y41086
X179800Y35600
X181699Y47113
X182108Y41086
X186699Y47113
X187108Y41086
X190900Y30000
X191699Y47113
X192108Y41086
X196699Y47113
X197108Y41086
X201699Y47113
X202108Y41086
X206699Y47113
X207108Y41086
X211700Y33200
X211699Y47113
X212108Y41086
X214750Y31750
X216699Y47113
X217108Y41086
X218150Y37050
X221699Y47113
X222108Y41086
X226699Y47113
X227108Y41086
X231699Y47113
X232108Y41086
X236699Y47113
X237108Y41086
X241699Y47113
X242108Y41086
X246699Y47113
X247108Y41086
X251699Y47113
X252108Y41086
X256699Y47113
X257108Y41086
X258900Y36900
X261699Y47113
X262108Y41086
X266699Y47113
X267108Y41086
X271699Y47113
X272108Y41086
X273100Y30000
X276699Y47113
X277108Y41086
X281699Y47113
X282108Y41086
X286699Y47113
X287108Y41086
X291699Y47113
X291899Y39653
X295434Y36118
X296699Y47113
X298970Y32582
X301699Y47113
X306699Y47113
X308179Y35000
X309763Y40910
X311699Y47113
X314090Y45237
X316699Y47113
X320000Y46821
X325910Y45237
X330237Y40910
X331821Y35000
X332113Y32207
T02
X71900Y-283181
X71900Y-276819
X75636Y-270000
X78100Y-283181
X78100Y-276819
X91036Y-270000
X105000Y-291700
X126900Y-283181
X126900Y-276819
X133100Y-283181
X133100Y-276819
X135636Y-270000
X151036Y-270000
X186900Y-283181
X186900Y-276819
X193100Y-283181
X193100Y-276819
X195636Y-270000
X211036Y-270000
X246900Y-283181
X246900Y-276819
X253100Y-283181
X253100Y-276819
X255636Y-270000
X271036Y-270000
X304500Y-210000
X289100Y-210000
X286469Y-230000
X271036Y-190000
X255636Y-190000
X253100Y-196819
X253100Y-203181
X246900Y-196819
X246900Y-203181
X244500Y-210000
X243700Y-230000
X229100Y-210000
X211036Y-190000
X195636Y-190000
X193100Y-196819
X193100Y-203181
X186900Y-196819
X186900Y-203181
X184500Y-210000
X169100Y-210000
X165700Y-230000
X151036Y-190000
X135636Y-190000
X133100Y-196819
X133100Y-203181
X126900Y-196819
X126900Y-203181
X125700Y-230000
X124500Y-210000
X109100Y-210000
X91036Y-190000
X78100Y-196819
X78100Y-203181
X75636Y-190000
X71900Y-196819
X71900Y-203181
X71900Y-123181
X71900Y-116819
X75636Y-110000
X78100Y-123181
X78100Y-116819
X91036Y-110000
X109100Y-130000
X109764Y-150000
X124500Y-130000
X126900Y-123181
X126900Y-116819
X133100Y-123181
X133100Y-116819
X135636Y-110000
X151036Y-110000
X169100Y-130000
X183700Y-150000
X184500Y-130000
X186900Y-123181
X186900Y-116819
X193100Y-123181
X193100Y-116819
X195636Y-110000
X211036Y-110000
X229100Y-130000
X243700Y-150000
X244500Y-130000
X246900Y-123181
X246900Y-116819
X253100Y-123181
X253100Y-116819
X255636Y-110000
X271036Y-110000
X289100Y-130000
X289764Y-150000
X304500Y-130000
X304500Y-50000
X289100Y-50000
X283800Y-70000
X271036Y-30000
X255636Y-30000
X253100Y-36819
X253100Y-43181
X246900Y-36819
X246900Y-43181
X244500Y-50000
X243700Y-70000
X229100Y-50000
X228500Y-35300
X228500Y-39800
X228300Y-30000
X225300Y-35300
X225300Y-39800
X225100Y-30000
X222000Y-35300
X222000Y-39800
X221800Y-30000
X211036Y-30000
X195636Y-30000
X193100Y-36819
X193100Y-43181
X186900Y-36819
X186900Y-43181
X184500Y-50000
X183700Y-70000
X169100Y-50000
X161400Y-35600
X161300Y-39500
X160100Y-100
X158200Y-35600
X158100Y-39500
X156900Y-100
X156929Y-5229
X155100Y-35500
X155000Y-39400
X151900Y-100
X151900Y-35500
X151800Y-39400
X151036Y-30000
X148400Y-100
X145200Y-100
X135636Y-30000
X133100Y-36819
X133100Y-43181
X126900Y-36819
X126900Y-43181
X124500Y-50000
X123700Y-70000
X109100Y-50000
X91036Y-30000
X78100Y-36819
X78100Y-43181
X75636Y-30000
X71900Y-36819
X71900Y-43181
X109100Y30000
X123700Y10000
X124500Y30000
X156902Y7598
X169100Y30000
X184500Y30000
X227500Y200
X229100Y30000
X230800Y200
X234000Y200
X243700Y10000
X244500Y30000
X289100Y30000
X289764Y10000
X304500Y30000
T03
X60000Y-295000
X320000Y-295000
X320000Y35000
X60000Y35000
T04
X134488Y0
T05
X245512Y0
M30
