G04 ================== begin FILE IDENTIFICATION RECORD ==================*
G04 Layout Name:  F:/PCB_PROJECT/386_Dram_board/PCB/DRAM_BOARD.brd*
G04 Film Name:    SST*
G04 File Format:  Gerber RS274X*
G04 File Origin:  Cadence Allegro 17.2-S058*
G04 Origin Date:  Fri Dec 31 19:12:04 2021*
G04 *
G04 Layer:  REF DES/SILKSCREEN_TOP*
G04 Layer:  PACKAGE GEOMETRY/SILKSCREEN_TOP*
G04 Layer:  BOARD GEOMETRY/OUTLINE*
G04 Layer:  BOARD GEOMETRY/SILKSCREEN_TOP*
G04 *
G04 Offset:    (0.00 0.00)*
G04 Mirror:    No*
G04 Mode:      Positive*
G04 Rotation:  0*
G04 FullContactRelief:  No*
G04 UndefLineWidth:     6.00*
G04 ================== end FILE IDENTIFICATION RECORD ====================*
%FSLAX25Y25*MOIN*%
%IR0*IPPOS*OFA0.00000B0.00000*MIA0B0*SFA1.00000B1.00000*%
%ADD10C,.006*%
G75*
%LPD*%
G75*
G54D10*
G01X60000Y50000D02*
X320000D01*
G02X335000Y35000I0J-15000D01*
G01Y-295000D01*
G02X320000Y-310000I-15000J0D01*
G01X60000D01*
G02X45000Y-295000I0J15000D01*
G01Y35000D01*
G02X60000Y50000I15000J0D01*
G01X56700Y-293750D02*
Y-296250D01*
G01X56087Y-293750D02*
X57313D01*
G01X58367Y-296250D02*
Y-293750D01*
X59007D01*
X59220Y-293875D01*
X59380Y-294167D01*
X59433Y-294500D01*
X59380Y-294833D01*
X59247Y-295083D01*
X59007Y-295208D01*
X58367D01*
G01X61100Y-296250D02*
Y-293750D01*
X60780Y-294250D01*
G01Y-296250D02*
X61420D01*
G01X62793Y-295208D02*
X62980Y-294917D01*
X63140Y-294750D01*
X63353Y-294667D01*
X63540Y-294750D01*
X63673Y-294917D01*
X63780Y-295167D01*
X63807Y-295458D01*
X63780Y-295708D01*
X63673Y-295958D01*
X63513Y-296167D01*
X63327Y-296250D01*
X63113Y-296167D01*
X62927Y-295917D01*
X62820Y-295542D01*
X62793Y-295125D01*
X62847Y-294583D01*
X62927Y-294292D01*
X63060Y-294000D01*
X63247Y-293792D01*
X63433Y-293750D01*
X63620Y-293833D01*
X63753Y-294042D01*
G01X63150Y-272000D02*
X62843Y-271948D01*
X62575Y-271742D01*
X62345Y-271432D01*
X62192Y-271070D01*
X62115Y-270657D01*
Y-270243D01*
X62192Y-269830D01*
X62345Y-269468D01*
X62575Y-269158D01*
X62843Y-268952D01*
X63150Y-268900D01*
X63457Y-268952D01*
X63725Y-269158D01*
X63955Y-269468D01*
X64108Y-269830D01*
X64185Y-270243D01*
Y-270657D01*
X64108Y-271070D01*
X63955Y-271432D01*
X63725Y-271742D01*
X63457Y-271948D01*
X63150Y-272000D01*
G01X67017D02*
X65483D01*
Y-268900D01*
X67017D01*
G01X66403Y-270398D02*
X65483D01*
G01X63993Y-249158D02*
X63763Y-249003D01*
X63495Y-248900D01*
X63188D01*
X62843Y-249055D01*
X62575Y-249313D01*
X62383Y-249623D01*
X62230Y-250140D01*
X62192Y-250605D01*
X62268Y-251070D01*
X62383Y-251380D01*
X62613Y-251690D01*
X62882Y-251897D01*
X63150Y-252000D01*
X63418D01*
X63687Y-251897D01*
X63917Y-251742D01*
X64108Y-251535D01*
G01X65292Y-252000D02*
X66250Y-248900D01*
X67208Y-252000D01*
G01X66863Y-250915D02*
X65637D01*
G01X68545Y-251587D02*
X68852Y-251845D01*
X69197Y-252000D01*
X69503D01*
X69810Y-251845D01*
X70040Y-251587D01*
X70155Y-251225D01*
X70078Y-250863D01*
X69887Y-250553D01*
X69542Y-250347D01*
X69082Y-250243D01*
X68813Y-250037D01*
X68698Y-249675D01*
X68775Y-249313D01*
X68967Y-249055D01*
X69235Y-248900D01*
X69503D01*
X69772Y-249003D01*
X70002Y-249262D01*
G01X71607Y-251380D02*
X71837Y-251742D01*
X72143Y-251948D01*
X72488Y-252000D01*
X72795Y-251948D01*
X73102Y-251690D01*
X73293Y-251380D01*
X73332Y-251070D01*
X73255Y-250708D01*
X72987Y-250450D01*
X72718Y-250347D01*
X72373D01*
G01X72718D02*
X72948Y-250192D01*
X73140Y-249933D01*
X73217Y-249623D01*
X73140Y-249313D01*
X72948Y-249055D01*
X72603Y-248900D01*
X72258Y-248952D01*
X71913Y-249158D01*
G01X62000Y-258900D02*
X62537Y-262000D01*
X63150Y-258900D01*
X63763Y-262000D01*
X64300Y-258900D01*
G01X67017Y-262000D02*
X65483D01*
Y-258900D01*
X67017D01*
G01X66403Y-260398D02*
X65483D01*
G01X51700Y-253750D02*
Y-256250D01*
G01X51087Y-253750D02*
X52313D01*
G01X53367Y-256250D02*
Y-253750D01*
X54007D01*
X54220Y-253875D01*
X54380Y-254167D01*
X54433Y-254500D01*
X54380Y-254833D01*
X54247Y-255083D01*
X54007Y-255208D01*
X53367D01*
G01X55513Y-255750D02*
X55673Y-256042D01*
X55887Y-256208D01*
X56127Y-256250D01*
X56340Y-256208D01*
X56553Y-256000D01*
X56687Y-255750D01*
X56713Y-255500D01*
X56660Y-255208D01*
X56473Y-255000D01*
X56287Y-254917D01*
X56047D01*
G01X56287D02*
X56447Y-254792D01*
X56580Y-254583D01*
X56633Y-254333D01*
X56580Y-254083D01*
X56447Y-253875D01*
X56207Y-253750D01*
X55967Y-253792D01*
X55727Y-253958D01*
G01X58300Y-256250D02*
X58487Y-256208D01*
X58700Y-256083D01*
X58833Y-255875D01*
X58887Y-255583D01*
X58833Y-255292D01*
X58673Y-255042D01*
X58433Y-254917D01*
X58167D01*
X58007Y-254833D01*
X57873Y-254625D01*
X57820Y-254333D01*
X57900Y-254042D01*
X58087Y-253833D01*
X58300Y-253750D01*
X58513Y-253833D01*
X58700Y-254042D01*
X58780Y-254333D01*
X58727Y-254625D01*
X58593Y-254833D01*
X58433Y-254917D01*
X58167D01*
X57927Y-255042D01*
X57767Y-255292D01*
X57713Y-255583D01*
X57767Y-255875D01*
X57900Y-256083D01*
X58113Y-256208D01*
X58300Y-256250D01*
G01X63993Y-229158D02*
X63763Y-229003D01*
X63495Y-228900D01*
X63188D01*
X62843Y-229055D01*
X62575Y-229313D01*
X62383Y-229623D01*
X62230Y-230140D01*
X62192Y-230605D01*
X62268Y-231070D01*
X62383Y-231380D01*
X62613Y-231690D01*
X62882Y-231897D01*
X63150Y-232000D01*
X63418D01*
X63687Y-231897D01*
X63917Y-231742D01*
X64108Y-231535D01*
G01X65292Y-232000D02*
X66250Y-228900D01*
X67208Y-232000D01*
G01X66863Y-230915D02*
X65637D01*
G01X68545Y-231587D02*
X68852Y-231845D01*
X69197Y-232000D01*
X69503D01*
X69810Y-231845D01*
X70040Y-231587D01*
X70155Y-231225D01*
X70078Y-230863D01*
X69887Y-230553D01*
X69542Y-230347D01*
X69082Y-230243D01*
X68813Y-230037D01*
X68698Y-229675D01*
X68775Y-229313D01*
X68967Y-229055D01*
X69235Y-228900D01*
X69503D01*
X69772Y-229003D01*
X70002Y-229262D01*
G01X72450Y-232000D02*
Y-228900D01*
X71990Y-229520D01*
G01Y-232000D02*
X72910D01*
G01X63993Y-239158D02*
X63763Y-239003D01*
X63495Y-238900D01*
X63188D01*
X62843Y-239055D01*
X62575Y-239313D01*
X62383Y-239623D01*
X62230Y-240140D01*
X62192Y-240605D01*
X62268Y-241070D01*
X62383Y-241380D01*
X62613Y-241690D01*
X62882Y-241897D01*
X63150Y-242000D01*
X63418D01*
X63687Y-241897D01*
X63917Y-241742D01*
X64108Y-241535D01*
G01X65292Y-242000D02*
X66250Y-238900D01*
X67208Y-242000D01*
G01X66863Y-240915D02*
X65637D01*
G01X68545Y-241587D02*
X68852Y-241845D01*
X69197Y-242000D01*
X69503D01*
X69810Y-241845D01*
X70040Y-241587D01*
X70155Y-241225D01*
X70078Y-240863D01*
X69887Y-240553D01*
X69542Y-240347D01*
X69082Y-240243D01*
X68813Y-240037D01*
X68698Y-239675D01*
X68775Y-239313D01*
X68967Y-239055D01*
X69235Y-238900D01*
X69503D01*
X69772Y-239003D01*
X70002Y-239262D01*
G01X71722Y-239417D02*
X71952Y-239107D01*
X72220Y-238952D01*
X72527Y-238900D01*
X72910Y-239003D01*
X73178Y-239262D01*
X73255Y-239572D01*
X73217Y-239882D01*
X73063Y-240140D01*
X72297Y-240657D01*
X71952Y-241018D01*
X71722Y-241535D01*
X71645Y-242000D01*
X73255D01*
G01X51700Y-233750D02*
Y-236250D01*
G01X51087Y-233750D02*
X52313D01*
G01X53367Y-236250D02*
Y-233750D01*
X54007D01*
X54220Y-233875D01*
X54380Y-234167D01*
X54433Y-234500D01*
X54380Y-234833D01*
X54247Y-235083D01*
X54007Y-235208D01*
X53367D01*
G01X55513Y-235750D02*
X55673Y-236042D01*
X55887Y-236208D01*
X56127Y-236250D01*
X56340Y-236208D01*
X56553Y-236000D01*
X56687Y-235750D01*
X56713Y-235500D01*
X56660Y-235208D01*
X56473Y-235000D01*
X56287Y-234917D01*
X56047D01*
G01X56287D02*
X56447Y-234792D01*
X56580Y-234583D01*
X56633Y-234333D01*
X56580Y-234083D01*
X56447Y-233875D01*
X56207Y-233750D01*
X55967Y-233792D01*
X55727Y-233958D01*
G01X57847Y-235958D02*
X58033Y-236167D01*
X58247Y-236250D01*
X58460Y-236167D01*
X58647Y-235917D01*
X58780Y-235542D01*
X58833Y-235167D01*
Y-234708D01*
X58780Y-234333D01*
X58647Y-234000D01*
X58487Y-233833D01*
X58300Y-233750D01*
X58087Y-233833D01*
X57927Y-234000D01*
X57820Y-234250D01*
X57767Y-234583D01*
X57820Y-234875D01*
X57953Y-235167D01*
X58113Y-235333D01*
X58300Y-235375D01*
X58513Y-235292D01*
X58673Y-235083D01*
X58833Y-234708D01*
G01X51700Y-243750D02*
Y-246250D01*
G01X51087Y-243750D02*
X52313D01*
G01X53367Y-246250D02*
Y-243750D01*
X54007D01*
X54220Y-243875D01*
X54380Y-244167D01*
X54433Y-244500D01*
X54380Y-244833D01*
X54247Y-245083D01*
X54007Y-245208D01*
X53367D01*
G01X56420Y-246250D02*
Y-243750D01*
X55433Y-245542D01*
X56767D01*
G01X58300Y-246250D02*
Y-243750D01*
X57980Y-244250D01*
G01Y-246250D02*
X58620D01*
G01X62383Y-212000D02*
Y-208900D01*
X63342D01*
X63648Y-209055D01*
X63840Y-209262D01*
X63917Y-209675D01*
X63840Y-210088D01*
X63610Y-210347D01*
X63342Y-210502D01*
X62383D01*
G01X63342D02*
X63917Y-212000D01*
G01X65292D02*
X66250Y-208900D01*
X67208Y-212000D01*
G01X66863Y-210915D02*
X65637D01*
G01X68545Y-211587D02*
X68852Y-211845D01*
X69197Y-212000D01*
X69503D01*
X69810Y-211845D01*
X70040Y-211587D01*
X70155Y-211225D01*
X70078Y-210863D01*
X69887Y-210553D01*
X69542Y-210347D01*
X69082Y-210243D01*
X68813Y-210037D01*
X68698Y-209675D01*
X68775Y-209313D01*
X68967Y-209055D01*
X69235Y-208900D01*
X69503D01*
X69772Y-209003D01*
X70002Y-209262D01*
G01X71607Y-211380D02*
X71837Y-211742D01*
X72143Y-211948D01*
X72488Y-212000D01*
X72795Y-211948D01*
X73102Y-211690D01*
X73293Y-211380D01*
X73332Y-211070D01*
X73255Y-210708D01*
X72987Y-210450D01*
X72718Y-210347D01*
X72373D01*
G01X72718D02*
X72948Y-210192D01*
X73140Y-209933D01*
X73217Y-209623D01*
X73140Y-209313D01*
X72948Y-209055D01*
X72603Y-208900D01*
X72258Y-208952D01*
X71913Y-209158D01*
G01X63993Y-219158D02*
X63763Y-219003D01*
X63495Y-218900D01*
X63188D01*
X62843Y-219055D01*
X62575Y-219313D01*
X62383Y-219623D01*
X62230Y-220140D01*
X62192Y-220605D01*
X62268Y-221070D01*
X62383Y-221380D01*
X62613Y-221690D01*
X62882Y-221897D01*
X63150Y-222000D01*
X63418D01*
X63687Y-221897D01*
X63917Y-221742D01*
X64108Y-221535D01*
G01X65292Y-222000D02*
X66250Y-218900D01*
X67208Y-222000D01*
G01X66863Y-220915D02*
X65637D01*
G01X68545Y-221587D02*
X68852Y-221845D01*
X69197Y-222000D01*
X69503D01*
X69810Y-221845D01*
X70040Y-221587D01*
X70155Y-221225D01*
X70078Y-220863D01*
X69887Y-220553D01*
X69542Y-220347D01*
X69082Y-220243D01*
X68813Y-220037D01*
X68698Y-219675D01*
X68775Y-219313D01*
X68967Y-219055D01*
X69235Y-218900D01*
X69503D01*
X69772Y-219003D01*
X70002Y-219262D01*
G01X72450Y-218900D02*
X72143Y-219003D01*
X71913Y-219262D01*
X71760Y-219572D01*
X71645Y-219985D01*
X71607Y-220450D01*
X71645Y-220915D01*
X71760Y-221328D01*
X71913Y-221638D01*
X72143Y-221897D01*
X72450Y-222000D01*
X72757Y-221897D01*
X72987Y-221638D01*
X73140Y-221328D01*
X73255Y-220915D01*
X73293Y-220450D01*
X73255Y-219985D01*
X73140Y-219572D01*
X72987Y-219262D01*
X72757Y-219003D01*
X72450Y-218900D01*
G01X51700Y-213750D02*
Y-216250D01*
G01X51087Y-213750D02*
X52313D01*
G01X53367Y-216250D02*
Y-213750D01*
X54007D01*
X54220Y-213875D01*
X54380Y-214167D01*
X54433Y-214500D01*
X54380Y-214833D01*
X54247Y-215083D01*
X54007Y-215208D01*
X53367D01*
G01X55513Y-215750D02*
X55673Y-216042D01*
X55887Y-216208D01*
X56127Y-216250D01*
X56340Y-216208D01*
X56553Y-216000D01*
X56687Y-215750D01*
X56713Y-215500D01*
X56660Y-215208D01*
X56473Y-215000D01*
X56287Y-214917D01*
X56047D01*
G01X56287D02*
X56447Y-214792D01*
X56580Y-214583D01*
X56633Y-214333D01*
X56580Y-214083D01*
X56447Y-213875D01*
X56207Y-213750D01*
X55967Y-213792D01*
X55727Y-213958D01*
G01X57713Y-215875D02*
X57873Y-216083D01*
X58060Y-216208D01*
X58300Y-216250D01*
X58540Y-216167D01*
X58727Y-216000D01*
X58860Y-215708D01*
X58887Y-215375D01*
X58833Y-215042D01*
X58700Y-214833D01*
X58513Y-214667D01*
X58327Y-214625D01*
X58140Y-214667D01*
X57900Y-214833D01*
X57980Y-213750D01*
X58700D01*
G01X51700Y-223750D02*
Y-226250D01*
G01X51087Y-223750D02*
X52313D01*
G01X53367Y-226250D02*
Y-223750D01*
X54007D01*
X54220Y-223875D01*
X54380Y-224167D01*
X54433Y-224500D01*
X54380Y-224833D01*
X54247Y-225083D01*
X54007Y-225208D01*
X53367D01*
G01X55513Y-225750D02*
X55673Y-226042D01*
X55887Y-226208D01*
X56127Y-226250D01*
X56340Y-226208D01*
X56553Y-226000D01*
X56687Y-225750D01*
X56713Y-225500D01*
X56660Y-225208D01*
X56473Y-225000D01*
X56287Y-224917D01*
X56047D01*
G01X56287D02*
X56447Y-224792D01*
X56580Y-224583D01*
X56633Y-224333D01*
X56580Y-224083D01*
X56447Y-223875D01*
X56207Y-223750D01*
X55967Y-223792D01*
X55727Y-223958D01*
G01X58247Y-226250D02*
X58300Y-225708D01*
X58380Y-225250D01*
X58487Y-224833D01*
X58620Y-224375D01*
X58833Y-223750D01*
X57767D01*
G01X62383Y-192000D02*
Y-188900D01*
X63342D01*
X63648Y-189055D01*
X63840Y-189262D01*
X63917Y-189675D01*
X63840Y-190088D01*
X63610Y-190347D01*
X63342Y-190502D01*
X62383D01*
G01X63342D02*
X63917Y-192000D01*
G01X65292D02*
X66250Y-188900D01*
X67208Y-192000D01*
G01X66863Y-190915D02*
X65637D01*
G01X68545Y-191587D02*
X68852Y-191845D01*
X69197Y-192000D01*
X69503D01*
X69810Y-191845D01*
X70040Y-191587D01*
X70155Y-191225D01*
X70078Y-190863D01*
X69887Y-190553D01*
X69542Y-190347D01*
X69082Y-190243D01*
X68813Y-190037D01*
X68698Y-189675D01*
X68775Y-189313D01*
X68967Y-189055D01*
X69235Y-188900D01*
X69503D01*
X69772Y-189003D01*
X70002Y-189262D01*
G01X72450Y-192000D02*
Y-188900D01*
X71990Y-189520D01*
G01Y-192000D02*
X72910D01*
G01X62383Y-202000D02*
Y-198900D01*
X63342D01*
X63648Y-199055D01*
X63840Y-199262D01*
X63917Y-199675D01*
X63840Y-200088D01*
X63610Y-200347D01*
X63342Y-200502D01*
X62383D01*
G01X63342D02*
X63917Y-202000D01*
G01X65292D02*
X66250Y-198900D01*
X67208Y-202000D01*
G01X66863Y-200915D02*
X65637D01*
G01X68545Y-201587D02*
X68852Y-201845D01*
X69197Y-202000D01*
X69503D01*
X69810Y-201845D01*
X70040Y-201587D01*
X70155Y-201225D01*
X70078Y-200863D01*
X69887Y-200553D01*
X69542Y-200347D01*
X69082Y-200243D01*
X68813Y-200037D01*
X68698Y-199675D01*
X68775Y-199313D01*
X68967Y-199055D01*
X69235Y-198900D01*
X69503D01*
X69772Y-199003D01*
X70002Y-199262D01*
G01X71722Y-199417D02*
X71952Y-199107D01*
X72220Y-198952D01*
X72527Y-198900D01*
X72910Y-199003D01*
X73178Y-199262D01*
X73255Y-199572D01*
X73217Y-199882D01*
X73063Y-200140D01*
X72297Y-200657D01*
X71952Y-201018D01*
X71722Y-201535D01*
X71645Y-202000D01*
X73255D01*
G01X51700Y-183750D02*
Y-186250D01*
G01X51087Y-183750D02*
X52313D01*
G01X53367Y-186250D02*
Y-183750D01*
X54007D01*
X54220Y-183875D01*
X54380Y-184167D01*
X54433Y-184500D01*
X54380Y-184833D01*
X54247Y-185083D01*
X54007Y-185208D01*
X53367D01*
G01X55593Y-184167D02*
X55753Y-183917D01*
X55940Y-183792D01*
X56153Y-183750D01*
X56420Y-183833D01*
X56607Y-184042D01*
X56660Y-184292D01*
X56633Y-184542D01*
X56527Y-184750D01*
X55993Y-185167D01*
X55753Y-185458D01*
X55593Y-185875D01*
X55540Y-186250D01*
X56660D01*
G01X57847Y-185958D02*
X58033Y-186167D01*
X58247Y-186250D01*
X58460Y-186167D01*
X58647Y-185917D01*
X58780Y-185542D01*
X58833Y-185167D01*
Y-184708D01*
X58780Y-184333D01*
X58647Y-184000D01*
X58487Y-183833D01*
X58300Y-183750D01*
X58087Y-183833D01*
X57927Y-184000D01*
X57820Y-184250D01*
X57767Y-184583D01*
X57820Y-184875D01*
X57953Y-185167D01*
X58113Y-185333D01*
X58300Y-185375D01*
X58513Y-185292D01*
X58673Y-185083D01*
X58833Y-184708D01*
G01X51700Y-193750D02*
Y-196250D01*
G01X51087Y-193750D02*
X52313D01*
G01X53367Y-196250D02*
Y-193750D01*
X54007D01*
X54220Y-193875D01*
X54380Y-194167D01*
X54433Y-194500D01*
X54380Y-194833D01*
X54247Y-195083D01*
X54007Y-195208D01*
X53367D01*
G01X55513Y-195750D02*
X55673Y-196042D01*
X55887Y-196208D01*
X56127Y-196250D01*
X56340Y-196208D01*
X56553Y-196000D01*
X56687Y-195750D01*
X56713Y-195500D01*
X56660Y-195208D01*
X56473Y-195000D01*
X56287Y-194917D01*
X56047D01*
G01X56287D02*
X56447Y-194792D01*
X56580Y-194583D01*
X56633Y-194333D01*
X56580Y-194083D01*
X56447Y-193875D01*
X56207Y-193750D01*
X55967Y-193792D01*
X55727Y-193958D01*
G01X58300Y-196250D02*
Y-193750D01*
X57980Y-194250D01*
G01Y-196250D02*
X58620D01*
G01X51700Y-203750D02*
Y-206250D01*
G01X51087Y-203750D02*
X52313D01*
G01X53367Y-206250D02*
Y-203750D01*
X54007D01*
X54220Y-203875D01*
X54380Y-204167D01*
X54433Y-204500D01*
X54380Y-204833D01*
X54247Y-205083D01*
X54007Y-205208D01*
X53367D01*
G01X55513Y-205750D02*
X55673Y-206042D01*
X55887Y-206208D01*
X56127Y-206250D01*
X56340Y-206208D01*
X56553Y-206000D01*
X56687Y-205750D01*
X56713Y-205500D01*
X56660Y-205208D01*
X56473Y-205000D01*
X56287Y-204917D01*
X56047D01*
G01X56287D02*
X56447Y-204792D01*
X56580Y-204583D01*
X56633Y-204333D01*
X56580Y-204083D01*
X56447Y-203875D01*
X56207Y-203750D01*
X55967Y-203792D01*
X55727Y-203958D01*
G01X57713Y-205750D02*
X57873Y-206042D01*
X58087Y-206208D01*
X58327Y-206250D01*
X58540Y-206208D01*
X58753Y-206000D01*
X58887Y-205750D01*
X58913Y-205500D01*
X58860Y-205208D01*
X58673Y-205000D01*
X58487Y-204917D01*
X58247D01*
G01X58487D02*
X58647Y-204792D01*
X58780Y-204583D01*
X58833Y-204333D01*
X58780Y-204083D01*
X58647Y-203875D01*
X58407Y-203750D01*
X58167Y-203792D01*
X57927Y-203958D01*
G01X62317Y-172000D02*
X63900Y-167000D01*
X65483Y-172000D01*
G01X64913Y-170250D02*
X62887D01*
G01X67923Y-171417D02*
X68367Y-171833D01*
X68873Y-172000D01*
X69380Y-171833D01*
X69823Y-171333D01*
X70140Y-170583D01*
X70267Y-169833D01*
Y-168917D01*
X70140Y-168167D01*
X69823Y-167500D01*
X69443Y-167167D01*
X69000Y-167000D01*
X68493Y-167167D01*
X68113Y-167500D01*
X67860Y-168000D01*
X67733Y-168667D01*
X67860Y-169250D01*
X68177Y-169833D01*
X68557Y-170167D01*
X69000Y-170250D01*
X69507Y-170083D01*
X69887Y-169667D01*
X70267Y-168917D01*
G01X62383Y-182000D02*
Y-178900D01*
X63342D01*
X63648Y-179055D01*
X63840Y-179262D01*
X63917Y-179675D01*
X63840Y-180088D01*
X63610Y-180347D01*
X63342Y-180502D01*
X62383D01*
G01X63342D02*
X63917Y-182000D01*
G01X65292D02*
X66250Y-178900D01*
X67208Y-182000D01*
G01X66863Y-180915D02*
X65637D01*
G01X68545Y-181587D02*
X68852Y-181845D01*
X69197Y-182000D01*
X69503D01*
X69810Y-181845D01*
X70040Y-181587D01*
X70155Y-181225D01*
X70078Y-180863D01*
X69887Y-180553D01*
X69542Y-180347D01*
X69082Y-180243D01*
X68813Y-180037D01*
X68698Y-179675D01*
X68775Y-179313D01*
X68967Y-179055D01*
X69235Y-178900D01*
X69503D01*
X69772Y-179003D01*
X70002Y-179262D01*
G01X72450Y-178900D02*
X72143Y-179003D01*
X71913Y-179262D01*
X71760Y-179572D01*
X71645Y-179985D01*
X71607Y-180450D01*
X71645Y-180915D01*
X71760Y-181328D01*
X71913Y-181638D01*
X72143Y-181897D01*
X72450Y-182000D01*
X72757Y-181897D01*
X72987Y-181638D01*
X73140Y-181328D01*
X73255Y-180915D01*
X73293Y-180450D01*
X73255Y-179985D01*
X73140Y-179572D01*
X72987Y-179262D01*
X72757Y-179003D01*
X72450Y-178900D01*
G01X51700Y-163750D02*
Y-166250D01*
G01X51087Y-163750D02*
X52313D01*
G01X53367Y-166250D02*
Y-163750D01*
X54007D01*
X54220Y-163875D01*
X54380Y-164167D01*
X54433Y-164500D01*
X54380Y-164833D01*
X54247Y-165083D01*
X54007Y-165208D01*
X53367D01*
G01X55593Y-164167D02*
X55753Y-163917D01*
X55940Y-163792D01*
X56153Y-163750D01*
X56420Y-163833D01*
X56607Y-164042D01*
X56660Y-164292D01*
X56633Y-164542D01*
X56527Y-164750D01*
X55993Y-165167D01*
X55753Y-165458D01*
X55593Y-165875D01*
X55540Y-166250D01*
X56660D01*
G01X57713Y-165875D02*
X57873Y-166083D01*
X58060Y-166208D01*
X58300Y-166250D01*
X58540Y-166167D01*
X58727Y-166000D01*
X58860Y-165708D01*
X58887Y-165375D01*
X58833Y-165042D01*
X58700Y-164833D01*
X58513Y-164667D01*
X58327Y-164625D01*
X58140Y-164667D01*
X57900Y-164833D01*
X57980Y-163750D01*
X58700D01*
G01X51700Y-173750D02*
Y-176250D01*
G01X51087Y-173750D02*
X52313D01*
G01X53367Y-176250D02*
Y-173750D01*
X54007D01*
X54220Y-173875D01*
X54380Y-174167D01*
X54433Y-174500D01*
X54380Y-174833D01*
X54247Y-175083D01*
X54007Y-175208D01*
X53367D01*
G01X55593Y-174167D02*
X55753Y-173917D01*
X55940Y-173792D01*
X56153Y-173750D01*
X56420Y-173833D01*
X56607Y-174042D01*
X56660Y-174292D01*
X56633Y-174542D01*
X56527Y-174750D01*
X55993Y-175167D01*
X55753Y-175458D01*
X55593Y-175875D01*
X55540Y-176250D01*
X56660D01*
G01X58247D02*
X58300Y-175708D01*
X58380Y-175250D01*
X58487Y-174833D01*
X58620Y-174375D01*
X58833Y-173750D01*
X57767D01*
G01X62317Y-152000D02*
X63900Y-147000D01*
X65483Y-152000D01*
G01X64913Y-150250D02*
X62887D01*
G01X68873Y-152000D02*
X69000Y-150917D01*
X69190Y-150000D01*
X69443Y-149167D01*
X69760Y-148250D01*
X70267Y-147000D01*
X67733D01*
G01X62317Y-162000D02*
X63900Y-157000D01*
X65483Y-162000D01*
G01X64913Y-160250D02*
X62887D01*
G01X69000Y-162000D02*
X69443Y-161917D01*
X69950Y-161667D01*
X70267Y-161250D01*
X70393Y-160667D01*
X70267Y-160083D01*
X69887Y-159583D01*
X69317Y-159333D01*
X68683D01*
X68303Y-159167D01*
X67987Y-158750D01*
X67860Y-158167D01*
X68050Y-157583D01*
X68493Y-157167D01*
X69000Y-157000D01*
X69507Y-157167D01*
X69950Y-157583D01*
X70140Y-158167D01*
X70013Y-158750D01*
X69697Y-159167D01*
X69317Y-159333D01*
X68683D01*
X68113Y-159583D01*
X67733Y-160083D01*
X67607Y-160667D01*
X67733Y-161250D01*
X68050Y-161667D01*
X68557Y-161917D01*
X69000Y-162000D01*
G01X51700Y-143750D02*
Y-146250D01*
G01X51087Y-143750D02*
X52313D01*
G01X53367Y-146250D02*
Y-143750D01*
X54007D01*
X54220Y-143875D01*
X54380Y-144167D01*
X54433Y-144500D01*
X54380Y-144833D01*
X54247Y-145083D01*
X54007Y-145208D01*
X53367D01*
G01X55593Y-144167D02*
X55753Y-143917D01*
X55940Y-143792D01*
X56153Y-143750D01*
X56420Y-143833D01*
X56607Y-144042D01*
X56660Y-144292D01*
X56633Y-144542D01*
X56527Y-144750D01*
X55993Y-145167D01*
X55753Y-145458D01*
X55593Y-145875D01*
X55540Y-146250D01*
X56660D01*
G01X58300Y-143750D02*
X58087Y-143833D01*
X57927Y-144042D01*
X57820Y-144292D01*
X57740Y-144625D01*
X57713Y-145000D01*
X57740Y-145375D01*
X57820Y-145708D01*
X57927Y-145958D01*
X58087Y-146167D01*
X58300Y-146250D01*
X58513Y-146167D01*
X58673Y-145958D01*
X58780Y-145708D01*
X58860Y-145375D01*
X58887Y-145000D01*
X58860Y-144625D01*
X58780Y-144292D01*
X58673Y-144042D01*
X58513Y-143833D01*
X58300Y-143750D01*
G01X51700Y-153750D02*
Y-156250D01*
G01X51087Y-153750D02*
X52313D01*
G01X53367Y-156250D02*
Y-153750D01*
X54007D01*
X54220Y-153875D01*
X54380Y-154167D01*
X54433Y-154500D01*
X54380Y-154833D01*
X54247Y-155083D01*
X54007Y-155208D01*
X53367D01*
G01X55593Y-154167D02*
X55753Y-153917D01*
X55940Y-153792D01*
X56153Y-153750D01*
X56420Y-153833D01*
X56607Y-154042D01*
X56660Y-154292D01*
X56633Y-154542D01*
X56527Y-154750D01*
X55993Y-155167D01*
X55753Y-155458D01*
X55593Y-155875D01*
X55540Y-156250D01*
X56660D01*
G01X57713Y-155750D02*
X57873Y-156042D01*
X58087Y-156208D01*
X58327Y-156250D01*
X58540Y-156208D01*
X58753Y-156000D01*
X58887Y-155750D01*
X58913Y-155500D01*
X58860Y-155208D01*
X58673Y-155000D01*
X58487Y-154917D01*
X58247D01*
G01X58487D02*
X58647Y-154792D01*
X58780Y-154583D01*
X58833Y-154333D01*
X58780Y-154083D01*
X58647Y-153875D01*
X58407Y-153750D01*
X58167Y-153792D01*
X57927Y-153958D01*
G01X62317Y-132000D02*
X63900Y-127000D01*
X65483Y-132000D01*
G01X64913Y-130250D02*
X62887D01*
G01X67607Y-131250D02*
X67987Y-131667D01*
X68430Y-131917D01*
X69000Y-132000D01*
X69570Y-131833D01*
X70013Y-131500D01*
X70330Y-130917D01*
X70393Y-130250D01*
X70267Y-129583D01*
X69950Y-129167D01*
X69507Y-128833D01*
X69063Y-128750D01*
X68620Y-128833D01*
X68050Y-129167D01*
X68240Y-127000D01*
X69950D01*
G01X62317Y-142000D02*
X63900Y-137000D01*
X65483Y-142000D01*
G01X64913Y-140250D02*
X62887D01*
G01X67797Y-139917D02*
X68240Y-139333D01*
X68620Y-139000D01*
X69127Y-138833D01*
X69570Y-139000D01*
X69887Y-139333D01*
X70140Y-139833D01*
X70203Y-140417D01*
X70140Y-140917D01*
X69887Y-141417D01*
X69507Y-141833D01*
X69063Y-142000D01*
X68557Y-141833D01*
X68113Y-141333D01*
X67860Y-140583D01*
X67797Y-139750D01*
X67923Y-138667D01*
X68113Y-138083D01*
X68430Y-137500D01*
X68873Y-137083D01*
X69317Y-137000D01*
X69760Y-137167D01*
X70077Y-137583D01*
G01X51700Y-123750D02*
Y-126250D01*
G01X51087Y-123750D02*
X52313D01*
G01X53367Y-126250D02*
Y-123750D01*
X54007D01*
X54220Y-123875D01*
X54380Y-124167D01*
X54433Y-124500D01*
X54380Y-124833D01*
X54247Y-125083D01*
X54007Y-125208D01*
X53367D01*
G01X56100Y-126250D02*
Y-123750D01*
X55780Y-124250D01*
G01Y-126250D02*
X56420D01*
G01X57713Y-125875D02*
X57873Y-126083D01*
X58060Y-126208D01*
X58300Y-126250D01*
X58540Y-126167D01*
X58727Y-126000D01*
X58860Y-125708D01*
X58887Y-125375D01*
X58833Y-125042D01*
X58700Y-124833D01*
X58513Y-124667D01*
X58327Y-124625D01*
X58140Y-124667D01*
X57900Y-124833D01*
X57980Y-123750D01*
X58700D01*
G01X51700Y-133750D02*
Y-136250D01*
G01X51087Y-133750D02*
X52313D01*
G01X53367Y-136250D02*
Y-133750D01*
X54007D01*
X54220Y-133875D01*
X54380Y-134167D01*
X54433Y-134500D01*
X54380Y-134833D01*
X54247Y-135083D01*
X54007Y-135208D01*
X53367D01*
G01X56100Y-136250D02*
Y-133750D01*
X55780Y-134250D01*
G01Y-136250D02*
X56420D01*
G01X58300D02*
X58487Y-136208D01*
X58700Y-136083D01*
X58833Y-135875D01*
X58887Y-135583D01*
X58833Y-135292D01*
X58673Y-135042D01*
X58433Y-134917D01*
X58167D01*
X58007Y-134833D01*
X57873Y-134625D01*
X57820Y-134333D01*
X57900Y-134042D01*
X58087Y-133833D01*
X58300Y-133750D01*
X58513Y-133833D01*
X58700Y-134042D01*
X58780Y-134333D01*
X58727Y-134625D01*
X58593Y-134833D01*
X58433Y-134917D01*
X58167D01*
X57927Y-135042D01*
X57767Y-135292D01*
X57713Y-135583D01*
X57767Y-135875D01*
X57900Y-136083D01*
X58113Y-136208D01*
X58300Y-136250D01*
G01X62317Y-102000D02*
X63900Y-97000D01*
X65483Y-102000D01*
G01X64913Y-100250D02*
X62887D01*
G01X67797Y-97833D02*
X68177Y-97333D01*
X68620Y-97083D01*
X69127Y-97000D01*
X69760Y-97167D01*
X70203Y-97583D01*
X70330Y-98083D01*
X70267Y-98583D01*
X70013Y-99000D01*
X68747Y-99833D01*
X68177Y-100417D01*
X67797Y-101250D01*
X67670Y-102000D01*
X70330D01*
G01X62317Y-112000D02*
X63900Y-107000D01*
X65483Y-112000D01*
G01X64913Y-110250D02*
X62887D01*
G01X67607Y-111000D02*
X67987Y-111583D01*
X68493Y-111917D01*
X69063Y-112000D01*
X69570Y-111917D01*
X70077Y-111500D01*
X70393Y-111000D01*
X70457Y-110500D01*
X70330Y-109917D01*
X69887Y-109500D01*
X69443Y-109333D01*
X68873D01*
G01X69443D02*
X69823Y-109083D01*
X70140Y-108667D01*
X70267Y-108167D01*
X70140Y-107667D01*
X69823Y-107250D01*
X69253Y-107000D01*
X68683Y-107083D01*
X68113Y-107417D01*
G01X62317Y-122000D02*
X63900Y-117000D01*
X65483Y-122000D01*
G01X64913Y-120250D02*
X62887D01*
G01X69760Y-122000D02*
Y-117000D01*
X67417Y-120583D01*
X70583D01*
G01X51700Y-103750D02*
Y-106250D01*
G01X51087Y-103750D02*
X52313D01*
G01X53367Y-106250D02*
Y-103750D01*
X54007D01*
X54220Y-103875D01*
X54380Y-104167D01*
X54433Y-104500D01*
X54380Y-104833D01*
X54247Y-105083D01*
X54007Y-105208D01*
X53367D01*
G01X56100Y-106250D02*
Y-103750D01*
X55780Y-104250D01*
G01Y-106250D02*
X56420D01*
G01X58300Y-103750D02*
X58087Y-103833D01*
X57927Y-104042D01*
X57820Y-104292D01*
X57740Y-104625D01*
X57713Y-105000D01*
X57740Y-105375D01*
X57820Y-105708D01*
X57927Y-105958D01*
X58087Y-106167D01*
X58300Y-106250D01*
X58513Y-106167D01*
X58673Y-105958D01*
X58780Y-105708D01*
X58860Y-105375D01*
X58887Y-105000D01*
X58860Y-104625D01*
X58780Y-104292D01*
X58673Y-104042D01*
X58513Y-103833D01*
X58300Y-103750D01*
G01X51700Y-113750D02*
Y-116250D01*
G01X51087Y-113750D02*
X52313D01*
G01X53367Y-116250D02*
Y-113750D01*
X54007D01*
X54220Y-113875D01*
X54380Y-114167D01*
X54433Y-114500D01*
X54380Y-114833D01*
X54247Y-115083D01*
X54007Y-115208D01*
X53367D01*
G01X56100Y-116250D02*
Y-113750D01*
X55780Y-114250D01*
G01Y-116250D02*
X56420D01*
G01X57713Y-115750D02*
X57873Y-116042D01*
X58087Y-116208D01*
X58327Y-116250D01*
X58540Y-116208D01*
X58753Y-116000D01*
X58887Y-115750D01*
X58913Y-115500D01*
X58860Y-115208D01*
X58673Y-115000D01*
X58487Y-114917D01*
X58247D01*
G01X58487D02*
X58647Y-114792D01*
X58780Y-114583D01*
X58833Y-114333D01*
X58780Y-114083D01*
X58647Y-113875D01*
X58407Y-113750D01*
X58167Y-113792D01*
X57927Y-113958D01*
G01X62317Y-82000D02*
X63900Y-77000D01*
X65483Y-82000D01*
G01X64913Y-80250D02*
X62887D01*
G01X69000Y-77000D02*
X68493Y-77167D01*
X68113Y-77583D01*
X67860Y-78083D01*
X67670Y-78750D01*
X67607Y-79500D01*
X67670Y-80250D01*
X67860Y-80917D01*
X68113Y-81417D01*
X68493Y-81833D01*
X69000Y-82000D01*
X69507Y-81833D01*
X69887Y-81417D01*
X70140Y-80917D01*
X70330Y-80250D01*
X70393Y-79500D01*
X70330Y-78750D01*
X70140Y-78083D01*
X69887Y-77583D01*
X69507Y-77167D01*
X69000Y-77000D01*
G01X62317Y-92000D02*
X63900Y-87000D01*
X65483Y-92000D01*
G01X64913Y-90250D02*
X62887D01*
G01X69000Y-92000D02*
Y-87000D01*
X68240Y-88000D01*
G01Y-92000D02*
X69760D01*
G01X52800Y-83750D02*
Y-86250D01*
G01X52187Y-83750D02*
X53413D01*
G01X54467Y-86250D02*
Y-83750D01*
X55107D01*
X55320Y-83875D01*
X55480Y-84167D01*
X55533Y-84500D01*
X55480Y-84833D01*
X55347Y-85083D01*
X55107Y-85208D01*
X54467D01*
G01X56613Y-85875D02*
X56773Y-86083D01*
X56960Y-86208D01*
X57200Y-86250D01*
X57440Y-86167D01*
X57627Y-86000D01*
X57760Y-85708D01*
X57787Y-85375D01*
X57733Y-85042D01*
X57600Y-84833D01*
X57413Y-84667D01*
X57227Y-84625D01*
X57040Y-84667D01*
X56800Y-84833D01*
X56880Y-83750D01*
X57600D01*
G01X52800Y-93750D02*
Y-96250D01*
G01X52187Y-93750D02*
X53413D01*
G01X54467Y-96250D02*
Y-93750D01*
X55107D01*
X55320Y-93875D01*
X55480Y-94167D01*
X55533Y-94500D01*
X55480Y-94833D01*
X55347Y-95083D01*
X55107Y-95208D01*
X54467D01*
G01X57200Y-96250D02*
X57387Y-96208D01*
X57600Y-96083D01*
X57733Y-95875D01*
X57787Y-95583D01*
X57733Y-95292D01*
X57573Y-95042D01*
X57333Y-94917D01*
X57067D01*
X56907Y-94833D01*
X56773Y-94625D01*
X56720Y-94333D01*
X56800Y-94042D01*
X56987Y-93833D01*
X57200Y-93750D01*
X57413Y-93833D01*
X57600Y-94042D01*
X57680Y-94333D01*
X57627Y-94625D01*
X57493Y-94833D01*
X57333Y-94917D01*
X57067D01*
X56827Y-95042D01*
X56667Y-95292D01*
X56613Y-95583D01*
X56667Y-95875D01*
X56800Y-96083D01*
X57013Y-96208D01*
X57200Y-96250D01*
G01X52800Y-73750D02*
Y-76250D01*
G01X52187Y-73750D02*
X53413D01*
G01X54467Y-76250D02*
Y-73750D01*
X55107D01*
X55320Y-73875D01*
X55480Y-74167D01*
X55533Y-74500D01*
X55480Y-74833D01*
X55347Y-75083D01*
X55107Y-75208D01*
X54467D01*
G01X56613Y-75750D02*
X56773Y-76042D01*
X56987Y-76208D01*
X57227Y-76250D01*
X57440Y-76208D01*
X57653Y-76000D01*
X57787Y-75750D01*
X57813Y-75500D01*
X57760Y-75208D01*
X57573Y-75000D01*
X57387Y-74917D01*
X57147D01*
G01X57387D02*
X57547Y-74792D01*
X57680Y-74583D01*
X57733Y-74333D01*
X57680Y-74083D01*
X57547Y-73875D01*
X57307Y-73750D01*
X57067Y-73792D01*
X56827Y-73958D01*
G01X60000Y-49080D02*
X50600D01*
Y-46780D01*
X51070Y-45860D01*
X51697Y-45170D01*
X52637Y-44595D01*
X53734Y-44135D01*
X55300Y-44020D01*
X56867Y-44135D01*
X57963Y-44595D01*
X58904Y-45170D01*
X59530Y-45860D01*
X60000Y-46780D01*
Y-49080D01*
G01Y-39650D02*
X50600D01*
Y-36775D01*
X51070Y-35855D01*
X51697Y-35280D01*
X52950Y-35050D01*
X54203Y-35280D01*
X54987Y-35970D01*
X55457Y-36775D01*
Y-39650D01*
G01Y-36775D02*
X60000Y-35050D01*
G01Y-31025D02*
X50600Y-28150D01*
X60000Y-25275D01*
G01X56710Y-26310D02*
Y-29990D01*
G01X60000Y-21940D02*
X50600D01*
X58433Y-18950D01*
X50600Y-15960D01*
X60000D01*
G01X63133Y-13200D02*
Y-6300D01*
G01X60000Y-550D02*
X59843Y255D01*
X59373Y1175D01*
X58590Y1750D01*
X57493Y1980D01*
X56397Y1750D01*
X55457Y1060D01*
X54987Y25D01*
Y-1125D01*
X54673Y-1815D01*
X53890Y-2390D01*
X52793Y-2620D01*
X51697Y-2275D01*
X50913Y-1470D01*
X50600Y-550D01*
X50913Y370D01*
X51697Y1175D01*
X52793Y1520D01*
X53890Y1290D01*
X54673Y715D01*
X54987Y25D01*
Y-1125D01*
X55457Y-2160D01*
X56397Y-2850D01*
X57493Y-3080D01*
X58590Y-2850D01*
X59373Y-2275D01*
X59843Y-1355D01*
X60000Y-550D01*
G01Y5660D02*
X50600D01*
X58433Y8650D01*
X50600Y11640D01*
X60000D01*
G01X57800Y36250D02*
Y33750D01*
G01X57187Y36250D02*
X58413D01*
G01X59467Y33750D02*
Y36250D01*
X60107D01*
X60320Y36125D01*
X60480Y35833D01*
X60533Y35500D01*
X60480Y35167D01*
X60347Y34917D01*
X60107Y34792D01*
X59467D01*
G01X61693D02*
X61880Y35083D01*
X62040Y35250D01*
X62253Y35333D01*
X62440Y35250D01*
X62573Y35083D01*
X62680Y34833D01*
X62707Y34542D01*
X62680Y34292D01*
X62573Y34042D01*
X62413Y33833D01*
X62227Y33750D01*
X62013Y33833D01*
X61827Y34083D01*
X61720Y34458D01*
X61693Y34875D01*
X61747Y35417D01*
X61827Y35708D01*
X61960Y36000D01*
X62147Y36208D01*
X62333Y36250D01*
X62520Y36167D01*
X62653Y35958D01*
G01X83500Y-302450D02*
X86000D01*
G01X83500Y-303063D02*
Y-301837D01*
G01X86000Y-300783D02*
X83500D01*
Y-300143D01*
X83625Y-299930D01*
X83917Y-299770D01*
X84250Y-299717D01*
X84583Y-299770D01*
X84833Y-299903D01*
X84958Y-300143D01*
Y-300783D01*
G01X83917Y-298557D02*
X83667Y-298397D01*
X83542Y-298210D01*
X83500Y-297997D01*
X83583Y-297730D01*
X83792Y-297543D01*
X84042Y-297490D01*
X84292Y-297517D01*
X84500Y-297623D01*
X84917Y-298157D01*
X85208Y-298397D01*
X85625Y-298557D01*
X86000Y-298610D01*
Y-297490D01*
G01X73387Y-268958D02*
X73227Y-268833D01*
X73040Y-268750D01*
X72827D01*
X72587Y-268875D01*
X72400Y-269083D01*
X72267Y-269333D01*
X72160Y-269750D01*
X72133Y-270125D01*
X72187Y-270500D01*
X72267Y-270750D01*
X72427Y-271000D01*
X72613Y-271167D01*
X72800Y-271250D01*
X72987D01*
X73173Y-271167D01*
X73333Y-271042D01*
X73467Y-270875D01*
G01X75000Y-271250D02*
Y-268750D01*
X74680Y-269250D01*
G01Y-271250D02*
X75320D01*
G01X76613Y-270750D02*
X76773Y-271042D01*
X76987Y-271208D01*
X77227Y-271250D01*
X77440Y-271208D01*
X77653Y-271000D01*
X77787Y-270750D01*
X77813Y-270500D01*
X77760Y-270208D01*
X77573Y-270000D01*
X77387Y-269917D01*
X77147D01*
G01X77387D02*
X77547Y-269792D01*
X77680Y-269583D01*
X77733Y-269333D01*
X77680Y-269083D01*
X77547Y-268875D01*
X77307Y-268750D01*
X77067Y-268792D01*
X76827Y-268958D01*
G01X74487Y-188958D02*
X74327Y-188833D01*
X74140Y-188750D01*
X73927D01*
X73687Y-188875D01*
X73500Y-189083D01*
X73367Y-189333D01*
X73260Y-189750D01*
X73233Y-190125D01*
X73287Y-190500D01*
X73367Y-190750D01*
X73527Y-191000D01*
X73713Y-191167D01*
X73900Y-191250D01*
X74087D01*
X74273Y-191167D01*
X74433Y-191042D01*
X74567Y-190875D01*
G01X75647Y-190958D02*
X75833Y-191167D01*
X76047Y-191250D01*
X76260Y-191167D01*
X76447Y-190917D01*
X76580Y-190542D01*
X76633Y-190167D01*
Y-189708D01*
X76580Y-189333D01*
X76447Y-189000D01*
X76287Y-188833D01*
X76100Y-188750D01*
X75887Y-188833D01*
X75727Y-189000D01*
X75620Y-189250D01*
X75567Y-189583D01*
X75620Y-189875D01*
X75753Y-190167D01*
X75913Y-190333D01*
X76100Y-190375D01*
X76313Y-190292D01*
X76473Y-190083D01*
X76633Y-189708D01*
G01X74487Y-108958D02*
X74327Y-108833D01*
X74140Y-108750D01*
X73927D01*
X73687Y-108875D01*
X73500Y-109083D01*
X73367Y-109333D01*
X73260Y-109750D01*
X73233Y-110125D01*
X73287Y-110500D01*
X73367Y-110750D01*
X73527Y-111000D01*
X73713Y-111167D01*
X73900Y-111250D01*
X74087D01*
X74273Y-111167D01*
X74433Y-111042D01*
X74567Y-110875D01*
G01X75513D02*
X75673Y-111083D01*
X75860Y-111208D01*
X76100Y-111250D01*
X76340Y-111167D01*
X76527Y-111000D01*
X76660Y-110708D01*
X76687Y-110375D01*
X76633Y-110042D01*
X76500Y-109833D01*
X76313Y-109667D01*
X76127Y-109625D01*
X75940Y-109667D01*
X75700Y-109833D01*
X75780Y-108750D01*
X76500D01*
G01X74487Y-28958D02*
X74327Y-28833D01*
X74140Y-28750D01*
X73927D01*
X73687Y-28875D01*
X73500Y-29083D01*
X73367Y-29333D01*
X73260Y-29750D01*
X73233Y-30125D01*
X73287Y-30500D01*
X73367Y-30750D01*
X73527Y-31000D01*
X73713Y-31167D01*
X73900Y-31250D01*
X74087D01*
X74273Y-31167D01*
X74433Y-31042D01*
X74567Y-30875D01*
G01X76100Y-31250D02*
Y-28750D01*
X75780Y-29250D01*
G01Y-31250D02*
X76420D01*
G01X98500Y-303550D02*
X101000D01*
G01X98500Y-304163D02*
Y-302937D01*
G01X101000Y-301883D02*
X98500D01*
Y-301243D01*
X98625Y-301030D01*
X98917Y-300870D01*
X99250Y-300817D01*
X99583Y-300870D01*
X99833Y-301003D01*
X99958Y-301243D01*
Y-301883D01*
G01X101000Y-298830D02*
X98500D01*
X100292Y-299817D01*
Y-298483D01*
G01X98917Y-297457D02*
X98667Y-297297D01*
X98542Y-297110D01*
X98500Y-296897D01*
X98583Y-296630D01*
X98792Y-296443D01*
X99042Y-296390D01*
X99292Y-296417D01*
X99500Y-296523D01*
X99917Y-297057D01*
X100208Y-297297D01*
X100625Y-297457D01*
X101000Y-297510D01*
Y-296390D01*
G01X90000Y-289683D02*
X85000Y-288100D01*
X90000Y-286517D01*
G01X88250Y-287087D02*
Y-289113D01*
G01X90000Y-283000D02*
X85000D01*
X86000Y-283760D01*
G01X90000D02*
Y-282240D01*
G01X85000Y-277900D02*
X85167Y-278407D01*
X85583Y-278787D01*
X86083Y-279040D01*
X86750Y-279230D01*
X87500Y-279293D01*
X88250Y-279230D01*
X88917Y-279040D01*
X89417Y-278787D01*
X89833Y-278407D01*
X90000Y-277900D01*
X89833Y-277393D01*
X89417Y-277013D01*
X88917Y-276760D01*
X88250Y-276570D01*
X87500Y-276507D01*
X86750Y-276570D01*
X86083Y-276760D01*
X85583Y-277013D01*
X85167Y-277393D01*
X85000Y-277900D01*
G01Y-275433D02*
X115000D01*
Y-204567D01*
X85000D01*
Y-275433D01*
G01X97500Y-246491D02*
X101083D01*
X101833Y-246238D01*
X102333Y-245732D01*
X102500Y-245099D01*
X102333Y-244465D01*
X101833Y-243959D01*
X101083Y-243706D01*
X97500D01*
G01X102500Y-240001D02*
X97500D01*
X98500Y-240760D01*
G01X102500D02*
Y-239241D01*
G01X101500Y-236295D02*
X102083Y-235916D01*
X102417Y-235409D01*
X102500Y-234839D01*
X102417Y-234333D01*
X102000Y-233826D01*
X101500Y-233510D01*
X101000Y-233446D01*
X100417Y-233573D01*
X100000Y-234016D01*
X99833Y-234459D01*
Y-235029D01*
G01Y-234459D02*
X99583Y-234079D01*
X99167Y-233763D01*
X98667Y-233636D01*
X98167Y-233763D01*
X97750Y-234079D01*
X97500Y-234649D01*
X97583Y-235219D01*
X97917Y-235789D01*
G01X93701Y-204567D02*
G03X106299I6299J1247D01*
G01X85000Y-195433D02*
X115000D01*
Y-124567D01*
X85000D01*
Y-195433D01*
G01X97500Y-163942D02*
X101083D01*
X101833Y-163689D01*
X102333Y-163183D01*
X102500Y-162550D01*
X102333Y-161916D01*
X101833Y-161410D01*
X101083Y-161157D01*
X97500D01*
G01X101917Y-158528D02*
X102333Y-158085D01*
X102500Y-157578D01*
X102333Y-157072D01*
X101833Y-156628D01*
X101083Y-156312D01*
X100333Y-156185D01*
X99417D01*
X98667Y-156312D01*
X98000Y-156628D01*
X97667Y-157008D01*
X97500Y-157452D01*
X97667Y-157958D01*
X98000Y-158338D01*
X98500Y-158591D01*
X99167Y-158718D01*
X99750Y-158591D01*
X100333Y-158275D01*
X100667Y-157895D01*
X100750Y-157452D01*
X100583Y-156945D01*
X100167Y-156565D01*
X99417Y-156185D01*
G01X93701Y-124567D02*
G03X106299I6299J1247D01*
G01X85000Y-115433D02*
X115000D01*
Y-44567D01*
X85000D01*
Y-115433D01*
G01X97500Y-83942D02*
X101083D01*
X101833Y-83689D01*
X102333Y-83183D01*
X102500Y-82550D01*
X102333Y-81916D01*
X101833Y-81410D01*
X101083Y-81157D01*
X97500D01*
G01X101750Y-78844D02*
X102167Y-78465D01*
X102417Y-78021D01*
X102500Y-77452D01*
X102333Y-76882D01*
X102000Y-76438D01*
X101417Y-76122D01*
X100750Y-76059D01*
X100083Y-76185D01*
X99667Y-76502D01*
X99333Y-76945D01*
X99250Y-77388D01*
X99333Y-77831D01*
X99667Y-78401D01*
X97500Y-78211D01*
Y-76502D01*
G01X93701Y-44567D02*
G03X106299I6299J1247D01*
G01X85000Y-35433D02*
X115000D01*
Y35433D01*
X85000D01*
Y-35433D01*
G01X97500Y-3942D02*
X101083D01*
X101833Y-3689D01*
X102333Y-3183D01*
X102500Y-2550D01*
X102333Y-1916D01*
X101833Y-1410D01*
X101083Y-1157D01*
X97500D01*
G01X102500Y2548D02*
X97500D01*
X98500Y1789D01*
G01X102500D02*
Y3308D01*
G01X93701Y35433D02*
G03X106299I6299J1247D01*
G01X122000Y-291493D02*
X117000D01*
Y-290227D01*
X117250Y-289720D01*
X117583Y-289340D01*
X118083Y-289023D01*
X118667Y-288770D01*
X119500Y-288707D01*
X120333Y-288770D01*
X120917Y-289023D01*
X121417Y-289340D01*
X121750Y-289720D01*
X122000Y-290227D01*
Y-291493D01*
G01X117000Y-285000D02*
X117167Y-285507D01*
X117583Y-285887D01*
X118083Y-286140D01*
X118750Y-286330D01*
X119500Y-286393D01*
X120250Y-286330D01*
X120917Y-286140D01*
X121417Y-285887D01*
X121833Y-285507D01*
X122000Y-285000D01*
X121833Y-284493D01*
X121417Y-284113D01*
X120917Y-283860D01*
X120250Y-283670D01*
X119500Y-283607D01*
X118750Y-283670D01*
X118083Y-283860D01*
X117583Y-284113D01*
X117167Y-284493D01*
X117000Y-285000D01*
G01X113500Y-302450D02*
X116000D01*
G01X113500Y-303063D02*
Y-301837D01*
G01X116000Y-300783D02*
X113500D01*
Y-300143D01*
X113625Y-299930D01*
X113917Y-299770D01*
X114250Y-299717D01*
X114583Y-299770D01*
X114833Y-299903D01*
X114958Y-300143D01*
Y-300783D01*
G01X116000Y-298050D02*
X113500D01*
X114000Y-298370D01*
G01X116000D02*
Y-297730D01*
G01X123500Y-302450D02*
X126000D01*
G01X123500Y-303063D02*
Y-301837D01*
G01X126000Y-300783D02*
X123500D01*
Y-300143D01*
X123625Y-299930D01*
X123917Y-299770D01*
X124250Y-299717D01*
X124583Y-299770D01*
X124833Y-299903D01*
X124958Y-300143D01*
Y-300783D01*
G01X126000Y-297730D02*
X123500D01*
X125292Y-298717D01*
Y-297383D01*
G01X132000Y-291493D02*
X127000D01*
Y-290227D01*
X127250Y-289720D01*
X127583Y-289340D01*
X128083Y-289023D01*
X128667Y-288770D01*
X129500Y-288707D01*
X130333Y-288770D01*
X130917Y-289023D01*
X131417Y-289340D01*
X131750Y-289720D01*
X132000Y-290227D01*
Y-291493D01*
G01Y-285000D02*
X127000D01*
X128000Y-285760D01*
G01X132000D02*
Y-284240D01*
G01X142000Y-291493D02*
X137000D01*
Y-290227D01*
X137250Y-289720D01*
X137583Y-289340D01*
X138083Y-289023D01*
X138667Y-288770D01*
X139500Y-288707D01*
X140333Y-288770D01*
X140917Y-289023D01*
X141417Y-289340D01*
X141750Y-289720D01*
X142000Y-290227D01*
Y-291493D01*
G01X137833Y-286203D02*
X137333Y-285823D01*
X137083Y-285380D01*
X137000Y-284873D01*
X137167Y-284240D01*
X137583Y-283797D01*
X138083Y-283670D01*
X138583Y-283733D01*
X139000Y-283987D01*
X139833Y-285253D01*
X140417Y-285823D01*
X141250Y-286203D01*
X142000Y-286330D01*
Y-283670D01*
G01X152000Y-291493D02*
X147000D01*
Y-290227D01*
X147250Y-289720D01*
X147583Y-289340D01*
X148083Y-289023D01*
X148667Y-288770D01*
X149500Y-288707D01*
X150333Y-288770D01*
X150917Y-289023D01*
X151417Y-289340D01*
X151750Y-289720D01*
X152000Y-290227D01*
Y-291493D01*
G01X151000Y-286393D02*
X151583Y-286013D01*
X151917Y-285507D01*
X152000Y-284937D01*
X151917Y-284430D01*
X151500Y-283923D01*
X151000Y-283607D01*
X150500Y-283543D01*
X149917Y-283670D01*
X149500Y-284113D01*
X149333Y-284557D01*
Y-285127D01*
G01Y-284557D02*
X149083Y-284177D01*
X148667Y-283860D01*
X148167Y-283733D01*
X147667Y-283860D01*
X147250Y-284177D01*
X147000Y-284747D01*
X147083Y-285317D01*
X147417Y-285887D01*
G01X143500Y-302450D02*
X146000D01*
G01X143500Y-303063D02*
Y-301837D01*
G01X146000Y-300783D02*
X143500D01*
Y-300143D01*
X143625Y-299930D01*
X143917Y-299770D01*
X144250Y-299717D01*
X144583Y-299770D01*
X144833Y-299903D01*
X144958Y-300143D01*
Y-300783D01*
G01X145708Y-298503D02*
X145917Y-298317D01*
X146000Y-298103D01*
X145917Y-297890D01*
X145667Y-297703D01*
X145292Y-297570D01*
X144917Y-297517D01*
X144458D01*
X144083Y-297570D01*
X143750Y-297703D01*
X143583Y-297863D01*
X143500Y-298050D01*
X143583Y-298263D01*
X143750Y-298423D01*
X144000Y-298530D01*
X144333Y-298583D01*
X144625Y-298530D01*
X144917Y-298397D01*
X145083Y-298237D01*
X145125Y-298050D01*
X145042Y-297837D01*
X144833Y-297677D01*
X144458Y-297517D01*
G01X133500Y-302450D02*
X136000D01*
G01X133500Y-303063D02*
Y-301837D01*
G01X136000Y-300783D02*
X133500D01*
Y-300143D01*
X133625Y-299930D01*
X133917Y-299770D01*
X134250Y-299717D01*
X134583Y-299770D01*
X134833Y-299903D01*
X134958Y-300143D01*
Y-300783D01*
G01X136000Y-298103D02*
X135458Y-298050D01*
X135000Y-297970D01*
X134583Y-297863D01*
X134125Y-297730D01*
X133500Y-297517D01*
Y-298583D01*
G01X128387Y-268958D02*
X128227Y-268833D01*
X128040Y-268750D01*
X127827D01*
X127587Y-268875D01*
X127400Y-269083D01*
X127267Y-269333D01*
X127160Y-269750D01*
X127133Y-270125D01*
X127187Y-270500D01*
X127267Y-270750D01*
X127427Y-271000D01*
X127613Y-271167D01*
X127800Y-271250D01*
X127987D01*
X128173Y-271167D01*
X128333Y-271042D01*
X128467Y-270875D01*
G01X130000Y-271250D02*
Y-268750D01*
X129680Y-269250D01*
G01Y-271250D02*
X130320D01*
G01X132520D02*
Y-268750D01*
X131533Y-270542D01*
X132867D01*
G01X145000Y-275433D02*
X175000D01*
Y-204567D01*
X145000D01*
Y-275433D01*
G01X128387Y-188958D02*
X128227Y-188833D01*
X128040Y-188750D01*
X127827D01*
X127587Y-188875D01*
X127400Y-189083D01*
X127267Y-189333D01*
X127160Y-189750D01*
X127133Y-190125D01*
X127187Y-190500D01*
X127267Y-190750D01*
X127427Y-191000D01*
X127613Y-191167D01*
X127800Y-191250D01*
X127987D01*
X128173Y-191167D01*
X128333Y-191042D01*
X128467Y-190875D01*
G01X130000Y-191250D02*
Y-188750D01*
X129680Y-189250D01*
G01Y-191250D02*
X130320D01*
G01X132200Y-188750D02*
X131987Y-188833D01*
X131827Y-189042D01*
X131720Y-189292D01*
X131640Y-189625D01*
X131613Y-190000D01*
X131640Y-190375D01*
X131720Y-190708D01*
X131827Y-190958D01*
X131987Y-191167D01*
X132200Y-191250D01*
X132413Y-191167D01*
X132573Y-190958D01*
X132680Y-190708D01*
X132760Y-190375D01*
X132787Y-190000D01*
X132760Y-189625D01*
X132680Y-189292D01*
X132573Y-189042D01*
X132413Y-188833D01*
X132200Y-188750D01*
G01X145000Y-195433D02*
X175000D01*
Y-124567D01*
X145000D01*
Y-195433D01*
G01X129487Y-108958D02*
X129327Y-108833D01*
X129140Y-108750D01*
X128927D01*
X128687Y-108875D01*
X128500Y-109083D01*
X128367Y-109333D01*
X128260Y-109750D01*
X128233Y-110125D01*
X128287Y-110500D01*
X128367Y-110750D01*
X128527Y-111000D01*
X128713Y-111167D01*
X128900Y-111250D01*
X129087D01*
X129273Y-111167D01*
X129433Y-111042D01*
X129567Y-110875D01*
G01X130593Y-110208D02*
X130780Y-109917D01*
X130940Y-109750D01*
X131153Y-109667D01*
X131340Y-109750D01*
X131473Y-109917D01*
X131580Y-110167D01*
X131607Y-110458D01*
X131580Y-110708D01*
X131473Y-110958D01*
X131313Y-111167D01*
X131127Y-111250D01*
X130913Y-111167D01*
X130727Y-110917D01*
X130620Y-110542D01*
X130593Y-110125D01*
X130647Y-109583D01*
X130727Y-109292D01*
X130860Y-109000D01*
X131047Y-108792D01*
X131233Y-108750D01*
X131420Y-108833D01*
X131553Y-109042D01*
G01X145000Y-115433D02*
X175000D01*
Y-44567D01*
X145000D01*
Y-115433D01*
G01X129487Y-28958D02*
X129327Y-28833D01*
X129140Y-28750D01*
X128927D01*
X128687Y-28875D01*
X128500Y-29083D01*
X128367Y-29333D01*
X128260Y-29750D01*
X128233Y-30125D01*
X128287Y-30500D01*
X128367Y-30750D01*
X128527Y-31000D01*
X128713Y-31167D01*
X128900Y-31250D01*
X129087D01*
X129273Y-31167D01*
X129433Y-31042D01*
X129567Y-30875D01*
G01X130593Y-29167D02*
X130753Y-28917D01*
X130940Y-28792D01*
X131153Y-28750D01*
X131420Y-28833D01*
X131607Y-29042D01*
X131660Y-29292D01*
X131633Y-29542D01*
X131527Y-29750D01*
X130993Y-30167D01*
X130753Y-30458D01*
X130593Y-30875D01*
X130540Y-31250D01*
X131660D01*
G01X145000Y-35433D02*
X175000D01*
Y35433D01*
X145000D01*
Y-35433D01*
G01X162000Y-291493D02*
X157000D01*
Y-290227D01*
X157250Y-289720D01*
X157583Y-289340D01*
X158083Y-289023D01*
X158667Y-288770D01*
X159500Y-288707D01*
X160333Y-288770D01*
X160917Y-289023D01*
X161417Y-289340D01*
X161750Y-289720D01*
X162000Y-290227D01*
Y-291493D01*
G01Y-284240D02*
X157000D01*
X160583Y-286583D01*
Y-283417D01*
G01X172000Y-291493D02*
X167000D01*
Y-290227D01*
X167250Y-289720D01*
X167583Y-289340D01*
X168083Y-289023D01*
X168667Y-288770D01*
X169500Y-288707D01*
X170333Y-288770D01*
X170917Y-289023D01*
X171417Y-289340D01*
X171750Y-289720D01*
X172000Y-290227D01*
Y-291493D01*
G01X171250Y-286393D02*
X171667Y-286013D01*
X171917Y-285570D01*
X172000Y-285000D01*
X171833Y-284430D01*
X171500Y-283987D01*
X170917Y-283670D01*
X170250Y-283607D01*
X169583Y-283733D01*
X169167Y-284050D01*
X168833Y-284493D01*
X168750Y-284937D01*
X168833Y-285380D01*
X169167Y-285950D01*
X167000Y-285760D01*
Y-284050D01*
G01X153500Y-303550D02*
X156000D01*
G01X153500Y-304163D02*
Y-302937D01*
G01X156000Y-301883D02*
X153500D01*
Y-301243D01*
X153625Y-301030D01*
X153917Y-300870D01*
X154250Y-300817D01*
X154583Y-300870D01*
X154833Y-301003D01*
X154958Y-301243D01*
Y-301883D01*
G01X156000Y-299150D02*
X153500D01*
X154000Y-299470D01*
G01X156000D02*
Y-298830D01*
G01X153917Y-297457D02*
X153667Y-297297D01*
X153542Y-297110D01*
X153500Y-296897D01*
X153583Y-296630D01*
X153792Y-296443D01*
X154042Y-296390D01*
X154292Y-296417D01*
X154500Y-296523D01*
X154917Y-297057D01*
X155208Y-297297D01*
X155625Y-297457D01*
X156000Y-297510D01*
Y-296390D01*
G01X163500Y-303550D02*
X166000D01*
G01X163500Y-304163D02*
Y-302937D01*
G01X166000Y-301883D02*
X163500D01*
Y-301243D01*
X163625Y-301030D01*
X163917Y-300870D01*
X164250Y-300817D01*
X164583Y-300870D01*
X164833Y-301003D01*
X164958Y-301243D01*
Y-301883D01*
G01X166000Y-299150D02*
X163500D01*
X164000Y-299470D01*
G01X166000D02*
Y-298830D01*
G01Y-296630D02*
X163500D01*
X165292Y-297617D01*
Y-296283D01*
G01X157500Y-246491D02*
X161083D01*
X161833Y-246238D01*
X162333Y-245732D01*
X162500Y-245099D01*
X162333Y-244465D01*
X161833Y-243959D01*
X161083Y-243706D01*
X157500D01*
G01X162500Y-240001D02*
X157500D01*
X158500Y-240760D01*
G01X162500D02*
Y-239241D01*
G01Y-234143D02*
X157500D01*
X161083Y-236485D01*
Y-233320D01*
G01X153701Y-204567D02*
G03X166299I6299J1247D01*
G01X157500Y-166491D02*
X161083D01*
X161833Y-166238D01*
X162333Y-165732D01*
X162500Y-165099D01*
X162333Y-164465D01*
X161833Y-163959D01*
X161083Y-163706D01*
X157500D01*
G01X162500Y-160001D02*
X157500D01*
X158500Y-160760D01*
G01X162500D02*
Y-159241D01*
G01X157500Y-154903D02*
X157667Y-155409D01*
X158083Y-155789D01*
X158583Y-156042D01*
X159250Y-156232D01*
X160000Y-156295D01*
X160750Y-156232D01*
X161417Y-156042D01*
X161917Y-155789D01*
X162333Y-155409D01*
X162500Y-154903D01*
X162333Y-154396D01*
X161917Y-154016D01*
X161417Y-153763D01*
X160750Y-153573D01*
X160000Y-153510D01*
X159250Y-153573D01*
X158583Y-153763D01*
X158083Y-154016D01*
X157667Y-154396D01*
X157500Y-154903D01*
G01X153701Y-124567D02*
G03X166299I6299J1247D01*
G01X157500Y-83942D02*
X161083D01*
X161833Y-83689D01*
X162333Y-83183D01*
X162500Y-82550D01*
X162333Y-81916D01*
X161833Y-81410D01*
X161083Y-81157D01*
X157500D01*
G01X160417Y-78655D02*
X159833Y-78211D01*
X159500Y-77831D01*
X159333Y-77325D01*
X159500Y-76882D01*
X159833Y-76565D01*
X160333Y-76312D01*
X160917Y-76248D01*
X161417Y-76312D01*
X161917Y-76565D01*
X162333Y-76945D01*
X162500Y-77388D01*
X162333Y-77895D01*
X161833Y-78338D01*
X161083Y-78591D01*
X160250Y-78655D01*
X159167Y-78528D01*
X158583Y-78338D01*
X158000Y-78021D01*
X157583Y-77578D01*
X157500Y-77135D01*
X157667Y-76692D01*
X158083Y-76375D01*
G01X153701Y-44567D02*
G03X166299I6299J1247D01*
G01X157500Y-3942D02*
X161083D01*
X161833Y-3689D01*
X162333Y-3183D01*
X162500Y-2550D01*
X162333Y-1916D01*
X161833Y-1410D01*
X161083Y-1157D01*
X157500D01*
G01X158333Y1345D02*
X157833Y1725D01*
X157583Y2169D01*
X157500Y2675D01*
X157667Y3308D01*
X158083Y3752D01*
X158583Y3878D01*
X159083Y3815D01*
X159500Y3562D01*
X160333Y2295D01*
X160917Y1725D01*
X161750Y1345D01*
X162500Y1219D01*
Y3878D01*
G01X153701Y35433D02*
G03X166299I6299J1247D01*
G01X182000Y-291493D02*
X177000D01*
Y-290227D01*
X177250Y-289720D01*
X177583Y-289340D01*
X178083Y-289023D01*
X178667Y-288770D01*
X179500Y-288707D01*
X180333Y-288770D01*
X180917Y-289023D01*
X181417Y-289340D01*
X181750Y-289720D01*
X182000Y-290227D01*
Y-291493D01*
G01X179917Y-286203D02*
X179333Y-285760D01*
X179000Y-285380D01*
X178833Y-284873D01*
X179000Y-284430D01*
X179333Y-284113D01*
X179833Y-283860D01*
X180417Y-283797D01*
X180917Y-283860D01*
X181417Y-284113D01*
X181833Y-284493D01*
X182000Y-284937D01*
X181833Y-285443D01*
X181333Y-285887D01*
X180583Y-286140D01*
X179750Y-286203D01*
X178667Y-286077D01*
X178083Y-285887D01*
X177500Y-285570D01*
X177083Y-285127D01*
X177000Y-284683D01*
X177167Y-284240D01*
X177583Y-283923D01*
G01X192000Y-291493D02*
X187000D01*
Y-290227D01*
X187250Y-289720D01*
X187583Y-289340D01*
X188083Y-289023D01*
X188667Y-288770D01*
X189500Y-288707D01*
X190333Y-288770D01*
X190917Y-289023D01*
X191417Y-289340D01*
X191750Y-289720D01*
X192000Y-290227D01*
Y-291493D01*
G01Y-285127D02*
X190917Y-285000D01*
X190000Y-284810D01*
X189167Y-284557D01*
X188250Y-284240D01*
X187000Y-283733D01*
Y-286267D01*
G01X173500Y-303550D02*
X176000D01*
G01X173500Y-304163D02*
Y-302937D01*
G01X176000Y-301883D02*
X173500D01*
Y-301243D01*
X173625Y-301030D01*
X173917Y-300870D01*
X174250Y-300817D01*
X174583Y-300870D01*
X174833Y-301003D01*
X174958Y-301243D01*
Y-301883D01*
G01X176000Y-299150D02*
X173500D01*
X174000Y-299470D01*
G01X176000D02*
Y-298830D01*
G01Y-297003D02*
X175458Y-296950D01*
X175000Y-296870D01*
X174583Y-296763D01*
X174125Y-296630D01*
X173500Y-296417D01*
Y-297483D01*
G01X183500Y-303550D02*
X186000D01*
G01X183500Y-304163D02*
Y-302937D01*
G01X186000Y-301883D02*
X183500D01*
Y-301243D01*
X183625Y-301030D01*
X183917Y-300870D01*
X184250Y-300817D01*
X184583Y-300870D01*
X184833Y-301003D01*
X184958Y-301243D01*
Y-301883D01*
G01X186000Y-299150D02*
X183500D01*
X184000Y-299470D01*
G01X186000D02*
Y-298830D01*
G01X185708Y-297403D02*
X185917Y-297217D01*
X186000Y-297003D01*
X185917Y-296790D01*
X185667Y-296603D01*
X185292Y-296470D01*
X184917Y-296417D01*
X184458D01*
X184083Y-296470D01*
X183750Y-296603D01*
X183583Y-296763D01*
X183500Y-296950D01*
X183583Y-297163D01*
X183750Y-297323D01*
X184000Y-297430D01*
X184333Y-297483D01*
X184625Y-297430D01*
X184917Y-297297D01*
X185083Y-297137D01*
X185125Y-296950D01*
X185042Y-296737D01*
X184833Y-296577D01*
X184458Y-296417D01*
G01X188387Y-268958D02*
X188227Y-268833D01*
X188040Y-268750D01*
X187827D01*
X187587Y-268875D01*
X187400Y-269083D01*
X187267Y-269333D01*
X187160Y-269750D01*
X187133Y-270125D01*
X187187Y-270500D01*
X187267Y-270750D01*
X187427Y-271000D01*
X187613Y-271167D01*
X187800Y-271250D01*
X187987D01*
X188173Y-271167D01*
X188333Y-271042D01*
X188467Y-270875D01*
G01X190000Y-271250D02*
Y-268750D01*
X189680Y-269250D01*
G01Y-271250D02*
X190320D01*
G01X191613Y-270875D02*
X191773Y-271083D01*
X191960Y-271208D01*
X192200Y-271250D01*
X192440Y-271167D01*
X192627Y-271000D01*
X192760Y-270708D01*
X192787Y-270375D01*
X192733Y-270042D01*
X192600Y-269833D01*
X192413Y-269667D01*
X192227Y-269625D01*
X192040Y-269667D01*
X191800Y-269833D01*
X191880Y-268750D01*
X192600D01*
G01X188387Y-188958D02*
X188227Y-188833D01*
X188040Y-188750D01*
X187827D01*
X187587Y-188875D01*
X187400Y-189083D01*
X187267Y-189333D01*
X187160Y-189750D01*
X187133Y-190125D01*
X187187Y-190500D01*
X187267Y-190750D01*
X187427Y-191000D01*
X187613Y-191167D01*
X187800Y-191250D01*
X187987D01*
X188173Y-191167D01*
X188333Y-191042D01*
X188467Y-190875D01*
G01X190000Y-191250D02*
Y-188750D01*
X189680Y-189250D01*
G01Y-191250D02*
X190320D01*
G01X192200D02*
Y-188750D01*
X191880Y-189250D01*
G01Y-191250D02*
X192520D01*
G01X189487Y-108958D02*
X189327Y-108833D01*
X189140Y-108750D01*
X188927D01*
X188687Y-108875D01*
X188500Y-109083D01*
X188367Y-109333D01*
X188260Y-109750D01*
X188233Y-110125D01*
X188287Y-110500D01*
X188367Y-110750D01*
X188527Y-111000D01*
X188713Y-111167D01*
X188900Y-111250D01*
X189087D01*
X189273Y-111167D01*
X189433Y-111042D01*
X189567Y-110875D01*
G01X191047Y-111250D02*
X191100Y-110708D01*
X191180Y-110250D01*
X191287Y-109833D01*
X191420Y-109375D01*
X191633Y-108750D01*
X190567D01*
G01X189487Y-28958D02*
X189327Y-28833D01*
X189140Y-28750D01*
X188927D01*
X188687Y-28875D01*
X188500Y-29083D01*
X188367Y-29333D01*
X188260Y-29750D01*
X188233Y-30125D01*
X188287Y-30500D01*
X188367Y-30750D01*
X188527Y-31000D01*
X188713Y-31167D01*
X188900Y-31250D01*
X189087D01*
X189273Y-31167D01*
X189433Y-31042D01*
X189567Y-30875D01*
G01X190513Y-30750D02*
X190673Y-31042D01*
X190887Y-31208D01*
X191127Y-31250D01*
X191340Y-31208D01*
X191553Y-31000D01*
X191687Y-30750D01*
X191713Y-30500D01*
X191660Y-30208D01*
X191473Y-30000D01*
X191287Y-29917D01*
X191047D01*
G01X191287D02*
X191447Y-29792D01*
X191580Y-29583D01*
X191633Y-29333D01*
X191580Y-29083D01*
X191447Y-28875D01*
X191207Y-28750D01*
X190967Y-28792D01*
X190727Y-28958D01*
G01X202000Y-291493D02*
X197000D01*
Y-290227D01*
X197250Y-289720D01*
X197583Y-289340D01*
X198083Y-289023D01*
X198667Y-288770D01*
X199500Y-288707D01*
X200333Y-288770D01*
X200917Y-289023D01*
X201417Y-289340D01*
X201750Y-289720D01*
X202000Y-290227D01*
Y-291493D01*
G01Y-285000D02*
X201917Y-284557D01*
X201667Y-284050D01*
X201250Y-283733D01*
X200667Y-283607D01*
X200083Y-283733D01*
X199583Y-284113D01*
X199333Y-284683D01*
Y-285317D01*
X199167Y-285697D01*
X198750Y-286013D01*
X198167Y-286140D01*
X197583Y-285950D01*
X197167Y-285507D01*
X197000Y-285000D01*
X197167Y-284493D01*
X197583Y-284050D01*
X198167Y-283860D01*
X198750Y-283987D01*
X199167Y-284303D01*
X199333Y-284683D01*
Y-285317D01*
X199583Y-285887D01*
X200083Y-286267D01*
X200667Y-286393D01*
X201250Y-286267D01*
X201667Y-285950D01*
X201917Y-285443D01*
X202000Y-285000D01*
G01X212000Y-291493D02*
X207000D01*
Y-290227D01*
X207250Y-289720D01*
X207583Y-289340D01*
X208083Y-289023D01*
X208667Y-288770D01*
X209500Y-288707D01*
X210333Y-288770D01*
X210917Y-289023D01*
X211417Y-289340D01*
X211750Y-289720D01*
X212000Y-290227D01*
Y-291493D01*
G01X211417Y-286077D02*
X211833Y-285633D01*
X212000Y-285127D01*
X211833Y-284620D01*
X211333Y-284177D01*
X210583Y-283860D01*
X209833Y-283733D01*
X208917D01*
X208167Y-283860D01*
X207500Y-284177D01*
X207167Y-284557D01*
X207000Y-285000D01*
X207167Y-285507D01*
X207500Y-285887D01*
X208000Y-286140D01*
X208667Y-286267D01*
X209250Y-286140D01*
X209833Y-285823D01*
X210167Y-285443D01*
X210250Y-285000D01*
X210083Y-284493D01*
X209667Y-284113D01*
X208917Y-283733D01*
G01X193500Y-303550D02*
X196000D01*
G01X193500Y-304163D02*
Y-302937D01*
G01X196000Y-301883D02*
X193500D01*
Y-301243D01*
X193625Y-301030D01*
X193917Y-300870D01*
X194250Y-300817D01*
X194583Y-300870D01*
X194833Y-301003D01*
X194958Y-301243D01*
Y-301883D01*
G01X193917Y-299657D02*
X193667Y-299497D01*
X193542Y-299310D01*
X193500Y-299097D01*
X193583Y-298830D01*
X193792Y-298643D01*
X194042Y-298590D01*
X194292Y-298617D01*
X194500Y-298723D01*
X194917Y-299257D01*
X195208Y-299497D01*
X195625Y-299657D01*
X196000Y-299710D01*
Y-298590D01*
G01X193917Y-297457D02*
X193667Y-297297D01*
X193542Y-297110D01*
X193500Y-296897D01*
X193583Y-296630D01*
X193792Y-296443D01*
X194042Y-296390D01*
X194292Y-296417D01*
X194500Y-296523D01*
X194917Y-297057D01*
X195208Y-297297D01*
X195625Y-297457D01*
X196000Y-297510D01*
Y-296390D01*
G01X203500Y-303550D02*
X206000D01*
G01X203500Y-304163D02*
Y-302937D01*
G01X206000Y-301883D02*
X203500D01*
Y-301243D01*
X203625Y-301030D01*
X203917Y-300870D01*
X204250Y-300817D01*
X204583Y-300870D01*
X204833Y-301003D01*
X204958Y-301243D01*
Y-301883D01*
G01X203917Y-299657D02*
X203667Y-299497D01*
X203542Y-299310D01*
X203500Y-299097D01*
X203583Y-298830D01*
X203792Y-298643D01*
X204042Y-298590D01*
X204292Y-298617D01*
X204500Y-298723D01*
X204917Y-299257D01*
X205208Y-299497D01*
X205625Y-299657D01*
X206000Y-299710D01*
Y-298590D01*
G01Y-296630D02*
X203500D01*
X205292Y-297617D01*
Y-296283D01*
G01X205000Y-275433D02*
X235000D01*
Y-204567D01*
X205000D01*
Y-275433D01*
G01Y-195433D02*
X235000D01*
Y-124567D01*
X205000D01*
Y-195433D01*
G01Y-115433D02*
X235000D01*
Y-44567D01*
X205000D01*
Y-115433D01*
G01Y-35433D02*
X235000D01*
Y35433D01*
X205000D01*
Y-35433D01*
G01X222000Y-291493D02*
X217000D01*
Y-290227D01*
X217250Y-289720D01*
X217583Y-289340D01*
X218083Y-289023D01*
X218667Y-288770D01*
X219500Y-288707D01*
X220333Y-288770D01*
X220917Y-289023D01*
X221417Y-289340D01*
X221750Y-289720D01*
X222000Y-290227D01*
Y-291493D01*
G01Y-285000D02*
X217000D01*
X218000Y-285760D01*
G01X222000D02*
Y-284240D01*
G01X217000Y-279900D02*
X217167Y-280407D01*
X217583Y-280787D01*
X218083Y-281040D01*
X218750Y-281230D01*
X219500Y-281293D01*
X220250Y-281230D01*
X220917Y-281040D01*
X221417Y-280787D01*
X221833Y-280407D01*
X222000Y-279900D01*
X221833Y-279393D01*
X221417Y-279013D01*
X220917Y-278760D01*
X220250Y-278570D01*
X219500Y-278507D01*
X218750Y-278570D01*
X218083Y-278760D01*
X217583Y-279013D01*
X217167Y-279393D01*
X217000Y-279900D01*
G01X232000Y-291493D02*
X227000D01*
Y-290227D01*
X227250Y-289720D01*
X227583Y-289340D01*
X228083Y-289023D01*
X228667Y-288770D01*
X229500Y-288707D01*
X230333Y-288770D01*
X230917Y-289023D01*
X231417Y-289340D01*
X231750Y-289720D01*
X232000Y-290227D01*
Y-291493D01*
G01Y-285000D02*
X227000D01*
X228000Y-285760D01*
G01X232000D02*
Y-284240D01*
G01Y-279900D02*
X227000D01*
X228000Y-280660D01*
G01X232000D02*
Y-279140D01*
G01X213500Y-303550D02*
X216000D01*
G01X213500Y-304163D02*
Y-302937D01*
G01X216000Y-301883D02*
X213500D01*
Y-301243D01*
X213625Y-301030D01*
X213917Y-300870D01*
X214250Y-300817D01*
X214583Y-300870D01*
X214833Y-301003D01*
X214958Y-301243D01*
Y-301883D01*
G01X213917Y-299657D02*
X213667Y-299497D01*
X213542Y-299310D01*
X213500Y-299097D01*
X213583Y-298830D01*
X213792Y-298643D01*
X214042Y-298590D01*
X214292Y-298617D01*
X214500Y-298723D01*
X214917Y-299257D01*
X215208Y-299497D01*
X215625Y-299657D01*
X216000Y-299710D01*
Y-298590D01*
G01X214958Y-297457D02*
X214667Y-297270D01*
X214500Y-297110D01*
X214417Y-296897D01*
X214500Y-296710D01*
X214667Y-296577D01*
X214917Y-296470D01*
X215208Y-296443D01*
X215458Y-296470D01*
X215708Y-296577D01*
X215917Y-296737D01*
X216000Y-296923D01*
X215917Y-297137D01*
X215667Y-297323D01*
X215292Y-297430D01*
X214875Y-297457D01*
X214333Y-297403D01*
X214042Y-297323D01*
X213750Y-297190D01*
X213542Y-297003D01*
X213500Y-296817D01*
X213583Y-296630D01*
X213792Y-296497D01*
G01X223500Y-303550D02*
X226000D01*
G01X223500Y-304163D02*
Y-302937D01*
G01X226000Y-301883D02*
X223500D01*
Y-301243D01*
X223625Y-301030D01*
X223917Y-300870D01*
X224250Y-300817D01*
X224583Y-300870D01*
X224833Y-301003D01*
X224958Y-301243D01*
Y-301883D01*
G01X223917Y-299657D02*
X223667Y-299497D01*
X223542Y-299310D01*
X223500Y-299097D01*
X223583Y-298830D01*
X223792Y-298643D01*
X224042Y-298590D01*
X224292Y-298617D01*
X224500Y-298723D01*
X224917Y-299257D01*
X225208Y-299497D01*
X225625Y-299657D01*
X226000Y-299710D01*
Y-298590D01*
G01Y-296950D02*
X225958Y-296763D01*
X225833Y-296550D01*
X225625Y-296417D01*
X225333Y-296363D01*
X225042Y-296417D01*
X224792Y-296577D01*
X224667Y-296817D01*
Y-297083D01*
X224583Y-297243D01*
X224375Y-297377D01*
X224083Y-297430D01*
X223792Y-297350D01*
X223583Y-297163D01*
X223500Y-296950D01*
X223583Y-296737D01*
X223792Y-296550D01*
X224083Y-296470D01*
X224375Y-296523D01*
X224583Y-296657D01*
X224667Y-296817D01*
Y-297083D01*
X224792Y-297323D01*
X225042Y-297483D01*
X225333Y-297537D01*
X225625Y-297483D01*
X225833Y-297350D01*
X225958Y-297137D01*
X226000Y-296950D01*
G01X217500Y-246491D02*
X221083D01*
X221833Y-246238D01*
X222333Y-245732D01*
X222500Y-245099D01*
X222333Y-244465D01*
X221833Y-243959D01*
X221083Y-243706D01*
X217500D01*
G01X222500Y-240001D02*
X217500D01*
X218500Y-240760D01*
G01X222500D02*
Y-239241D01*
G01X221750Y-236295D02*
X222167Y-235916D01*
X222417Y-235472D01*
X222500Y-234903D01*
X222333Y-234333D01*
X222000Y-233889D01*
X221417Y-233573D01*
X220750Y-233510D01*
X220083Y-233636D01*
X219667Y-233953D01*
X219333Y-234396D01*
X219250Y-234839D01*
X219333Y-235282D01*
X219667Y-235852D01*
X217500Y-235662D01*
Y-233953D01*
G01X213701Y-204567D02*
G03X226299I6299J1247D01*
G01X217500Y-166491D02*
X221083D01*
X221833Y-166238D01*
X222333Y-165732D01*
X222500Y-165099D01*
X222333Y-164465D01*
X221833Y-163959D01*
X221083Y-163706D01*
X217500D01*
G01X222500Y-160001D02*
X217500D01*
X218500Y-160760D01*
G01X222500D02*
Y-159241D01*
G01Y-154903D02*
X217500D01*
X218500Y-155662D01*
G01X222500D02*
Y-154143D01*
G01X213701Y-124567D02*
G03X226299I6299J1247D01*
G01X217500Y-83942D02*
X221083D01*
X221833Y-83689D01*
X222333Y-83183D01*
X222500Y-82550D01*
X222333Y-81916D01*
X221833Y-81410D01*
X221083Y-81157D01*
X217500D01*
G01X222500Y-77578D02*
X221417Y-77452D01*
X220500Y-77262D01*
X219667Y-77008D01*
X218750Y-76692D01*
X217500Y-76185D01*
Y-78718D01*
G01X213701Y-44567D02*
G03X226299I6299J1247D01*
G01X217500Y-3942D02*
X221083D01*
X221833Y-3689D01*
X222333Y-3183D01*
X222500Y-2550D01*
X222333Y-1916D01*
X221833Y-1410D01*
X221083Y-1157D01*
X217500D01*
G01X221500Y1156D02*
X222083Y1535D01*
X222417Y2042D01*
X222500Y2612D01*
X222417Y3118D01*
X222000Y3625D01*
X221500Y3941D01*
X221000Y4005D01*
X220417Y3878D01*
X220000Y3435D01*
X219833Y2992D01*
Y2422D01*
G01Y2992D02*
X219583Y3372D01*
X219167Y3688D01*
X218667Y3815D01*
X218167Y3688D01*
X217750Y3372D01*
X217500Y2802D01*
X217583Y2232D01*
X217917Y1662D01*
G01X213701Y35433D02*
G03X226299I6299J1247D01*
G01X242000Y-291493D02*
X237000D01*
Y-290227D01*
X237250Y-289720D01*
X237583Y-289340D01*
X238083Y-289023D01*
X238667Y-288770D01*
X239500Y-288707D01*
X240333Y-288770D01*
X240917Y-289023D01*
X241417Y-289340D01*
X241750Y-289720D01*
X242000Y-290227D01*
Y-291493D01*
G01Y-285000D02*
X237000D01*
X238000Y-285760D01*
G01X242000D02*
Y-284240D01*
G01X237833Y-281103D02*
X237333Y-280723D01*
X237083Y-280280D01*
X237000Y-279773D01*
X237167Y-279140D01*
X237583Y-278697D01*
X238083Y-278570D01*
X238583Y-278633D01*
X239000Y-278887D01*
X239833Y-280153D01*
X240417Y-280723D01*
X241250Y-281103D01*
X242000Y-281230D01*
Y-278570D01*
G01X252000Y-291493D02*
X247000D01*
Y-290227D01*
X247250Y-289720D01*
X247583Y-289340D01*
X248083Y-289023D01*
X248667Y-288770D01*
X249500Y-288707D01*
X250333Y-288770D01*
X250917Y-289023D01*
X251417Y-289340D01*
X251750Y-289720D01*
X252000Y-290227D01*
Y-291493D01*
G01Y-285000D02*
X247000D01*
X248000Y-285760D01*
G01X252000D02*
Y-284240D01*
G01X251000Y-281293D02*
X251583Y-280913D01*
X251917Y-280407D01*
X252000Y-279837D01*
X251917Y-279330D01*
X251500Y-278823D01*
X251000Y-278507D01*
X250500Y-278443D01*
X249917Y-278570D01*
X249500Y-279013D01*
X249333Y-279457D01*
Y-280027D01*
G01Y-279457D02*
X249083Y-279077D01*
X248667Y-278760D01*
X248167Y-278633D01*
X247667Y-278760D01*
X247250Y-279077D01*
X247000Y-279647D01*
X247083Y-280217D01*
X247417Y-280787D01*
G01X233500Y-303550D02*
X236000D01*
G01X233500Y-304163D02*
Y-302937D01*
G01X236000Y-301883D02*
X233500D01*
Y-301243D01*
X233625Y-301030D01*
X233917Y-300870D01*
X234250Y-300817D01*
X234583Y-300870D01*
X234833Y-301003D01*
X234958Y-301243D01*
Y-301883D01*
G01X235500Y-299737D02*
X235792Y-299577D01*
X235958Y-299363D01*
X236000Y-299123D01*
X235958Y-298910D01*
X235750Y-298697D01*
X235500Y-298563D01*
X235250Y-298537D01*
X234958Y-298590D01*
X234750Y-298777D01*
X234667Y-298963D01*
Y-299203D01*
G01Y-298963D02*
X234542Y-298803D01*
X234333Y-298670D01*
X234083Y-298617D01*
X233833Y-298670D01*
X233625Y-298803D01*
X233500Y-299043D01*
X233542Y-299283D01*
X233708Y-299523D01*
G01X233500Y-296950D02*
X233583Y-297163D01*
X233792Y-297323D01*
X234042Y-297430D01*
X234375Y-297510D01*
X234750Y-297537D01*
X235125Y-297510D01*
X235458Y-297430D01*
X235708Y-297323D01*
X235917Y-297163D01*
X236000Y-296950D01*
X235917Y-296737D01*
X235708Y-296577D01*
X235458Y-296470D01*
X235125Y-296390D01*
X234750Y-296363D01*
X234375Y-296390D01*
X234042Y-296470D01*
X233792Y-296577D01*
X233583Y-296737D01*
X233500Y-296950D01*
G01X243500Y-303550D02*
X246000D01*
G01X243500Y-304163D02*
Y-302937D01*
G01X246000Y-301883D02*
X243500D01*
Y-301243D01*
X243625Y-301030D01*
X243917Y-300870D01*
X244250Y-300817D01*
X244583Y-300870D01*
X244833Y-301003D01*
X244958Y-301243D01*
Y-301883D01*
G01X245500Y-299737D02*
X245792Y-299577D01*
X245958Y-299363D01*
X246000Y-299123D01*
X245958Y-298910D01*
X245750Y-298697D01*
X245500Y-298563D01*
X245250Y-298537D01*
X244958Y-298590D01*
X244750Y-298777D01*
X244667Y-298963D01*
Y-299203D01*
G01Y-298963D02*
X244542Y-298803D01*
X244333Y-298670D01*
X244083Y-298617D01*
X243833Y-298670D01*
X243625Y-298803D01*
X243500Y-299043D01*
X243542Y-299283D01*
X243708Y-299523D01*
G01X243917Y-297457D02*
X243667Y-297297D01*
X243542Y-297110D01*
X243500Y-296897D01*
X243583Y-296630D01*
X243792Y-296443D01*
X244042Y-296390D01*
X244292Y-296417D01*
X244500Y-296523D01*
X244917Y-297057D01*
X245208Y-297297D01*
X245625Y-297457D01*
X246000Y-297510D01*
Y-296390D01*
G01X248387Y-268958D02*
X248227Y-268833D01*
X248040Y-268750D01*
X247827D01*
X247587Y-268875D01*
X247400Y-269083D01*
X247267Y-269333D01*
X247160Y-269750D01*
X247133Y-270125D01*
X247187Y-270500D01*
X247267Y-270750D01*
X247427Y-271000D01*
X247613Y-271167D01*
X247800Y-271250D01*
X247987D01*
X248173Y-271167D01*
X248333Y-271042D01*
X248467Y-270875D01*
G01X250000Y-271250D02*
Y-268750D01*
X249680Y-269250D01*
G01Y-271250D02*
X250320D01*
G01X251693Y-270208D02*
X251880Y-269917D01*
X252040Y-269750D01*
X252253Y-269667D01*
X252440Y-269750D01*
X252573Y-269917D01*
X252680Y-270167D01*
X252707Y-270458D01*
X252680Y-270708D01*
X252573Y-270958D01*
X252413Y-271167D01*
X252227Y-271250D01*
X252013Y-271167D01*
X251827Y-270917D01*
X251720Y-270542D01*
X251693Y-270125D01*
X251747Y-269583D01*
X251827Y-269292D01*
X251960Y-269000D01*
X252147Y-268792D01*
X252333Y-268750D01*
X252520Y-268833D01*
X252653Y-269042D01*
G01X248387Y-188958D02*
X248227Y-188833D01*
X248040Y-188750D01*
X247827D01*
X247587Y-188875D01*
X247400Y-189083D01*
X247267Y-189333D01*
X247160Y-189750D01*
X247133Y-190125D01*
X247187Y-190500D01*
X247267Y-190750D01*
X247427Y-191000D01*
X247613Y-191167D01*
X247800Y-191250D01*
X247987D01*
X248173Y-191167D01*
X248333Y-191042D01*
X248467Y-190875D01*
G01X250000Y-191250D02*
Y-188750D01*
X249680Y-189250D01*
G01Y-191250D02*
X250320D01*
G01X251693Y-189167D02*
X251853Y-188917D01*
X252040Y-188792D01*
X252253Y-188750D01*
X252520Y-188833D01*
X252707Y-189042D01*
X252760Y-189292D01*
X252733Y-189542D01*
X252627Y-189750D01*
X252093Y-190167D01*
X251853Y-190458D01*
X251693Y-190875D01*
X251640Y-191250D01*
X252760D01*
G01X249487Y-108958D02*
X249327Y-108833D01*
X249140Y-108750D01*
X248927D01*
X248687Y-108875D01*
X248500Y-109083D01*
X248367Y-109333D01*
X248260Y-109750D01*
X248233Y-110125D01*
X248287Y-110500D01*
X248367Y-110750D01*
X248527Y-111000D01*
X248713Y-111167D01*
X248900Y-111250D01*
X249087D01*
X249273Y-111167D01*
X249433Y-111042D01*
X249567Y-110875D01*
G01X251100Y-111250D02*
X251287Y-111208D01*
X251500Y-111083D01*
X251633Y-110875D01*
X251687Y-110583D01*
X251633Y-110292D01*
X251473Y-110042D01*
X251233Y-109917D01*
X250967D01*
X250807Y-109833D01*
X250673Y-109625D01*
X250620Y-109333D01*
X250700Y-109042D01*
X250887Y-108833D01*
X251100Y-108750D01*
X251313Y-108833D01*
X251500Y-109042D01*
X251580Y-109333D01*
X251527Y-109625D01*
X251393Y-109833D01*
X251233Y-109917D01*
X250967D01*
X250727Y-110042D01*
X250567Y-110292D01*
X250513Y-110583D01*
X250567Y-110875D01*
X250700Y-111083D01*
X250913Y-111208D01*
X251100Y-111250D01*
G01X249487Y-28958D02*
X249327Y-28833D01*
X249140Y-28750D01*
X248927D01*
X248687Y-28875D01*
X248500Y-29083D01*
X248367Y-29333D01*
X248260Y-29750D01*
X248233Y-30125D01*
X248287Y-30500D01*
X248367Y-30750D01*
X248527Y-31000D01*
X248713Y-31167D01*
X248900Y-31250D01*
X249087D01*
X249273Y-31167D01*
X249433Y-31042D01*
X249567Y-30875D01*
G01X251420Y-31250D02*
Y-28750D01*
X250433Y-30542D01*
X251767D01*
G01X262000Y-291493D02*
X257000D01*
Y-290227D01*
X257250Y-289720D01*
X257583Y-289340D01*
X258083Y-289023D01*
X258667Y-288770D01*
X259500Y-288707D01*
X260333Y-288770D01*
X260917Y-289023D01*
X261417Y-289340D01*
X261750Y-289720D01*
X262000Y-290227D01*
Y-291493D01*
G01Y-285000D02*
X257000D01*
X258000Y-285760D01*
G01X262000D02*
Y-284240D01*
G01Y-279140D02*
X257000D01*
X260583Y-281483D01*
Y-278317D01*
G01X272000Y-291493D02*
X267000D01*
Y-290227D01*
X267250Y-289720D01*
X267583Y-289340D01*
X268083Y-289023D01*
X268667Y-288770D01*
X269500Y-288707D01*
X270333Y-288770D01*
X270917Y-289023D01*
X271417Y-289340D01*
X271750Y-289720D01*
X272000Y-290227D01*
Y-291493D01*
G01Y-285000D02*
X267000D01*
X268000Y-285760D01*
G01X272000D02*
Y-284240D01*
G01X271250Y-281293D02*
X271667Y-280913D01*
X271917Y-280470D01*
X272000Y-279900D01*
X271833Y-279330D01*
X271500Y-278887D01*
X270917Y-278570D01*
X270250Y-278507D01*
X269583Y-278633D01*
X269167Y-278950D01*
X268833Y-279393D01*
X268750Y-279837D01*
X268833Y-280280D01*
X269167Y-280850D01*
X267000Y-280660D01*
Y-278950D01*
G01X253500Y-303550D02*
X256000D01*
G01X253500Y-304163D02*
Y-302937D01*
G01X256000Y-301883D02*
X253500D01*
Y-301243D01*
X253625Y-301030D01*
X253917Y-300870D01*
X254250Y-300817D01*
X254583Y-300870D01*
X254833Y-301003D01*
X254958Y-301243D01*
Y-301883D01*
G01X255500Y-299737D02*
X255792Y-299577D01*
X255958Y-299363D01*
X256000Y-299123D01*
X255958Y-298910D01*
X255750Y-298697D01*
X255500Y-298563D01*
X255250Y-298537D01*
X254958Y-298590D01*
X254750Y-298777D01*
X254667Y-298963D01*
Y-299203D01*
G01Y-298963D02*
X254542Y-298803D01*
X254333Y-298670D01*
X254083Y-298617D01*
X253833Y-298670D01*
X253625Y-298803D01*
X253500Y-299043D01*
X253542Y-299283D01*
X253708Y-299523D01*
G01X256000Y-296630D02*
X253500D01*
X255292Y-297617D01*
Y-296283D01*
G01X263500Y-303550D02*
X266000D01*
G01X263500Y-304163D02*
Y-302937D01*
G01X266000Y-301883D02*
X263500D01*
Y-301243D01*
X263625Y-301030D01*
X263917Y-300870D01*
X264250Y-300817D01*
X264583Y-300870D01*
X264833Y-301003D01*
X264958Y-301243D01*
Y-301883D01*
G01X265500Y-299737D02*
X265792Y-299577D01*
X265958Y-299363D01*
X266000Y-299123D01*
X265958Y-298910D01*
X265750Y-298697D01*
X265500Y-298563D01*
X265250Y-298537D01*
X264958Y-298590D01*
X264750Y-298777D01*
X264667Y-298963D01*
Y-299203D01*
G01Y-298963D02*
X264542Y-298803D01*
X264333Y-298670D01*
X264083Y-298617D01*
X263833Y-298670D01*
X263625Y-298803D01*
X263500Y-299043D01*
X263542Y-299283D01*
X263708Y-299523D01*
G01X264958Y-297457D02*
X264667Y-297270D01*
X264500Y-297110D01*
X264417Y-296897D01*
X264500Y-296710D01*
X264667Y-296577D01*
X264917Y-296470D01*
X265208Y-296443D01*
X265458Y-296470D01*
X265708Y-296577D01*
X265917Y-296737D01*
X266000Y-296923D01*
X265917Y-297137D01*
X265667Y-297323D01*
X265292Y-297430D01*
X264875Y-297457D01*
X264333Y-297403D01*
X264042Y-297323D01*
X263750Y-297190D01*
X263542Y-297003D01*
X263500Y-296817D01*
X263583Y-296630D01*
X263792Y-296497D01*
G01X265000Y-275433D02*
X295000D01*
Y-204567D01*
X265000D01*
Y-275433D01*
G01Y-195433D02*
X295000D01*
Y-124567D01*
X265000D01*
Y-195433D01*
G01Y-115433D02*
X295000D01*
Y-44567D01*
X265000D01*
Y-115433D01*
G01Y-35433D02*
X295000D01*
Y35433D01*
X265000D01*
Y-35433D01*
G01X277500Y-246491D02*
X281083D01*
X281833Y-246238D01*
X282333Y-245732D01*
X282500Y-245099D01*
X282333Y-244465D01*
X281833Y-243959D01*
X281083Y-243706D01*
X277500D01*
G01X282500Y-240001D02*
X277500D01*
X278500Y-240760D01*
G01X282500D02*
Y-239241D01*
G01X280417Y-236106D02*
X279833Y-235662D01*
X279500Y-235282D01*
X279333Y-234776D01*
X279500Y-234333D01*
X279833Y-234016D01*
X280333Y-233763D01*
X280917Y-233699D01*
X281417Y-233763D01*
X281917Y-234016D01*
X282333Y-234396D01*
X282500Y-234839D01*
X282333Y-235346D01*
X281833Y-235789D01*
X281083Y-236042D01*
X280250Y-236106D01*
X279167Y-235979D01*
X278583Y-235789D01*
X278000Y-235472D01*
X277583Y-235029D01*
X277500Y-234586D01*
X277667Y-234143D01*
X278083Y-233826D01*
G01X273701Y-204567D02*
G03X286299I6299J1247D01*
G01X277500Y-166491D02*
X281083D01*
X281833Y-166238D01*
X282333Y-165732D01*
X282500Y-165099D01*
X282333Y-164465D01*
X281833Y-163959D01*
X281083Y-163706D01*
X277500D01*
G01X282500Y-160001D02*
X277500D01*
X278500Y-160760D01*
G01X282500D02*
Y-159241D01*
G01X278333Y-156106D02*
X277833Y-155726D01*
X277583Y-155282D01*
X277500Y-154776D01*
X277667Y-154143D01*
X278083Y-153699D01*
X278583Y-153573D01*
X279083Y-153636D01*
X279500Y-153889D01*
X280333Y-155156D01*
X280917Y-155726D01*
X281750Y-156106D01*
X282500Y-156232D01*
Y-153573D01*
G01X273701Y-124567D02*
G03X286299I6299J1247D01*
G01X277500Y-83942D02*
X281083D01*
X281833Y-83689D01*
X282333Y-83183D01*
X282500Y-82550D01*
X282333Y-81916D01*
X281833Y-81410D01*
X281083Y-81157D01*
X277500D01*
G01X282500Y-77452D02*
X282417Y-77008D01*
X282167Y-76502D01*
X281750Y-76185D01*
X281167Y-76059D01*
X280583Y-76185D01*
X280083Y-76565D01*
X279833Y-77135D01*
Y-77768D01*
X279667Y-78148D01*
X279250Y-78465D01*
X278667Y-78591D01*
X278083Y-78401D01*
X277667Y-77958D01*
X277500Y-77452D01*
X277667Y-76945D01*
X278083Y-76502D01*
X278667Y-76312D01*
X279250Y-76438D01*
X279667Y-76755D01*
X279833Y-77135D01*
Y-77768D01*
X280083Y-78338D01*
X280583Y-78718D01*
X281167Y-78844D01*
X281750Y-78718D01*
X282167Y-78401D01*
X282417Y-77895D01*
X282500Y-77452D01*
G01X273701Y-44567D02*
G03X286299I6299J1247D01*
G01X277500Y-3942D02*
X281083D01*
X281833Y-3689D01*
X282333Y-3183D01*
X282500Y-2550D01*
X282333Y-1916D01*
X281833Y-1410D01*
X281083Y-1157D01*
X277500D01*
G01X282500Y3308D02*
X277500D01*
X281083Y966D01*
Y4131D01*
G01X273701Y35433D02*
G03X286299I6299J1247D01*
G01X314987Y-255630D02*
X314517Y-255170D01*
X313734Y-254825D01*
X312637Y-254595D01*
X311697Y-254825D01*
X311070Y-255285D01*
X310600Y-256090D01*
Y-259195D01*
X320000D01*
Y-255400D01*
X319373Y-254595D01*
X318433Y-254135D01*
X317337Y-253905D01*
X316240Y-254135D01*
X315300Y-254825D01*
X314987Y-255630D01*
Y-259195D01*
G01X320000Y-250225D02*
X310600Y-247350D01*
X320000Y-244475D01*
G01X316710Y-245510D02*
Y-249190D01*
G01X320000Y-240795D02*
X310600D01*
X320000Y-235505D01*
X310600D01*
G01X320000Y-231480D02*
X310600D01*
G01Y-227110D02*
X316397Y-231480D01*
G01X320000Y-226420D02*
X313734Y-229525D01*
G01X318120Y-222280D02*
X319217Y-221590D01*
X319843Y-220670D01*
X320000Y-219635D01*
X319843Y-218715D01*
X319060Y-217795D01*
X318120Y-217220D01*
X317180Y-217105D01*
X316084Y-217335D01*
X315300Y-218140D01*
X314987Y-218945D01*
Y-219980D01*
G01Y-218945D02*
X314517Y-218255D01*
X313734Y-217680D01*
X312793Y-217450D01*
X311853Y-217680D01*
X311070Y-218255D01*
X310600Y-219290D01*
X310757Y-220325D01*
X311383Y-221360D01*
G01X314987Y-175630D02*
X314517Y-175170D01*
X313734Y-174825D01*
X312637Y-174595D01*
X311697Y-174825D01*
X311070Y-175285D01*
X310600Y-176090D01*
Y-179195D01*
X320000D01*
Y-175400D01*
X319373Y-174595D01*
X318433Y-174135D01*
X317337Y-173905D01*
X316240Y-174135D01*
X315300Y-174825D01*
X314987Y-175630D01*
Y-179195D01*
G01X320000Y-170225D02*
X310600Y-167350D01*
X320000Y-164475D01*
G01X316710Y-165510D02*
Y-169190D01*
G01X320000Y-160795D02*
X310600D01*
X320000Y-155505D01*
X310600D01*
G01X320000Y-151480D02*
X310600D01*
G01Y-147110D02*
X316397Y-151480D01*
G01X320000Y-146420D02*
X313734Y-149525D01*
G01X312167Y-141935D02*
X311227Y-141245D01*
X310757Y-140440D01*
X310600Y-139520D01*
X310913Y-138370D01*
X311697Y-137565D01*
X312637Y-137335D01*
X313577Y-137450D01*
X314360Y-137910D01*
X315927Y-140210D01*
X317023Y-141245D01*
X318590Y-141935D01*
X320000Y-142165D01*
Y-137335D01*
G01X314987Y-95630D02*
X314517Y-95170D01*
X313734Y-94825D01*
X312637Y-94595D01*
X311697Y-94825D01*
X311070Y-95285D01*
X310600Y-96090D01*
Y-99195D01*
X320000D01*
Y-95400D01*
X319373Y-94595D01*
X318433Y-94135D01*
X317337Y-93905D01*
X316240Y-94135D01*
X315300Y-94825D01*
X314987Y-95630D01*
Y-99195D01*
G01X320000Y-90225D02*
X310600Y-87350D01*
X320000Y-84475D01*
G01X316710Y-85510D02*
Y-89190D01*
G01X320000Y-80795D02*
X310600D01*
X320000Y-75505D01*
X310600D01*
G01X320000Y-71480D02*
X310600D01*
G01Y-67110D02*
X316397Y-71480D01*
G01X320000Y-66420D02*
X313734Y-69525D01*
G01X320000Y-59750D02*
X310600D01*
X312480Y-61130D01*
G01X320000D02*
Y-58370D01*
G01X314987Y-15630D02*
X314517Y-15170D01*
X313734Y-14825D01*
X312637Y-14595D01*
X311697Y-14825D01*
X311070Y-15285D01*
X310600Y-16090D01*
Y-19195D01*
X320000D01*
Y-15400D01*
X319373Y-14595D01*
X318433Y-14135D01*
X317337Y-13905D01*
X316240Y-14135D01*
X315300Y-14825D01*
X314987Y-15630D01*
Y-19195D01*
G01X320000Y-10225D02*
X310600Y-7350D01*
X320000Y-4475D01*
G01X316710Y-5510D02*
Y-9190D01*
G01X320000Y-795D02*
X310600D01*
X320000Y4495D01*
X310600D01*
G01X320000Y8520D02*
X310600D01*
G01Y12890D02*
X316397Y8520D01*
G01X320000Y13580D02*
X313734Y10475D01*
G01X310600Y20250D02*
X310913Y19330D01*
X311697Y18640D01*
X312637Y18180D01*
X313890Y17835D01*
X315300Y17720D01*
X316710Y17835D01*
X317963Y18180D01*
X318904Y18640D01*
X319687Y19330D01*
X320000Y20250D01*
X319687Y21170D01*
X318904Y21860D01*
X317963Y22320D01*
X316710Y22665D01*
X315300Y22780D01*
X313890Y22665D01*
X312637Y22320D01*
X311697Y21860D01*
X310913Y21170D01*
X310600Y20250D01*
G01X316700Y-293750D02*
Y-296250D01*
G01X316087Y-293750D02*
X317313D01*
G01X318367Y-296250D02*
Y-293750D01*
X319007D01*
X319220Y-293875D01*
X319380Y-294167D01*
X319433Y-294500D01*
X319380Y-294833D01*
X319247Y-295083D01*
X319007Y-295208D01*
X318367D01*
G01X320593Y-294167D02*
X320753Y-293917D01*
X320940Y-293792D01*
X321153Y-293750D01*
X321420Y-293833D01*
X321607Y-294042D01*
X321660Y-294292D01*
X321633Y-294542D01*
X321527Y-294750D01*
X320993Y-295167D01*
X320753Y-295458D01*
X320593Y-295875D01*
X320540Y-296250D01*
X321660D01*
G01X323300D02*
Y-293750D01*
X322980Y-294250D01*
G01Y-296250D02*
X323620D01*
G01X316700Y36250D02*
Y33750D01*
G01X316087Y36250D02*
X317313D01*
G01X318367Y33750D02*
Y36250D01*
X319007D01*
X319220Y36125D01*
X319380Y35833D01*
X319433Y35500D01*
X319380Y35167D01*
X319247Y34917D01*
X319007Y34792D01*
X318367D01*
G01X321100Y33750D02*
Y36250D01*
X320780Y35750D01*
G01Y33750D02*
X321420D01*
G01X323300D02*
Y36250D01*
X322980Y35750D01*
G01Y33750D02*
X323620D01*
G01X74000Y-283000D02*
X70500D01*
G02X69000Y-281500I0J1500D01*
G01Y-278500D01*
G02X70500Y-277000I1500J0D01*
G01X74000D01*
G01X76000Y-283000D02*
X79500D01*
G03X81000Y-281500I0J1500D01*
G01Y-278500D01*
G03X79500Y-277000I-1500J0D01*
G01X76000D01*
G01X74000Y-203000D02*
X70500D01*
G02X69000Y-201500I0J1500D01*
G01Y-198500D01*
G02X70500Y-197000I1500J0D01*
G01X74000D01*
G01X76000Y-203000D02*
X79500D01*
G03X81000Y-201500I0J1500D01*
G01Y-198500D01*
G03X79500Y-197000I-1500J0D01*
G01X76000D01*
G01X74000Y-123000D02*
X70500D01*
G02X69000Y-121500I0J1500D01*
G01Y-118500D01*
G02X70500Y-117000I1500J0D01*
G01X74000D01*
G01X76000Y-123000D02*
X79500D01*
G03X81000Y-121500I0J1500D01*
G01Y-118500D01*
G03X79500Y-117000I-1500J0D01*
G01X76000D01*
G01X74000Y-43000D02*
X70500D01*
G02X69000Y-41500I0J1500D01*
G01Y-38500D01*
G02X70500Y-37000I1500J0D01*
G01X74000D01*
G01X76000Y-43000D02*
X79500D01*
G03X81000Y-41500I0J1500D01*
G01Y-38500D01*
G03X79500Y-37000I-1500J0D01*
G01X76000D01*
G01X129000Y-283000D02*
X125500D01*
G02X124000Y-281500I0J1500D01*
G01Y-278500D01*
G02X125500Y-277000I1500J0D01*
G01X129000D01*
G01Y-203000D02*
X125500D01*
G02X124000Y-201500I0J1500D01*
G01Y-198500D01*
G02X125500Y-197000I1500J0D01*
G01X129000D01*
G01Y-123000D02*
X125500D01*
G02X124000Y-121500I0J1500D01*
G01Y-118500D01*
G02X125500Y-117000I1500J0D01*
G01X129000D01*
G01Y-43000D02*
X125500D01*
G02X124000Y-41500I0J1500D01*
G01Y-38500D01*
G02X125500Y-37000I1500J0D01*
G01X129000D01*
G01X131000Y-283000D02*
X134500D01*
G03X136000Y-281500I0J1500D01*
G01Y-278500D01*
G03X134500Y-277000I-1500J0D01*
G01X131000D01*
G01Y-203000D02*
X134500D01*
G03X136000Y-201500I0J1500D01*
G01Y-198500D01*
G03X134500Y-197000I-1500J0D01*
G01X131000D01*
G01Y-123000D02*
X134500D01*
G03X136000Y-121500I0J1500D01*
G01Y-118500D01*
G03X134500Y-117000I-1500J0D01*
G01X131000D01*
G01Y-43000D02*
X134500D01*
G03X136000Y-41500I0J1500D01*
G01Y-38500D01*
G03X134500Y-37000I-1500J0D01*
G01X131000D01*
G01X189000Y-283000D02*
X185500D01*
G02X184000Y-281500I0J1500D01*
G01Y-278500D01*
G02X185500Y-277000I1500J0D01*
G01X189000D01*
G01Y-203000D02*
X185500D01*
G02X184000Y-201500I0J1500D01*
G01Y-198500D01*
G02X185500Y-197000I1500J0D01*
G01X189000D01*
G01Y-123000D02*
X185500D01*
G02X184000Y-121500I0J1500D01*
G01Y-118500D01*
G02X185500Y-117000I1500J0D01*
G01X189000D01*
G01Y-43000D02*
X185500D01*
G02X184000Y-41500I0J1500D01*
G01Y-38500D01*
G02X185500Y-37000I1500J0D01*
G01X189000D01*
G01X191000Y-283000D02*
X194500D01*
G03X196000Y-281500I0J1500D01*
G01Y-278500D01*
G03X194500Y-277000I-1500J0D01*
G01X191000D01*
G01Y-203000D02*
X194500D01*
G03X196000Y-201500I0J1500D01*
G01Y-198500D01*
G03X194500Y-197000I-1500J0D01*
G01X191000D01*
G01Y-123000D02*
X194500D01*
G03X196000Y-121500I0J1500D01*
G01Y-118500D01*
G03X194500Y-117000I-1500J0D01*
G01X191000D01*
G01Y-43000D02*
X194500D01*
G03X196000Y-41500I0J1500D01*
G01Y-38500D01*
G03X194500Y-37000I-1500J0D01*
G01X191000D01*
G01X249000Y-283000D02*
X245500D01*
G02X244000Y-281500I0J1500D01*
G01Y-278500D01*
G02X245500Y-277000I1500J0D01*
G01X249000D01*
G01X251000Y-283000D02*
X254500D01*
G03X256000Y-281500I0J1500D01*
G01Y-278500D01*
G03X254500Y-277000I-1500J0D01*
G01X251000D01*
G01X249000Y-203000D02*
X245500D01*
G02X244000Y-201500I0J1500D01*
G01Y-198500D01*
G02X245500Y-197000I1500J0D01*
G01X249000D01*
G01X251000Y-203000D02*
X254500D01*
G03X256000Y-201500I0J1500D01*
G01Y-198500D01*
G03X254500Y-197000I-1500J0D01*
G01X251000D01*
G01X249000Y-123000D02*
X245500D01*
G02X244000Y-121500I0J1500D01*
G01Y-118500D01*
G02X245500Y-117000I1500J0D01*
G01X249000D01*
G01X251000Y-123000D02*
X254500D01*
G03X256000Y-121500I0J1500D01*
G01Y-118500D01*
G03X254500Y-117000I-1500J0D01*
G01X251000D01*
G01X249000Y-43000D02*
X245500D01*
G02X244000Y-41500I0J1500D01*
G01Y-38500D01*
G02X245500Y-37000I1500J0D01*
G01X249000D01*
G01X251000Y-43000D02*
X254500D01*
G03X256000Y-41500I0J1500D01*
G01Y-38500D01*
G03X254500Y-37000I-1500J0D01*
G01X251000D01*
M02*
